%TF.GenerationSoftware,KiCad,Pcbnew,9.0.1*%
%TF.CreationDate,2026-01-12T23:01:10+01:00*%
%TF.ProjectId,GeT_Computer,4765545f-436f-46d7-9075-7465722e6b69,rev?*%
%TF.SameCoordinates,Original*%
%TF.FileFunction,Copper,L1,Top*%
%TF.FilePolarity,Positive*%
%FSLAX46Y46*%
G04 Gerber Fmt 4.6, Leading zero omitted, Abs format (unit mm)*
G04 Created by KiCad (PCBNEW 9.0.1) date 2026-01-12 23:01:10*
%MOMM*%
%LPD*%
G01*
G04 APERTURE LIST*
G04 Aperture macros list*
%AMRoundRect*
0 Rectangle with rounded corners*
0 $1 Rounding radius*
0 $2 $3 $4 $5 $6 $7 $8 $9 X,Y pos of 4 corners*
0 Add a 4 corners polygon primitive as box body*
4,1,4,$2,$3,$4,$5,$6,$7,$8,$9,$2,$3,0*
0 Add four circle primitives for the rounded corners*
1,1,$1+$1,$2,$3*
1,1,$1+$1,$4,$5*
1,1,$1+$1,$6,$7*
1,1,$1+$1,$8,$9*
0 Add four rect primitives between the rounded corners*
20,1,$1+$1,$2,$3,$4,$5,0*
20,1,$1+$1,$4,$5,$6,$7,0*
20,1,$1+$1,$6,$7,$8,$9,0*
20,1,$1+$1,$8,$9,$2,$3,0*%
G04 Aperture macros list end*
%TA.AperFunction,SMDPad,CuDef*%
%ADD10RoundRect,0.140000X-0.140000X-0.170000X0.140000X-0.170000X0.140000X0.170000X-0.140000X0.170000X0*%
%TD*%
%TA.AperFunction,SMDPad,CuDef*%
%ADD11RoundRect,0.075000X0.662500X0.075000X-0.662500X0.075000X-0.662500X-0.075000X0.662500X-0.075000X0*%
%TD*%
%TA.AperFunction,SMDPad,CuDef*%
%ADD12RoundRect,0.075000X0.075000X0.662500X-0.075000X0.662500X-0.075000X-0.662500X0.075000X-0.662500X0*%
%TD*%
%TA.AperFunction,SMDPad,CuDef*%
%ADD13RoundRect,0.140000X0.170000X-0.140000X0.170000X0.140000X-0.170000X0.140000X-0.170000X-0.140000X0*%
%TD*%
%TA.AperFunction,SMDPad,CuDef*%
%ADD14RoundRect,0.140000X-0.170000X0.140000X-0.170000X-0.140000X0.170000X-0.140000X0.170000X0.140000X0*%
%TD*%
%TA.AperFunction,SMDPad,CuDef*%
%ADD15R,1.400000X1.200000*%
%TD*%
%TA.AperFunction,SMDPad,CuDef*%
%ADD16RoundRect,0.250000X0.450000X-0.325000X0.450000X0.325000X-0.450000X0.325000X-0.450000X-0.325000X0*%
%TD*%
%TA.AperFunction,SMDPad,CuDef*%
%ADD17RoundRect,0.250000X-0.450000X0.350000X-0.450000X-0.350000X0.450000X-0.350000X0.450000X0.350000X0*%
%TD*%
%TA.AperFunction,SMDPad,CuDef*%
%ADD18RoundRect,0.140000X0.140000X0.170000X-0.140000X0.170000X-0.140000X-0.170000X0.140000X-0.170000X0*%
%TD*%
%TA.AperFunction,SMDPad,CuDef*%
%ADD19RoundRect,0.250000X-0.350000X-0.450000X0.350000X-0.450000X0.350000X0.450000X-0.350000X0.450000X0*%
%TD*%
%TA.AperFunction,SMDPad,CuDef*%
%ADD20RoundRect,0.250000X0.450000X-0.350000X0.450000X0.350000X-0.450000X0.350000X-0.450000X-0.350000X0*%
%TD*%
%TA.AperFunction,SMDPad,CuDef*%
%ADD21RoundRect,0.135000X-0.135000X-0.185000X0.135000X-0.185000X0.135000X0.185000X-0.135000X0.185000X0*%
%TD*%
%TA.AperFunction,ComponentPad*%
%ADD22C,4.000000*%
%TD*%
%TA.AperFunction,ComponentPad*%
%ADD23R,1.600000X1.600000*%
%TD*%
%TA.AperFunction,ComponentPad*%
%ADD24C,1.600000*%
%TD*%
%TA.AperFunction,SMDPad,CuDef*%
%ADD25R,1.350000X1.800000*%
%TD*%
%TA.AperFunction,SMDPad,CuDef*%
%ADD26RoundRect,0.218750X-0.256250X0.218750X-0.256250X-0.218750X0.256250X-0.218750X0.256250X0.218750X0*%
%TD*%
%TA.AperFunction,SMDPad,CuDef*%
%ADD27RoundRect,0.150000X0.675000X0.150000X-0.675000X0.150000X-0.675000X-0.150000X0.675000X-0.150000X0*%
%TD*%
%TA.AperFunction,SMDPad,CuDef*%
%ADD28RoundRect,0.135000X-0.185000X0.135000X-0.185000X-0.135000X0.185000X-0.135000X0.185000X0.135000X0*%
%TD*%
%TA.AperFunction,SMDPad,CuDef*%
%ADD29RoundRect,0.135000X0.185000X-0.135000X0.185000X0.135000X-0.185000X0.135000X-0.185000X-0.135000X0*%
%TD*%
%TA.AperFunction,SMDPad,CuDef*%
%ADD30RoundRect,0.250000X0.475000X-0.250000X0.475000X0.250000X-0.475000X0.250000X-0.475000X-0.250000X0*%
%TD*%
%TA.AperFunction,SMDPad,CuDef*%
%ADD31RoundRect,0.250000X0.475000X-0.337500X0.475000X0.337500X-0.475000X0.337500X-0.475000X-0.337500X0*%
%TD*%
%TA.AperFunction,ComponentPad*%
%ADD32R,1.700000X1.700000*%
%TD*%
%TA.AperFunction,ComponentPad*%
%ADD33C,1.700000*%
%TD*%
%TA.AperFunction,SMDPad,CuDef*%
%ADD34R,0.530000X0.470000*%
%TD*%
%TA.AperFunction,SMDPad,CuDef*%
%ADD35R,1.700000X0.700000*%
%TD*%
%TA.AperFunction,SMDPad,CuDef*%
%ADD36RoundRect,0.218750X0.256250X-0.218750X0.256250X0.218750X-0.256250X0.218750X-0.256250X-0.218750X0*%
%TD*%
%TA.AperFunction,ComponentPad*%
%ADD37R,1.509000X1.509000*%
%TD*%
%TA.AperFunction,ComponentPad*%
%ADD38C,1.509000*%
%TD*%
%TA.AperFunction,ComponentPad*%
%ADD39C,3.555000*%
%TD*%
%TA.AperFunction,SMDPad,CuDef*%
%ADD40RoundRect,0.055000X0.055000X0.335000X-0.055000X0.335000X-0.055000X-0.335000X0.055000X-0.335000X0*%
%TD*%
%TA.AperFunction,SMDPad,CuDef*%
%ADD41RoundRect,0.055000X0.335000X-0.055000X0.335000X0.055000X-0.335000X0.055000X-0.335000X-0.055000X0*%
%TD*%
%TA.AperFunction,ComponentPad*%
%ADD42C,0.600000*%
%TD*%
%TA.AperFunction,SMDPad,CuDef*%
%ADD43R,1.133333X1.133333*%
%TD*%
%TA.AperFunction,SMDPad,CuDef*%
%ADD44RoundRect,0.375000X0.375000X-0.625000X0.375000X0.625000X-0.375000X0.625000X-0.375000X-0.625000X0*%
%TD*%
%TA.AperFunction,SMDPad,CuDef*%
%ADD45RoundRect,0.500000X1.400000X-0.500000X1.400000X0.500000X-1.400000X0.500000X-1.400000X-0.500000X0*%
%TD*%
%TA.AperFunction,SMDPad,CuDef*%
%ADD46RoundRect,0.250000X0.350000X0.450000X-0.350000X0.450000X-0.350000X-0.450000X0.350000X-0.450000X0*%
%TD*%
%TA.AperFunction,SMDPad,CuDef*%
%ADD47R,1.000000X2.000000*%
%TD*%
%TA.AperFunction,SMDPad,CuDef*%
%ADD48R,2.000000X1.000000*%
%TD*%
%TA.AperFunction,SMDPad,CuDef*%
%ADD49R,1.800000X1.350000*%
%TD*%
%TA.AperFunction,SMDPad,CuDef*%
%ADD50RoundRect,0.135000X0.135000X0.185000X-0.135000X0.185000X-0.135000X-0.185000X0.135000X-0.185000X0*%
%TD*%
%TA.AperFunction,SMDPad,CuDef*%
%ADD51RoundRect,0.250000X-0.475000X0.337500X-0.475000X-0.337500X0.475000X-0.337500X0.475000X0.337500X0*%
%TD*%
%TA.AperFunction,ComponentPad*%
%ADD52C,1.400000*%
%TD*%
%TA.AperFunction,ComponentPad*%
%ADD53C,2.184400*%
%TD*%
%TA.AperFunction,SMDPad,CuDef*%
%ADD54R,0.300000X1.300000*%
%TD*%
%TA.AperFunction,ComponentPad*%
%ADD55O,1.200000X2.000000*%
%TD*%
%TA.AperFunction,ComponentPad*%
%ADD56O,1.200000X1.800000*%
%TD*%
%TA.AperFunction,SMDPad,CuDef*%
%ADD57R,0.850000X1.100000*%
%TD*%
%TA.AperFunction,SMDPad,CuDef*%
%ADD58R,0.750000X1.100000*%
%TD*%
%TA.AperFunction,SMDPad,CuDef*%
%ADD59R,1.200000X1.000000*%
%TD*%
%TA.AperFunction,SMDPad,CuDef*%
%ADD60R,1.550000X1.350000*%
%TD*%
%TA.AperFunction,SMDPad,CuDef*%
%ADD61R,1.900000X1.350000*%
%TD*%
%TA.AperFunction,SMDPad,CuDef*%
%ADD62R,1.170000X1.800000*%
%TD*%
%TA.AperFunction,SMDPad,CuDef*%
%ADD63RoundRect,0.250000X0.337500X0.475000X-0.337500X0.475000X-0.337500X-0.475000X0.337500X-0.475000X0*%
%TD*%
%TA.AperFunction,SMDPad,CuDef*%
%ADD64RoundRect,0.218750X-0.218750X-0.256250X0.218750X-0.256250X0.218750X0.256250X-0.218750X0.256250X0*%
%TD*%
%TA.AperFunction,ViaPad*%
%ADD65C,0.600000*%
%TD*%
%TA.AperFunction,Conductor*%
%ADD66C,0.400000*%
%TD*%
%TA.AperFunction,Conductor*%
%ADD67C,0.200000*%
%TD*%
%TA.AperFunction,Conductor*%
%ADD68C,0.500000*%
%TD*%
%TA.AperFunction,Conductor*%
%ADD69C,0.800000*%
%TD*%
%TA.AperFunction,Conductor*%
%ADD70C,0.300000*%
%TD*%
%TA.AperFunction,Conductor*%
%ADD71C,0.600000*%
%TD*%
%TA.AperFunction,Conductor*%
%ADD72C,1.000000*%
%TD*%
%TA.AperFunction,Conductor*%
%ADD73C,0.250000*%
%TD*%
%TA.AperFunction,Conductor*%
%ADD74C,0.160000*%
%TD*%
%TA.AperFunction,Conductor*%
%ADD75C,0.180000*%
%TD*%
%TA.AperFunction,Conductor*%
%ADD76C,0.220000*%
%TD*%
G04 APERTURE END LIST*
D10*
%TO.P,C43,2*%
%TO.N,GND*%
X140880000Y-82960000D03*
%TO.P,C43,1*%
%TO.N,+1V1*%
X139920000Y-82960000D03*
%TD*%
D11*
%TO.P,U5,1,GNDA*%
%TO.N,GND*%
X146562500Y-105250000D03*
%TO.P,U5,2,TXON*%
%TO.N,/ETH_TX-*%
X146562500Y-104750000D03*
%TO.P,U5,3,TXOP*%
%TO.N,/ETH_TX+*%
X146562500Y-104250000D03*
%TO.P,U5,4,1V2A*%
%TO.N,+1.2VA*%
X146562500Y-103750000D03*
%TO.P,U5,5,RXIN*%
%TO.N,/ETH_RX-*%
X146562500Y-103250000D03*
%TO.P,U5,6,RXIP*%
%TO.N,/ETH_RX+*%
X146562500Y-102750000D03*
%TO.P,U5,7,GNDA*%
%TO.N,GND*%
X146562500Y-102250000D03*
%TO.P,U5,8,3V3A*%
%TO.N,+3.3VA*%
X146562500Y-101750000D03*
%TO.P,U5,9,RSET_BG*%
%TO.N,Net-(U5-RSET_BG)*%
X146562500Y-101250000D03*
%TO.P,U5,10,GND*%
%TO.N,GND*%
X146562500Y-100750000D03*
%TO.P,U5,11,XSCO*%
%TO.N,Net-(U5-XSCO)*%
X146562500Y-100250000D03*
%TO.P,U5,12,XSCI*%
%TO.N,Net-(U5-XSCI)*%
X146562500Y-99750000D03*
D12*
%TO.P,U5,13,1V2D*%
%TO.N,+1.2VD*%
X145150000Y-98337500D03*
%TO.P,U5,14,1V2O*%
%TO.N,+1.2VO*%
X144650000Y-98337500D03*
%TO.P,U5,15,3V3A*%
%TO.N,+3.3VA*%
X144150000Y-98337500D03*
%TO.P,U5,16,GNDA*%
%TO.N,GND*%
X143650000Y-98337500D03*
%TO.P,U5,17,~{LNK}*%
%TO.N,/LNK*%
X143150000Y-98337500D03*
%TO.P,U5,18,~{SPD}*%
%TO.N,unconnected-(U5-~{SPD}-Pad18)*%
X142650000Y-98337500D03*
%TO.P,U5,19,~{DPX}*%
%TO.N,unconnected-(U5-~{DPX}-Pad19)*%
X142150000Y-98337500D03*
%TO.P,U5,20,~{ACT}*%
%TO.N,/ACT*%
X141650000Y-98337500D03*
%TO.P,U5,21,~{COL}*%
%TO.N,unconnected-(U5-~{COL}-Pad21)*%
X141150000Y-98337500D03*
%TO.P,U5,22,1V2D*%
%TO.N,+1.2VD*%
X140650000Y-98337500D03*
%TO.P,U5,23,GND*%
%TO.N,GND*%
X140150000Y-98337500D03*
%TO.P,U5,24,3V3D*%
%TO.N,+3V3*%
X139650000Y-98337500D03*
D11*
%TO.P,U5,25,MOD[0]*%
%TO.N,GND*%
X138237500Y-99750000D03*
%TO.P,U5,26,MOD[1]*%
X138237500Y-100250000D03*
%TO.P,U5,27,MOD[2]*%
X138237500Y-100750000D03*
%TO.P,U5,28,MOD[3]*%
X138237500Y-101250000D03*
%TO.P,U5,29,~{CS}*%
%TO.N,/ETH_CSn*%
X138237500Y-101750000D03*
%TO.P,U5,30,SCLK*%
%TO.N,/ETH_SCK*%
X138237500Y-102250000D03*
%TO.P,U5,31,1V2D*%
%TO.N,+1.2VD*%
X138237500Y-102750000D03*
%TO.P,U5,32,MOSI*%
%TO.N,/ETH_TX*%
X138237500Y-103250000D03*
%TO.P,U5,33,MISO*%
%TO.N,/ETH_RX*%
X138237500Y-103750000D03*
%TO.P,U5,34,~{RD}*%
%TO.N,unconnected-(U5-~{RD}-Pad34)*%
X138237500Y-104250000D03*
%TO.P,U5,35,~{WR}*%
%TO.N,unconnected-(U5-~{WR}-Pad35)*%
X138237500Y-104750000D03*
%TO.P,U5,36,3V3D*%
%TO.N,+3V3*%
X138237500Y-105250000D03*
D12*
%TO.P,U5,37,DATA0*%
%TO.N,unconnected-(U5-DATA0-Pad37)*%
X139650000Y-106662500D03*
%TO.P,U5,38,DATA1*%
%TO.N,unconnected-(U5-DATA1-Pad38)*%
X140150000Y-106662500D03*
%TO.P,U5,39,DATA2*%
%TO.N,unconnected-(U5-DATA2-Pad39)*%
X140650000Y-106662500D03*
%TO.P,U5,40,DATA3*%
%TO.N,unconnected-(U5-DATA3-Pad40)*%
X141150000Y-106662500D03*
%TO.P,U5,41,DATA4*%
%TO.N,unconnected-(U5-DATA4-Pad41)*%
X141650000Y-106662500D03*
%TO.P,U5,42,DATA5*%
%TO.N,unconnected-(U5-DATA5-Pad42)*%
X142150000Y-106662500D03*
%TO.P,U5,43,DATA6*%
%TO.N,unconnected-(U5-DATA6-Pad43)*%
X142650000Y-106662500D03*
%TO.P,U5,44,DATA7*%
%TO.N,unconnected-(U5-DATA7-Pad44)*%
X143150000Y-106662500D03*
%TO.P,U5,45,1V2D*%
%TO.N,+1.2VD*%
X143650000Y-106662500D03*
%TO.P,U5,46,GND*%
%TO.N,GND*%
X144150000Y-106662500D03*
%TO.P,U5,47,~{INT}*%
%TO.N,/ETH_INTn*%
X144650000Y-106662500D03*
%TO.P,U5,48,~{RST}*%
%TO.N,/ETH_RSTn*%
X145150000Y-106662500D03*
%TD*%
D13*
%TO.P,C39,1*%
%TO.N,+1.2VD*%
X145210000Y-96830000D03*
%TO.P,C39,2*%
%TO.N,GND*%
X145210000Y-95870000D03*
%TD*%
D10*
%TO.P,C18,1*%
%TO.N,+3.3VA*%
X148670000Y-102080000D03*
%TO.P,C18,2*%
%TO.N,GND*%
X149630000Y-102080000D03*
%TD*%
D14*
%TO.P,C42,1*%
%TO.N,+1V1*%
X133180000Y-90050000D03*
%TO.P,C42,2*%
%TO.N,GND*%
X133180000Y-91010000D03*
%TD*%
D13*
%TO.P,C17,1*%
%TO.N,+3.3VA*%
X144110000Y-96830000D03*
%TO.P,C17,2*%
%TO.N,GND*%
X144110000Y-95870000D03*
%TD*%
D15*
%TO.P,Y1,1,1*%
%TO.N,/XIN*%
X143335349Y-83705608D03*
%TO.P,Y1,2,2*%
%TO.N,GND*%
X145535349Y-83705608D03*
%TO.P,Y1,3,3*%
%TO.N,Net-(C9-Pad1)*%
X145535349Y-82005608D03*
%TO.P,Y1,4,4*%
%TO.N,GND*%
X143335349Y-82005608D03*
%TD*%
D16*
%TO.P,D3,1,K*%
%TO.N,GND*%
X159120000Y-88852500D03*
%TO.P,D3,2,A*%
%TO.N,Net-(D3-A)*%
X159120000Y-86802500D03*
%TD*%
D17*
%TO.P,R9,1*%
%TO.N,Net-(D1-A)*%
X97030000Y-103850000D03*
%TO.P,R9,2*%
%TO.N,+3V3*%
X97030000Y-105850000D03*
%TD*%
D10*
%TO.P,C27,1*%
%TO.N,+3V3*%
X139400000Y-86630000D03*
%TO.P,C27,2*%
%TO.N,GND*%
X140360000Y-86630000D03*
%TD*%
D16*
%TO.P,D2,1,K*%
%TO.N,GND*%
X155450000Y-88832500D03*
%TO.P,D2,2,A*%
%TO.N,Net-(D2-A)*%
X155450000Y-86782500D03*
%TD*%
D18*
%TO.P,C10,1*%
%TO.N,+3.3VA*%
X156220000Y-105440000D03*
%TO.P,C10,2*%
%TO.N,GND*%
X155260000Y-105440000D03*
%TD*%
D19*
%TO.P,R8,1*%
%TO.N,/VGA_R1*%
X154300000Y-67900000D03*
%TO.P,R8,2*%
%TO.N,Net-(R6-Pad2)*%
X156300000Y-67900000D03*
%TD*%
%TO.P,R22,1*%
%TO.N,GND*%
X138870000Y-72910000D03*
%TO.P,R22,2*%
%TO.N,/PS2_CLK*%
X140870000Y-72910000D03*
%TD*%
D20*
%TO.P,R43,1*%
%TO.N,Net-(R43-Pad1)*%
X150070000Y-80810000D03*
%TO.P,R43,2*%
%TO.N,+3V3*%
X150070000Y-78810000D03*
%TD*%
D21*
%TO.P,R38,1*%
%TO.N,/LNK*%
X154730000Y-94020000D03*
%TO.P,R38,2*%
%TO.N,Net-(P1-PadL2)*%
X155750000Y-94020000D03*
%TD*%
D10*
%TO.P,C12,1*%
%TO.N,Net-(C12-Pad1)*%
X155450000Y-103020000D03*
%TO.P,C12,2*%
%TO.N,GND*%
X156410000Y-103020000D03*
%TD*%
D22*
%TO.P,J2,0*%
%TO.N,GND*%
X167754669Y-86695000D03*
X167754669Y-61695000D03*
D23*
%TO.P,J2,1*%
%TO.N,Net-(J2-Pad1)*%
X165214669Y-69880000D03*
D24*
%TO.P,J2,2*%
%TO.N,Net-(J2-Pad2)*%
X165214669Y-72170000D03*
%TO.P,J2,3*%
%TO.N,Net-(J2-Pad3)*%
X165214669Y-74460000D03*
%TO.P,J2,4*%
%TO.N,unconnected-(J2-Pad4)*%
X165214669Y-76750000D03*
%TO.P,J2,5*%
%TO.N,GND*%
X165214669Y-79040000D03*
%TO.P,J2,6*%
X167754669Y-68735000D03*
%TO.P,J2,7*%
X167754669Y-71025000D03*
%TO.P,J2,8*%
X167754669Y-73315000D03*
%TO.P,J2,9*%
%TO.N,unconnected-(J2-Pad9)*%
X167754669Y-75605000D03*
%TO.P,J2,10*%
%TO.N,GND*%
X167754669Y-77895000D03*
%TO.P,J2,11*%
%TO.N,unconnected-(J2-Pad11)*%
X170294669Y-69880000D03*
%TO.P,J2,12*%
%TO.N,unconnected-(J2-Pad12)*%
X170294669Y-72170000D03*
%TO.P,J2,13*%
%TO.N,/VGA_HSYNC*%
X170294669Y-74460000D03*
%TO.P,J2,14*%
%TO.N,/VGA_VSYNC*%
X170294669Y-76750000D03*
%TO.P,J2,15*%
%TO.N,unconnected-(J2-Pad15)*%
X170294669Y-79040000D03*
%TD*%
D25*
%TO.P,S2,1*%
%TO.N,/RUN*%
X104845000Y-87960000D03*
%TO.P,S2,2*%
%TO.N,Net-(R27-Pad1)*%
X100695000Y-87960000D03*
%TD*%
D20*
%TO.P,R26,1*%
%TO.N,/gSPI_DI_DO*%
X113400000Y-80200000D03*
%TO.P,R26,2*%
%TO.N,Net-(U2-nIRQ)*%
X113400000Y-78200000D03*
%TD*%
%TO.P,R46,1*%
%TO.N,Net-(D3-A)*%
X159090000Y-83770000D03*
%TO.P,R46,2*%
%TO.N,/GPIO28*%
X159090000Y-81770000D03*
%TD*%
D26*
%TO.P,L3,1,1*%
%TO.N,+1.2VA*%
X144220000Y-109092500D03*
%TO.P,L3,2,2*%
%TO.N,+1.2VO*%
X144220000Y-110667500D03*
%TD*%
D27*
%TO.P,U3,1,~{CS}*%
%TO.N,/PSRAM_CS*%
X122735493Y-88620894D03*
%TO.P,U3,2,SO(SIO1)*%
%TO.N,/QSPI_SD1*%
X122735493Y-87350894D03*
%TO.P,U3,3,SIO2*%
%TO.N,/QSPI_SD2*%
X122735493Y-86080894D03*
%TO.P,U3,4,GND*%
%TO.N,GND*%
X122735493Y-84810894D03*
%TO.P,U3,5,SI(SIO0)*%
%TO.N,/QSPI_SD0*%
X117485493Y-84810894D03*
%TO.P,U3,6,SCLK*%
%TO.N,/QSPI_SCLK*%
X117485493Y-86080894D03*
%TO.P,U3,7,SIO3*%
%TO.N,/QSPI_SD3*%
X117485493Y-87350894D03*
%TO.P,U3,8,VCC*%
%TO.N,+3V3*%
X117485493Y-88620894D03*
%TD*%
D28*
%TO.P,R24,1*%
%TO.N,/QSPI_SS*%
X119190000Y-90580000D03*
%TO.P,R24,2*%
%TO.N,/~{USB_BOOT}*%
X119190000Y-91600000D03*
%TD*%
D20*
%TO.P,R5,1*%
%TO.N,Net-(J3-DAT2)*%
X130610000Y-98500000D03*
%TO.P,R5,2*%
%TO.N,+3V3*%
X130610000Y-96500000D03*
%TD*%
D21*
%TO.P,R33,1*%
%TO.N,/ETH_RX-*%
X153590000Y-100040000D03*
%TO.P,R33,2*%
%TO.N,/ERX-*%
X154610000Y-100040000D03*
%TD*%
D19*
%TO.P,R7,1*%
%TO.N,Net-(R6-Pad2)*%
X158900000Y-67900000D03*
%TO.P,R7,2*%
%TO.N,Net-(J2-Pad1)*%
X160900000Y-67900000D03*
%TD*%
D29*
%TO.P,R25,1*%
%TO.N,+3V3*%
X124820493Y-89695894D03*
%TO.P,R25,2*%
%TO.N,/PSRAM_CS*%
X124820493Y-88675894D03*
%TD*%
D18*
%TO.P,C24,1*%
%TO.N,+3V3*%
X126390000Y-84210000D03*
%TO.P,C24,2*%
%TO.N,GND*%
X125430000Y-84210000D03*
%TD*%
D30*
%TO.P,C36,1*%
%TO.N,+1.2VO*%
X140400000Y-111050000D03*
%TO.P,C36,2*%
%TO.N,GND*%
X140400000Y-109150000D03*
%TD*%
D13*
%TO.P,C15,1*%
%TO.N,+3V3*%
X139600000Y-96580000D03*
%TO.P,C15,2*%
%TO.N,GND*%
X139600000Y-95620000D03*
%TD*%
D31*
%TO.P,C2,1*%
%TO.N,VBUS*%
X106900000Y-101377500D03*
%TO.P,C2,2*%
%TO.N,GND*%
X106900000Y-99302500D03*
%TD*%
D20*
%TO.P,R45,1*%
%TO.N,Net-(D2-A)*%
X155420000Y-83770000D03*
%TO.P,R45,2*%
%TO.N,/GPIO11*%
X155420000Y-81770000D03*
%TD*%
D13*
%TO.P,C21,1*%
%TO.N,+3V3*%
X137280000Y-77980000D03*
%TO.P,C21,2*%
%TO.N,GND*%
X137280000Y-77020000D03*
%TD*%
D14*
%TO.P,C8,1*%
%TO.N,/XIN*%
X141830000Y-84460000D03*
%TO.P,C8,2*%
%TO.N,GND*%
X141830000Y-85420000D03*
%TD*%
D32*
%TO.P,J5,1,Pin_1*%
%TO.N,/SWCLK*%
X113570000Y-93930000D03*
D33*
%TO.P,J5,2,Pin_2*%
%TO.N,/UART0_TX*%
X116110000Y-93930000D03*
%TO.P,J5,3,Pin_3*%
%TO.N,GND*%
X113570000Y-96470000D03*
%TO.P,J5,4,Pin_4*%
%TO.N,/UART0_RX*%
X116110000Y-96470000D03*
%TO.P,J5,5,Pin_5*%
%TO.N,/SWD*%
X113570000Y-99010000D03*
%TO.P,J5,6,Pin_6*%
%TO.N,GND*%
X116110000Y-99010000D03*
%TD*%
D34*
%TO.P,C6,1*%
%TO.N,+3V3*%
X127180000Y-81415000D03*
%TO.P,C6,2*%
%TO.N,GND*%
X127180000Y-80385000D03*
%TD*%
D21*
%TO.P,R34,1*%
%TO.N,/ERX-*%
X154590000Y-101300000D03*
%TO.P,R34,2*%
%TO.N,Net-(C11-Pad1)*%
X155610000Y-101300000D03*
%TD*%
%TO.P,R30,1*%
%TO.N,/ETH_TX+*%
X152190000Y-104030000D03*
%TO.P,R30,2*%
%TO.N,/ETX+*%
X153210000Y-104030000D03*
%TD*%
%TO.P,R17,1*%
%TO.N,/USB_D+*%
X119590000Y-82390000D03*
%TO.P,R17,2*%
%TO.N,/UD+*%
X120610000Y-82390000D03*
%TD*%
D19*
%TO.P,R13,1*%
%TO.N,/VGA_B0*%
X154300000Y-74300000D03*
%TO.P,R13,2*%
%TO.N,Net-(R13-Pad2)*%
X156300000Y-74300000D03*
%TD*%
D32*
%TO.P,J6,1,Pin_1*%
%TO.N,+3V3*%
X102130000Y-62375000D03*
D33*
%TO.P,J6,2,Pin_2*%
%TO.N,VBUS*%
X102130000Y-59835000D03*
%TO.P,J6,3,Pin_3*%
%TO.N,/GPIO30*%
X104670000Y-62375000D03*
%TO.P,J6,4,Pin_4*%
%TO.N,/GPIO47_ADC7*%
X104670000Y-59835000D03*
%TO.P,J6,5,Pin_5*%
%TO.N,/GPIO31*%
X107210000Y-62375000D03*
%TO.P,J6,6,Pin_6*%
%TO.N,/GPIO46_ADC6*%
X107210000Y-59835000D03*
%TO.P,J6,7,Pin_7*%
%TO.N,/GPIO32*%
X109750000Y-62375000D03*
%TO.P,J6,8,Pin_8*%
%TO.N,/GPIO45_ADC5*%
X109750000Y-59835000D03*
%TO.P,J6,9,Pin_9*%
%TO.N,/GPIO33*%
X112290000Y-62375000D03*
%TO.P,J6,10,Pin_10*%
%TO.N,/GPIO44_ADC4*%
X112290000Y-59835000D03*
%TO.P,J6,11,Pin_11*%
%TO.N,GND*%
X114830000Y-62375000D03*
%TO.P,J6,12,Pin_12*%
X114830000Y-59835000D03*
%TO.P,J6,13,Pin_13*%
%TO.N,/GPIO34*%
X117370000Y-62375000D03*
%TO.P,J6,14,Pin_14*%
%TO.N,/GPIO43_ADC3*%
X117370000Y-59835000D03*
%TO.P,J6,15,Pin_15*%
%TO.N,/GPIO35*%
X119910000Y-62375000D03*
%TO.P,J6,16,Pin_16*%
%TO.N,/GPIO42_ADC2*%
X119910000Y-59835000D03*
%TO.P,J6,17,Pin_17*%
%TO.N,/GPIO36*%
X122450000Y-62375000D03*
%TO.P,J6,18,Pin_18*%
%TO.N,/GPIO41_ADC1*%
X122450000Y-59835000D03*
%TO.P,J6,19,Pin_19*%
%TO.N,/GPIO37*%
X124990000Y-62375000D03*
%TO.P,J6,20,Pin_20*%
%TO.N,/GPIO40_ADC0*%
X124990000Y-59835000D03*
%TO.P,J6,21,Pin_21*%
%TO.N,/GPIO38*%
X127530000Y-62375000D03*
%TO.P,J6,22,Pin_22*%
%TO.N,/GPIO39*%
X127530000Y-59835000D03*
%TO.P,J6,23,Pin_23*%
%TO.N,GND*%
X130070000Y-62375000D03*
%TO.P,J6,24,Pin_24*%
X130070000Y-59835000D03*
%TD*%
D35*
%TO.P,L1,1,1*%
%TO.N,+1V1*%
X124500000Y-81500000D03*
%TO.P,L1,2,2*%
%TO.N,/VREG_LX*%
X124500000Y-80100000D03*
%TD*%
D16*
%TO.P,D1,1,K*%
%TO.N,GND*%
X95100000Y-105862500D03*
%TO.P,D1,2,A*%
%TO.N,Net-(D1-A)*%
X95100000Y-103812500D03*
%TD*%
D21*
%TO.P,R37,1*%
%TO.N,/ETX-*%
X152830000Y-105950000D03*
%TO.P,R37,2*%
%TO.N,Net-(C12-Pad1)*%
X153850000Y-105950000D03*
%TD*%
D25*
%TO.P,S1,1*%
%TO.N,/~{USB_BOOT}*%
X104825000Y-91630000D03*
%TO.P,S1,2*%
%TO.N,GND*%
X100675000Y-91630000D03*
%TD*%
D10*
%TO.P,C32,1*%
%TO.N,+3V3*%
X107490000Y-64930000D03*
%TO.P,C32,2*%
%TO.N,GND*%
X108450000Y-64930000D03*
%TD*%
D14*
%TO.P,C29,1*%
%TO.N,+3V3*%
X115850000Y-88670000D03*
%TO.P,C29,2*%
%TO.N,GND*%
X115850000Y-89630000D03*
%TD*%
D36*
%TO.P,L4,1,1*%
%TO.N,+1.2VO*%
X142400000Y-110687500D03*
%TO.P,L4,2,2*%
%TO.N,+1.2VD*%
X142400000Y-109112500D03*
%TD*%
D19*
%TO.P,R12,1*%
%TO.N,/VGA_G1*%
X154300000Y-72100000D03*
%TO.P,R12,2*%
%TO.N,Net-(R10-Pad2)*%
X156300000Y-72100000D03*
%TD*%
D37*
%TO.P,J4,1*%
%TO.N,Net-(J4-Pad1)*%
X140800000Y-66395000D03*
D38*
%TO.P,J4,2*%
%TO.N,unconnected-(J4-Pad2)*%
X143400000Y-66395000D03*
%TO.P,J4,3*%
%TO.N,GND*%
X138750000Y-66395000D03*
%TO.P,J4,4*%
%TO.N,VBUS*%
X145450000Y-66395000D03*
%TO.P,J4,5*%
%TO.N,Net-(J4-Pad5)*%
X138750000Y-68885000D03*
%TO.P,J4,6*%
%TO.N,unconnected-(J4-Pad6)*%
X145450000Y-68885000D03*
D39*
%TO.P,J4,MH1*%
%TO.N,N/C*%
X142100000Y-62585000D03*
%TO.P,J4,MH2*%
X148860000Y-63395000D03*
%TO.P,J4,MH3*%
X135340000Y-63395000D03*
%TD*%
D18*
%TO.P,C16,1*%
%TO.N,+3V3*%
X136480000Y-105200000D03*
%TO.P,C16,2*%
%TO.N,GND*%
X135520000Y-105200000D03*
%TD*%
D19*
%TO.P,R44,1*%
%TO.N,Net-(R43-Pad1)*%
X150390000Y-82710000D03*
%TO.P,R44,2*%
%TO.N,/GPIO22*%
X152390000Y-82710000D03*
%TD*%
D10*
%TO.P,C41,1*%
%TO.N,+3V3*%
X102420000Y-103600000D03*
%TO.P,C41,2*%
%TO.N,GND*%
X103380000Y-103600000D03*
%TD*%
%TO.P,C11,1*%
%TO.N,Net-(C11-Pad1)*%
X156680000Y-97770000D03*
%TO.P,C11,2*%
%TO.N,GND*%
X157640000Y-97770000D03*
%TD*%
D21*
%TO.P,R40,1*%
%TO.N,/ACT*%
X149770000Y-108080000D03*
%TO.P,R40,2*%
%TO.N,Net-(P1-PadL4)*%
X150790000Y-108080000D03*
%TD*%
D10*
%TO.P,C35,1*%
%TO.N,+1.2VA*%
X148300000Y-103740000D03*
%TO.P,C35,2*%
%TO.N,GND*%
X149260000Y-103740000D03*
%TD*%
D14*
%TO.P,C20,1*%
%TO.N,+3V3*%
X135090000Y-90010000D03*
%TO.P,C20,2*%
%TO.N,GND*%
X135090000Y-90970000D03*
%TD*%
D40*
%TO.P,U4,1,GPIO4*%
%TO.N,/VGA_R1*%
X129580000Y-88926500D03*
%TO.P,U4,2,GPIO5*%
%TO.N,/VGA_G0*%
X129980000Y-88926500D03*
%TO.P,U4,3,GPIO6*%
%TO.N,/VGA_G1*%
X130380000Y-88926500D03*
%TO.P,U4,4,GPIO7*%
%TO.N,/VGA_B0*%
X130780000Y-88926500D03*
%TO.P,U4,5,IOVDD*%
%TO.N,+3V3*%
X131180000Y-88926500D03*
%TO.P,U4,6,GPIO8*%
%TO.N,/VGA_B1*%
X131580000Y-88926500D03*
%TO.P,U4,7,GPIO9*%
%TO.N,/VGA_HSYNC*%
X131980000Y-88926500D03*
%TO.P,U4,8,GPIO10*%
%TO.N,/VGA_VSYNC*%
X132380000Y-88926500D03*
%TO.P,U4,9,GPIO11*%
%TO.N,/GPIO11*%
X132780000Y-88926500D03*
%TO.P,U4,10,DVDD*%
%TO.N,+1V1*%
X133180000Y-88926500D03*
%TO.P,U4,11,GPIO12*%
%TO.N,/SD_RX*%
X133580000Y-88926500D03*
%TO.P,U4,12,GPIO13*%
%TO.N,/SD_CSn*%
X133980000Y-88926500D03*
%TO.P,U4,13,GPIO14*%
%TO.N,/SD_SCK*%
X134380000Y-88926500D03*
%TO.P,U4,14,GPIO15*%
%TO.N,/SD_TX*%
X134780000Y-88926500D03*
%TO.P,U4,15,IOVDD*%
%TO.N,+3V3*%
X135180000Y-88926500D03*
%TO.P,U4,16,GPIO16*%
%TO.N,/ETH_RX*%
X135580000Y-88926500D03*
%TO.P,U4,17,GPIO17*%
%TO.N,/ETH_CSn*%
X135980000Y-88926500D03*
%TO.P,U4,18,GPIO18*%
%TO.N,/ETH_SCK*%
X136380000Y-88926500D03*
%TO.P,U4,19,GPIO19*%
%TO.N,/ETH_TX*%
X136780000Y-88926500D03*
%TO.P,U4,20,GPIO20*%
%TO.N,/ETH_RSTn*%
X137180000Y-88926500D03*
D41*
%TO.P,U4,21,GPIO21*%
%TO.N,/ETH_INTn*%
X138276500Y-87830000D03*
%TO.P,U4,22,GPIO22*%
%TO.N,/GPIO22*%
X138276500Y-87430000D03*
%TO.P,U4,23,GPIO23*%
%TO.N,/WIFI_BT_ON*%
X138276500Y-87030000D03*
%TO.P,U4,24,IOVDD*%
%TO.N,+3V3*%
X138276500Y-86630000D03*
%TO.P,U4,25,GPIO24*%
%TO.N,/gSPI_DI_DO*%
X138276500Y-86230000D03*
%TO.P,U4,26,GPIO25*%
%TO.N,/gSPI_CS*%
X138276500Y-85830000D03*
%TO.P,U4,27,GPIO26*%
%TO.N,/PS2_CLK*%
X138276500Y-85430000D03*
%TO.P,U4,28,GPIO27*%
%TO.N,/PS2_DAT*%
X138276500Y-85030000D03*
%TO.P,U4,29,IOVDD*%
%TO.N,+3V3*%
X138276500Y-84630000D03*
%TO.P,U4,30,XIN*%
%TO.N,/XIN*%
X138276500Y-84230000D03*
%TO.P,U4,31,XOUT*%
%TO.N,/XOUT*%
X138276500Y-83830000D03*
%TO.P,U4,32,DVDD*%
%TO.N,+1V1*%
X138276500Y-83430000D03*
%TO.P,U4,33,SWCLK*%
%TO.N,/SWCLK*%
X138276500Y-83030000D03*
%TO.P,U4,34,SWD*%
%TO.N,/SWD*%
X138276500Y-82630000D03*
%TO.P,U4,35,RUN*%
%TO.N,/RUN*%
X138276500Y-82230000D03*
%TO.P,U4,36,GPIO28*%
%TO.N,/GPIO28*%
X138276500Y-81830000D03*
%TO.P,U4,37,GPIO29*%
%TO.N,/gSPI_SCLK*%
X138276500Y-81430000D03*
%TO.P,U4,38,GPIO30*%
%TO.N,/GPIO30*%
X138276500Y-81030000D03*
%TO.P,U4,39,GPIO31*%
%TO.N,/GPIO31*%
X138276500Y-80630000D03*
%TO.P,U4,40,GPIO32*%
%TO.N,/GPIO32*%
X138276500Y-80230000D03*
D40*
%TO.P,U4,41,IOVDD*%
%TO.N,+3V3*%
X137180000Y-79133500D03*
%TO.P,U4,42,GPIO33*%
%TO.N,/GPIO33*%
X136780000Y-79133500D03*
%TO.P,U4,43,GPIO34*%
%TO.N,/GPIO34*%
X136380000Y-79133500D03*
%TO.P,U4,44,GPIO35*%
%TO.N,/GPIO35*%
X135980000Y-79133500D03*
%TO.P,U4,45,GPIO36*%
%TO.N,/GPIO36*%
X135580000Y-79133500D03*
%TO.P,U4,46,GPIO37*%
%TO.N,/GPIO37*%
X135180000Y-79133500D03*
%TO.P,U4,47,GPIO38*%
%TO.N,/GPIO38*%
X134780000Y-79133500D03*
%TO.P,U4,48,GPIO39*%
%TO.N,/GPIO39*%
X134380000Y-79133500D03*
%TO.P,U4,49,GPIO40_ADC0*%
%TO.N,/GPIO40_ADC0*%
X133980000Y-79133500D03*
%TO.P,U4,50,IOVDD*%
%TO.N,+3V3*%
X133580000Y-79133500D03*
%TO.P,U4,51,DVDD*%
%TO.N,+1V1*%
X133180000Y-79133500D03*
%TO.P,U4,52,GPIO41_ADC1*%
%TO.N,/GPIO41_ADC1*%
X132780000Y-79133500D03*
%TO.P,U4,53,GPIO42_ADC2*%
%TO.N,/GPIO42_ADC2*%
X132380000Y-79133500D03*
%TO.P,U4,54,GPIO43_ADC3*%
%TO.N,/GPIO43_ADC3*%
X131980000Y-79133500D03*
%TO.P,U4,55,GPIO44_ADC4*%
%TO.N,/GPIO44_ADC4*%
X131580000Y-79133500D03*
%TO.P,U4,56,GPIO45_ADC5*%
%TO.N,/GPIO45_ADC5*%
X131180000Y-79133500D03*
%TO.P,U4,57,GPIO46_ADC6*%
%TO.N,/GPIO46_ADC6*%
X130780000Y-79133500D03*
%TO.P,U4,58,GPIO47_ADC7*%
%TO.N,/GPIO47_ADC7*%
X130380000Y-79133500D03*
%TO.P,U4,59,ADC_AVDD*%
%TO.N,+3V3*%
X129980000Y-79133500D03*
%TO.P,U4,60,IOVDD*%
X129580000Y-79133500D03*
D41*
%TO.P,U4,61,VREG_AVDD*%
%TO.N,/VREG_AVDD*%
X128483500Y-80230000D03*
%TO.P,U4,62,VREG_PGND*%
%TO.N,GND*%
X128483500Y-80630000D03*
%TO.P,U4,63,VREG_LX*%
%TO.N,/VREG_LX*%
X128483500Y-81030000D03*
%TO.P,U4,64,VREG_VIN*%
%TO.N,+3V3*%
X128483500Y-81430000D03*
%TO.P,U4,65,VREG_FB*%
%TO.N,+1V1*%
X128483500Y-81830000D03*
%TO.P,U4,66,USB_DM*%
%TO.N,/UD-*%
X128483500Y-82230000D03*
%TO.P,U4,67,USB_DP*%
%TO.N,/UD+*%
X128483500Y-82630000D03*
%TO.P,U4,68,USB_OTP_VDD*%
%TO.N,+3V3*%
X128483500Y-83030000D03*
%TO.P,U4,69,QSPI_IOVDD*%
X128483500Y-83430000D03*
%TO.P,U4,70,QSPI_SD3*%
%TO.N,/QSPI_SD3*%
X128483500Y-83830000D03*
%TO.P,U4,71,QSPI_SCLK*%
%TO.N,/QSPI_SCLK*%
X128483500Y-84230000D03*
%TO.P,U4,72,QSPI_SD0*%
%TO.N,/QSPI_SD0*%
X128483500Y-84630000D03*
%TO.P,U4,73,QSPI_SD2*%
%TO.N,/QSPI_SD2*%
X128483500Y-85030000D03*
%TO.P,U4,74,QSPI_SD1*%
%TO.N,/QSPI_SD1*%
X128483500Y-85430000D03*
%TO.P,U4,75,QSPI_SS*%
%TO.N,/QSPI_SS*%
X128483500Y-85830000D03*
%TO.P,U4,76,IOVDD*%
%TO.N,+3V3*%
X128483500Y-86230000D03*
%TO.P,U4,77,GPIO0*%
%TO.N,/UART0_TX*%
X128483500Y-86630000D03*
%TO.P,U4,78,GPIO1*%
%TO.N,/UART0_RX*%
X128483500Y-87030000D03*
%TO.P,U4,79,GPIO2*%
%TO.N,/PSRAM_CS*%
X128483500Y-87430000D03*
%TO.P,U4,80,GPIO3*%
%TO.N,/VGA_R0*%
X128483500Y-87830000D03*
D42*
%TO.P,U4,81,GND*%
%TO.N,GND*%
X132246667Y-85163333D03*
D43*
X132246667Y-85163333D03*
D42*
X133380000Y-85163333D03*
D43*
X133380000Y-85163333D03*
D42*
X134513333Y-85163333D03*
D43*
X134513333Y-85163333D03*
D42*
X132246667Y-84030000D03*
D43*
X132246667Y-84030000D03*
D42*
X133380000Y-84030000D03*
D43*
X133380000Y-84030000D03*
D42*
X134513333Y-84030000D03*
D43*
X134513333Y-84030000D03*
D42*
X132246667Y-82896667D03*
D43*
X132246667Y-82896667D03*
D42*
X133380000Y-82896667D03*
D43*
X133380000Y-82896667D03*
D42*
X134513333Y-82896667D03*
D43*
X134513333Y-82896667D03*
%TD*%
D21*
%TO.P,R41,1*%
%TO.N,Net-(U5-RSET_BG)*%
X148640000Y-101150000D03*
%TO.P,R41,2*%
%TO.N,Net-(R41-Pad2)*%
X149660000Y-101150000D03*
%TD*%
D13*
%TO.P,C44,1*%
%TO.N,+1V1*%
X132880000Y-78010000D03*
%TO.P,C44,2*%
%TO.N,GND*%
X132880000Y-77050000D03*
%TD*%
D21*
%TO.P,R28,1*%
%TO.N,/ETH_TX-*%
X152190000Y-105000000D03*
%TO.P,R28,2*%
%TO.N,/ETX-*%
X153210000Y-105000000D03*
%TD*%
D44*
%TO.P,U1,1,GND*%
%TO.N,GND*%
X100000000Y-101650000D03*
%TO.P,U1,2,VO*%
%TO.N,+3V3*%
X102300000Y-101650000D03*
D45*
X102300000Y-95350000D03*
D44*
%TO.P,U1,3,VI*%
%TO.N,VBUS*%
X104600000Y-101650000D03*
%TD*%
D19*
%TO.P,R10,1*%
%TO.N,/VGA_G0*%
X154300000Y-70100000D03*
%TO.P,R10,2*%
%TO.N,Net-(R10-Pad2)*%
X156300000Y-70100000D03*
%TD*%
D10*
%TO.P,C31,1*%
%TO.N,+3V3*%
X112410000Y-69350000D03*
%TO.P,C31,2*%
%TO.N,GND*%
X113370000Y-69350000D03*
%TD*%
D46*
%TO.P,R21,1*%
%TO.N,Net-(U2-DO)*%
X107440000Y-83230000D03*
%TO.P,R21,2*%
%TO.N,/gSPI_DI_DO*%
X105440000Y-83230000D03*
%TD*%
D19*
%TO.P,R23,1*%
%TO.N,GND*%
X142630000Y-75010000D03*
%TO.P,R23,2*%
%TO.N,/PS2_DAT*%
X144630000Y-75010000D03*
%TD*%
D47*
%TO.P,U2,1,GND*%
%TO.N,GND*%
X99580000Y-80520000D03*
%TO.P,U2,2,NC*%
%TO.N,unconnected-(U2-NC-Pad2)*%
X101080000Y-80520000D03*
%TO.P,U2,3,SCLK*%
%TO.N,/gSPI_SCLK*%
X102580000Y-80520000D03*
%TO.P,U2,4,GND*%
%TO.N,GND*%
X104080000Y-80520000D03*
%TO.P,U2,5,DI*%
%TO.N,/gSPI_DI_DO*%
X105580000Y-80520000D03*
%TO.P,U2,6,DO*%
%TO.N,Net-(U2-DO)*%
X107080000Y-80520000D03*
%TO.P,U2,7,GND*%
%TO.N,GND*%
X108580000Y-80520000D03*
D48*
%TO.P,U2,8,GPIO0*%
%TO.N,unconnected-(U2-GPIO0-Pad8)*%
X109880000Y-78270000D03*
%TO.P,U2,9,CS*%
%TO.N,/gSPI_CS*%
X109880000Y-76770000D03*
%TO.P,U2,10,nIRQ*%
%TO.N,Net-(U2-nIRQ)*%
X109880000Y-75270000D03*
%TO.P,U2,11,GND*%
%TO.N,GND*%
X109880000Y-73770000D03*
%TO.P,U2,12,WL_ON*%
%TO.N,/WIFI_BT_ON*%
X109880000Y-72270000D03*
%TO.P,U2,13,BT_ON*%
X109880000Y-70770000D03*
%TO.P,U2,14,VDDIO*%
%TO.N,+3V3*%
X109880000Y-69270000D03*
D47*
%TO.P,U2,15,GND*%
%TO.N,GND*%
X108580000Y-67020000D03*
%TO.P,U2,16,VIN*%
%TO.N,+3V3*%
X107080000Y-67020000D03*
%TO.P,U2,17,GPIO2*%
%TO.N,unconnected-(U2-GPIO2-Pad17)*%
X105580000Y-67020000D03*
%TO.P,U2,18,GPIO1*%
%TO.N,unconnected-(U2-GPIO1-Pad18)*%
X104080000Y-67020000D03*
%TO.P,U2,19,NC*%
%TO.N,unconnected-(U2-NC-Pad19)*%
X102580000Y-67020000D03*
%TO.P,U2,20,NC*%
%TO.N,unconnected-(U2-NC-Pad20)*%
X101080000Y-67020000D03*
%TO.P,U2,21,GND*%
%TO.N,GND*%
X99580000Y-67020000D03*
%TD*%
D21*
%TO.P,R39,1*%
%TO.N,Net-(U5-XSCI)*%
X148010000Y-98710000D03*
%TO.P,R39,2*%
%TO.N,Net-(U5-XSCO)*%
X149030000Y-98710000D03*
%TD*%
D49*
%TO.P,S3,1*%
%TO.N,GND*%
X150910000Y-89905000D03*
%TO.P,S3,2*%
%TO.N,Net-(R43-Pad1)*%
X150910000Y-85755000D03*
%TD*%
D29*
%TO.P,R27,1*%
%TO.N,Net-(R27-Pad1)*%
X100600000Y-85720000D03*
%TO.P,R27,2*%
%TO.N,GND*%
X100600000Y-84700000D03*
%TD*%
D19*
%TO.P,R18,1*%
%TO.N,/PS2_CLK*%
X142620000Y-72910000D03*
%TO.P,R18,2*%
%TO.N,Net-(J4-Pad5)*%
X144620000Y-72910000D03*
%TD*%
%TO.P,R14,1*%
%TO.N,Net-(R13-Pad2)*%
X158900000Y-76300000D03*
%TO.P,R14,2*%
%TO.N,Net-(J2-Pad3)*%
X160900000Y-76300000D03*
%TD*%
D18*
%TO.P,C28,1*%
%TO.N,+3V3*%
X127380000Y-86890000D03*
%TO.P,C28,2*%
%TO.N,GND*%
X126420000Y-86890000D03*
%TD*%
D21*
%TO.P,R20,1*%
%TO.N,/USB_D-*%
X119590000Y-81430000D03*
%TO.P,R20,2*%
%TO.N,/UD-*%
X120610000Y-81430000D03*
%TD*%
D18*
%TO.P,C13,1*%
%TO.N,Net-(U5-XSCI)*%
X147990000Y-97550000D03*
%TO.P,C13,2*%
%TO.N,GND*%
X147030000Y-97550000D03*
%TD*%
D21*
%TO.P,R31,1*%
%TO.N,/ETH_RX+*%
X153590000Y-99100000D03*
%TO.P,R31,2*%
%TO.N,/ERX+*%
X154610000Y-99100000D03*
%TD*%
D19*
%TO.P,R6,1*%
%TO.N,/VGA_R0*%
X154300000Y-65900000D03*
%TO.P,R6,2*%
%TO.N,Net-(R6-Pad2)*%
X156300000Y-65900000D03*
%TD*%
D29*
%TO.P,R32,1*%
%TO.N,/XOUT*%
X141850000Y-82700000D03*
%TO.P,R32,2*%
%TO.N,Net-(C9-Pad1)*%
X141850000Y-81680000D03*
%TD*%
D50*
%TO.P,R42,1*%
%TO.N,Net-(R41-Pad2)*%
X149650000Y-100170000D03*
%TO.P,R42,2*%
%TO.N,GND*%
X148630000Y-100170000D03*
%TD*%
D51*
%TO.P,C3,1*%
%TO.N,+3V3*%
X97620000Y-99982500D03*
%TO.P,C3,2*%
%TO.N,GND*%
X97620000Y-102057500D03*
%TD*%
D52*
%TO.P,P1,L1,L1*%
%TO.N,+3V3*%
X174269630Y-96974530D03*
%TO.P,P1,L2,L2*%
%TO.N,Net-(P1-PadL2)*%
X175789130Y-99516380D03*
%TO.P,P1,L3,L3*%
%TO.N,+3V3*%
X174269130Y-107086380D03*
%TO.P,P1,L4,L4*%
%TO.N,Net-(P1-PadL4)*%
X175789630Y-109624530D03*
%TO.P,P1,R1,TD+*%
%TO.N,/ETX-*%
X164541040Y-107745790D03*
%TO.P,P1,R2,TD-*%
%TO.N,/ETX+*%
X162001040Y-106475790D03*
%TO.P,P1,R3,CT*%
%TO.N,+3.3VA*%
X164541040Y-105205790D03*
%TO.P,P1,R4,R4*%
%TO.N,unconnected-(P1-PadR4)*%
X162001040Y-103935791D03*
%TO.P,P1,R5,R5*%
%TO.N,unconnected-(P1-PadR5)*%
X164541040Y-102665791D03*
%TO.P,P1,R6,R6*%
%TO.N,unconnected-(P1-PadR6)*%
X162001040Y-101395790D03*
%TO.P,P1,R7,RD+*%
%TO.N,/ERX+*%
X164541040Y-100125790D03*
%TO.P,P1,R8,RD-*%
%TO.N,/ERX-*%
X162001040Y-98855790D03*
D53*
%TO.P,P1,S1*%
%TO.N,N/C*%
X167841040Y-111175790D03*
%TO.P,P1,S2*%
X167841040Y-95425790D03*
%TD*%
D21*
%TO.P,R16,1*%
%TO.N,+3V3*%
X124470000Y-78230000D03*
%TO.P,R16,2*%
%TO.N,/VREG_AVDD*%
X125490000Y-78230000D03*
%TD*%
D19*
%TO.P,R19,1*%
%TO.N,/PS2_DAT*%
X146380000Y-75010000D03*
%TO.P,R19,2*%
%TO.N,Net-(J4-Pad1)*%
X148380000Y-75010000D03*
%TD*%
D15*
%TO.P,Y2,1,1*%
%TO.N,Net-(U5-XSCI)*%
X148640000Y-95790000D03*
%TO.P,Y2,2,2*%
%TO.N,GND*%
X150840000Y-95790000D03*
%TO.P,Y2,3,3*%
%TO.N,Net-(U5-XSCO)*%
X150840000Y-94090000D03*
%TO.P,Y2,4,4*%
%TO.N,GND*%
X148640000Y-94090000D03*
%TD*%
D19*
%TO.P,R11,1*%
%TO.N,Net-(R10-Pad2)*%
X158900000Y-72100000D03*
%TO.P,R11,2*%
%TO.N,Net-(J2-Pad2)*%
X160900000Y-72100000D03*
%TD*%
D13*
%TO.P,C9,1*%
%TO.N,Net-(C9-Pad1)*%
X143440000Y-80290000D03*
%TO.P,C9,2*%
%TO.N,GND*%
X143440000Y-79330000D03*
%TD*%
D20*
%TO.P,R3,1*%
%TO.N,/SD_TX*%
X126690000Y-98500000D03*
%TO.P,R3,2*%
%TO.N,+3V3*%
X126690000Y-96500000D03*
%TD*%
D54*
%TO.P,J1,A1,GND*%
%TO.N,GND*%
X104060000Y-105196000D03*
%TO.P,J1,A4,VBUS*%
%TO.N,VBUS*%
X104860000Y-105196000D03*
%TO.P,J1,A5,CC1*%
%TO.N,unconnected-(J1-CC1-PadA5)*%
X106160000Y-105196000D03*
%TO.P,J1,A6,D+*%
%TO.N,/USB_D+*%
X107160000Y-105196000D03*
%TO.P,J1,A7,D-*%
%TO.N,/USB_D-*%
X107660000Y-105196000D03*
%TO.P,J1,A8,SBU1*%
%TO.N,unconnected-(J1-SBU1-PadA8)*%
X108659500Y-105196000D03*
%TO.P,J1,A9,VBUS*%
%TO.N,VBUS*%
X109960000Y-105196000D03*
%TO.P,J1,A12,GND*%
%TO.N,GND*%
X110760000Y-105196000D03*
%TO.P,J1,B1,GND*%
X110460000Y-105196000D03*
%TO.P,J1,B4,VBUS*%
%TO.N,VBUS*%
X109660000Y-105196000D03*
%TO.P,J1,B5,CC2*%
%TO.N,unconnected-(J1-CC2-PadB5)*%
X109160000Y-105196000D03*
%TO.P,J1,B6,D+*%
%TO.N,unconnected-(J1-D+-PadB6)*%
X108160000Y-105196000D03*
%TO.P,J1,B7,D-*%
%TO.N,unconnected-(J1-D--PadB7)*%
X106660000Y-105196000D03*
%TO.P,J1,B8,SBU2*%
%TO.N,unconnected-(J1-SBU2-PadB8)*%
X105660000Y-105196000D03*
%TO.P,J1,B9,VBUS*%
%TO.N,VBUS*%
X105160000Y-105196000D03*
%TO.P,J1,B12,GND*%
%TO.N,GND*%
X104360000Y-105196000D03*
D55*
%TO.P,J1,S1,SHIELD*%
X103085000Y-105964000D03*
D56*
X103085000Y-110144000D03*
D55*
X111735000Y-105964000D03*
D56*
X111735000Y-110144000D03*
%TD*%
D29*
%TO.P,R29,1*%
%TO.N,+3V3*%
X147110000Y-109880000D03*
%TO.P,R29,2*%
%TO.N,/ETH_RSTn*%
X147110000Y-108860000D03*
%TD*%
D10*
%TO.P,C14,1*%
%TO.N,Net-(U5-XSCO)*%
X149170000Y-97580000D03*
%TO.P,C14,2*%
%TO.N,GND*%
X150130000Y-97580000D03*
%TD*%
D20*
%TO.P,R1,1*%
%TO.N,Net-(J3-DAT1)*%
X120840000Y-98500000D03*
%TO.P,R1,2*%
%TO.N,+3V3*%
X120840000Y-96500000D03*
%TD*%
D10*
%TO.P,C5,1*%
%TO.N,/VREG_AVDD*%
X126400000Y-78230000D03*
%TO.P,C5,2*%
%TO.N,GND*%
X127360000Y-78230000D03*
%TD*%
D13*
%TO.P,C23,1*%
%TO.N,+3V3*%
X128979000Y-77710000D03*
%TO.P,C23,2*%
%TO.N,GND*%
X128979000Y-76750000D03*
%TD*%
%TO.P,C22,1*%
%TO.N,+3V3*%
X133880000Y-78010000D03*
%TO.P,C22,2*%
%TO.N,GND*%
X133880000Y-77050000D03*
%TD*%
D34*
%TO.P,C7,1*%
%TO.N,+1V1*%
X126180000Y-81415000D03*
%TO.P,C7,2*%
%TO.N,GND*%
X126180000Y-80385000D03*
%TD*%
D19*
%TO.P,R15,1*%
%TO.N,/VGA_B1*%
X154300000Y-76300000D03*
%TO.P,R15,2*%
%TO.N,Net-(R13-Pad2)*%
X156300000Y-76300000D03*
%TD*%
D21*
%TO.P,R35,1*%
%TO.N,/ERX+*%
X154590000Y-97800000D03*
%TO.P,R35,2*%
%TO.N,Net-(C11-Pad1)*%
X155610000Y-97800000D03*
%TD*%
D57*
%TO.P,J3,1,DAT2*%
%TO.N,Net-(J3-DAT2)*%
X128465000Y-111940000D03*
%TO.P,J3,2,DAT3/CD*%
%TO.N,/SD_CSn*%
X127365000Y-111940000D03*
%TO.P,J3,3,CMD*%
%TO.N,/SD_TX*%
X126265000Y-111940000D03*
%TO.P,J3,4,VDD*%
%TO.N,+3V3*%
X125165000Y-111940000D03*
%TO.P,J3,5,CLK*%
%TO.N,/SD_SCK*%
X124065000Y-111940000D03*
%TO.P,J3,6,VSS*%
%TO.N,GND*%
X122965000Y-111940000D03*
%TO.P,J3,7,DAT0*%
%TO.N,/SD_RX*%
X121865000Y-111940000D03*
D58*
%TO.P,J3,8,DAT1*%
%TO.N,Net-(J3-DAT1)*%
X120815000Y-111940000D03*
D59*
%TO.P,J3,9,SHIELD*%
%TO.N,GND*%
X131100000Y-105790000D03*
%TO.P,J3,10*%
%TO.N,N/C*%
X131100000Y-102090000D03*
D60*
%TO.P,J3,11*%
X130925000Y-111815000D03*
D61*
X127600000Y-101115000D03*
X121630000Y-101115000D03*
D62*
X119605000Y-111590000D03*
%TD*%
D20*
%TO.P,R2,1*%
%TO.N,/SD_RX*%
X122780000Y-98500000D03*
%TO.P,R2,2*%
%TO.N,+3V3*%
X122780000Y-96500000D03*
%TD*%
D10*
%TO.P,C30,1*%
%TO.N,+3V3*%
X139400000Y-84630000D03*
%TO.P,C30,2*%
%TO.N,GND*%
X140360000Y-84630000D03*
%TD*%
%TO.P,C40,1*%
%TO.N,+1.2VD*%
X136980000Y-108540000D03*
%TO.P,C40,2*%
%TO.N,GND*%
X137940000Y-108540000D03*
%TD*%
D18*
%TO.P,C33,1*%
%TO.N,+3V3*%
X126390000Y-83290000D03*
%TO.P,C33,2*%
%TO.N,GND*%
X125430000Y-83290000D03*
%TD*%
D20*
%TO.P,R4,1*%
%TO.N,/SD_CSn*%
X128650000Y-98500000D03*
%TO.P,R4,2*%
%TO.N,+3V3*%
X128650000Y-96500000D03*
%TD*%
D31*
%TO.P,C1,1*%
%TO.N,+3V3*%
X124740000Y-98537500D03*
%TO.P,C1,2*%
%TO.N,GND*%
X124740000Y-96462500D03*
%TD*%
D13*
%TO.P,C37,1*%
%TO.N,+1.2VD*%
X140700000Y-96580000D03*
%TO.P,C37,2*%
%TO.N,GND*%
X140700000Y-95620000D03*
%TD*%
D18*
%TO.P,C38,1*%
%TO.N,+1.2VD*%
X136480000Y-102800000D03*
%TO.P,C38,2*%
%TO.N,GND*%
X135520000Y-102800000D03*
%TD*%
D31*
%TO.P,C34,1*%
%TO.N,/GPIO22*%
X152240000Y-80827500D03*
%TO.P,C34,2*%
%TO.N,GND*%
X152240000Y-78752500D03*
%TD*%
D63*
%TO.P,C4,1*%
%TO.N,+3V3*%
X100937500Y-104000000D03*
%TO.P,C4,2*%
%TO.N,GND*%
X98862500Y-104000000D03*
%TD*%
D64*
%TO.P,L2,1,1*%
%TO.N,+3V3*%
X141892500Y-94080000D03*
%TO.P,L2,2,2*%
%TO.N,+3.3VA*%
X143467500Y-94080000D03*
%TD*%
D14*
%TO.P,C19,1*%
%TO.N,+3V3*%
X131180000Y-90050000D03*
%TO.P,C19,2*%
%TO.N,GND*%
X131180000Y-91010000D03*
%TD*%
D13*
%TO.P,C25,1*%
%TO.N,+3V3*%
X129979000Y-77710000D03*
%TO.P,C25,2*%
%TO.N,GND*%
X129979000Y-76750000D03*
%TD*%
D21*
%TO.P,R36,1*%
%TO.N,/ETX+*%
X153210000Y-103040000D03*
%TO.P,R36,2*%
%TO.N,Net-(C12-Pad1)*%
X154230000Y-103040000D03*
%TD*%
D65*
%TO.N,GND*%
X100883333Y-105200000D03*
X136994793Y-101256207D03*
X155480000Y-90150000D03*
X128320000Y-76750000D03*
X129990000Y-105770000D03*
X131070000Y-106700000D03*
X124630000Y-83360000D03*
X150910000Y-88540000D03*
X106900000Y-98080000D03*
X108160000Y-100230000D03*
X140970000Y-86640000D03*
X137810000Y-77060000D03*
X99580000Y-65490000D03*
X142340000Y-85450000D03*
X126880000Y-79660000D03*
X108450000Y-65660000D03*
X100270000Y-83810000D03*
X139990000Y-99610000D03*
X133170000Y-91600000D03*
X142876541Y-78526541D03*
X134930000Y-105170000D03*
X95980000Y-104950000D03*
X101496667Y-105200000D03*
X129500000Y-76339000D03*
X102110000Y-105200000D03*
X111690000Y-74270000D03*
X124720000Y-95250000D03*
X145200000Y-95140000D03*
X144415489Y-95215489D03*
X126423244Y-87400000D03*
X99160000Y-92580000D03*
X143080000Y-99650000D03*
X157230000Y-103000000D03*
X144320000Y-81930000D03*
X98331250Y-102768750D03*
X140801475Y-85181475D03*
X141290000Y-75130000D03*
X149630000Y-102080000D03*
X140946181Y-82216181D03*
X146900000Y-83740000D03*
X152140000Y-95800000D03*
X115860000Y-90440000D03*
X127360000Y-77420000D03*
X149950000Y-103730000D03*
X147863048Y-102246166D03*
X98862500Y-102787500D03*
X140700000Y-94930000D03*
X132880000Y-77050000D03*
X131090000Y-104860000D03*
X110850000Y-103990000D03*
X122720000Y-83729000D03*
X132220000Y-105800000D03*
X138980000Y-109180000D03*
X153610000Y-78750000D03*
X130290000Y-91190000D03*
X99736250Y-104873750D03*
X124700000Y-83940000D03*
X136480000Y-99660000D03*
X109070000Y-82170000D03*
X113340000Y-68600000D03*
X136910000Y-100150000D03*
X137500000Y-72920000D03*
X99400000Y-78920000D03*
X150880000Y-97580000D03*
X157650000Y-97010000D03*
X103397000Y-104533000D03*
X155260000Y-105440000D03*
X143830000Y-105330737D03*
X159150000Y-90320000D03*
X147330000Y-94110000D03*
X147660000Y-105460000D03*
X123000000Y-110500000D03*
X147840000Y-100750000D03*
X104090000Y-78830000D03*
X102770000Y-104540000D03*
X126340000Y-79650000D03*
X136570000Y-100720000D03*
X138740000Y-108310000D03*
X110230000Y-103880000D03*
X135090000Y-91580000D03*
X134300000Y-77050000D03*
X100270000Y-105200000D03*
X139610000Y-94960000D03*
X134810000Y-102780000D03*
X146260000Y-97560000D03*
%TO.N,+3V3*%
X129450000Y-85490000D03*
X102300000Y-98214000D03*
X129890000Y-80010000D03*
X122780000Y-95320000D03*
X123914106Y-89695894D03*
X128670000Y-95290000D03*
X138580000Y-95490000D03*
X107080000Y-68630000D03*
X120850000Y-95280000D03*
X129323500Y-81028197D03*
X147110000Y-110750000D03*
X134301000Y-77800002D03*
X137380000Y-84220000D03*
X130560000Y-90040000D03*
X102300000Y-100290000D03*
X98270000Y-105860000D03*
X102300000Y-96830000D03*
X102300000Y-99598000D03*
X126730000Y-95220000D03*
X102280000Y-101670000D03*
X124740000Y-99610000D03*
X135190000Y-88110000D03*
X136500000Y-105990000D03*
X148630000Y-78810000D03*
X137244767Y-86904767D03*
X112430000Y-69970000D03*
X126390000Y-83372980D03*
X102300000Y-98906000D03*
X100937500Y-104000000D03*
X131910000Y-96480000D03*
X129979000Y-77710000D03*
X102300000Y-97522000D03*
X137840000Y-78010000D03*
X123690000Y-78220000D03*
X142530000Y-92980000D03*
X115190000Y-88630000D03*
X125150000Y-110590000D03*
X129440000Y-83550000D03*
%TO.N,VBUS*%
X104840000Y-99790000D03*
%TO.N,+1V1*%
X135670000Y-82990000D03*
X124500000Y-81500000D03*
X125390000Y-81500000D03*
X132410000Y-90430000D03*
X131204767Y-82485233D03*
X132292504Y-81822970D03*
X139920000Y-82960000D03*
X132130000Y-86200000D03*
X132880000Y-78010000D03*
%TO.N,+3.3VA*%
X145180000Y-100709063D03*
X144090000Y-99650000D03*
X144110000Y-96830000D03*
X157140000Y-106480000D03*
X145181849Y-102773895D03*
%TO.N,Net-(C11-Pad1)*%
X156360000Y-98580000D03*
X156350000Y-101260000D03*
%TO.N,Net-(C12-Pad1)*%
X154755540Y-103655000D03*
X154239637Y-105440315D03*
%TO.N,+1.2VA*%
X144620228Y-103285935D03*
X144560000Y-108460000D03*
%TO.N,+1.2VO*%
X143300000Y-109960000D03*
X141410000Y-111690000D03*
X143782360Y-100387640D03*
%TO.N,+1.2VD*%
X142340000Y-105310000D03*
X141770000Y-108160000D03*
X145740000Y-98170000D03*
X139820000Y-102750000D03*
X146109016Y-96815146D03*
X141460000Y-96750000D03*
X137450000Y-107750000D03*
%TO.N,/USB_D-*%
X107810000Y-103410000D03*
X111380000Y-103150000D03*
%TO.N,/USB_D+*%
X112160000Y-103150000D03*
X107030000Y-103410000D03*
%TO.N,/VGA_HSYNC*%
X133359677Y-86929677D03*
%TO.N,/VGA_VSYNC*%
X136030000Y-87810000D03*
%TO.N,/SD_TX*%
X134330000Y-88031065D03*
X126750000Y-97710000D03*
%TO.N,/SD_RX*%
X122820000Y-97710000D03*
X133580000Y-88050000D03*
%TO.N,/SD_SCK*%
X128300000Y-108420000D03*
X124160000Y-110480000D03*
%TO.N,/SWCLK*%
X136389849Y-95249849D03*
%TO.N,/SWD*%
X136130000Y-96670000D03*
%TO.N,/UART0_RX*%
X129370648Y-87160000D03*
%TO.N,/UART0_TX*%
X129817000Y-86345085D03*
%TO.N,/VGA_R0*%
X133451017Y-80130549D03*
X152140000Y-69060000D03*
%TO.N,/VGA_R1*%
X134755323Y-80790000D03*
X152225000Y-69975000D03*
%TO.N,/VGA_G0*%
X149875000Y-76145000D03*
X133520000Y-81320000D03*
%TO.N,/VGA_G1*%
X135292391Y-81910000D03*
X150705000Y-76125000D03*
%TO.N,/VGA_B0*%
X135878062Y-86270000D03*
X151990000Y-77170000D03*
%TO.N,/VGA_B1*%
X134380000Y-86749000D03*
X152775233Y-77604767D03*
%TO.N,/gSPI_DI_DO*%
X135529999Y-84749533D03*
X117500000Y-79460000D03*
%TO.N,/~{USB_BOOT}*%
X118100000Y-91630000D03*
X108070000Y-91630000D03*
%TO.N,/ETH_RSTn*%
X142474020Y-102845980D03*
X138793909Y-90213909D03*
%TO.N,/RUN*%
X107270000Y-88740000D03*
X136660000Y-97350000D03*
%TO.N,/gSPI_SCLK*%
X104250000Y-75570000D03*
X140550000Y-79640000D03*
%TO.N,/WIFI_BT_ON*%
X115290000Y-76770000D03*
X135530001Y-85499535D03*
%TO.N,/gSPI_CS*%
X112300000Y-76210000D03*
X135640000Y-83940000D03*
%TO.N,/QSPI_SCLK*%
X124580000Y-85281000D03*
X120910000Y-86110000D03*
%TO.N,/QSPI_SD3*%
X118870000Y-87330000D03*
X124138002Y-84436650D03*
%TO.N,/GPIO40_ADC0*%
X135860000Y-74470000D03*
X136541915Y-80020843D03*
%TO.N,/GPIO43_ADC3*%
X119300000Y-66783387D03*
%TO.N,/GPIO45_ADC5*%
X119300000Y-68350000D03*
%TO.N,/GPIO28*%
X159170000Y-79150000D03*
X137379000Y-83370000D03*
%TO.N,/ETH_CSn*%
X136660000Y-91110000D03*
X136610000Y-93043120D03*
%TO.N,/GPIO39*%
X122560000Y-68360000D03*
%TO.N,/GPIO31*%
X139650000Y-78820000D03*
%TO.N,/ETH_INTn*%
X141669122Y-102860460D03*
X139579659Y-89630000D03*
%TO.N,/GPIO44_ADC4*%
X119300000Y-67566694D03*
%TO.N,/GPIO30*%
X140550000Y-78830000D03*
%TO.N,/ETH_SCK*%
X136650000Y-90090000D03*
X135861000Y-93492674D03*
%TO.N,/GPIO37*%
X122560000Y-66803649D03*
%TO.N,/GPIO38*%
X122560000Y-67581825D03*
%TO.N,/GPIO22*%
X153870000Y-80820000D03*
X142930000Y-87470000D03*
%TO.N,/GPIO36*%
X122560000Y-66025474D03*
%TO.N,/GPIO32*%
X139119000Y-79616000D03*
%TO.N,/GPIO11*%
X155440000Y-80641000D03*
X131870000Y-92550000D03*
%TO.N,/GPIO42_ADC2*%
X119300000Y-66000081D03*
%TO.N,/GPIO41_ADC1*%
X121075233Y-70634767D03*
%TD*%
D66*
%TO.N,GND*%
X148420000Y-100170000D02*
X147840000Y-100750000D01*
X145535349Y-83705608D02*
X146865608Y-83705608D01*
D67*
X138207500Y-100720000D02*
X138237500Y-100750000D01*
D66*
X131100000Y-106670000D02*
X131070000Y-106700000D01*
X130470000Y-91010000D02*
X130290000Y-91190000D01*
X104080000Y-78840000D02*
X104090000Y-78830000D01*
X115850000Y-89630000D02*
X115860000Y-89640000D01*
X133180000Y-91010000D02*
X133180000Y-91590000D01*
X156410000Y-103020000D02*
X157210000Y-103020000D01*
X100600000Y-84700000D02*
X100600000Y-84140000D01*
X138870000Y-72910000D02*
X137510000Y-72910000D01*
X122965000Y-111940000D02*
X122965000Y-110535000D01*
X111190000Y-73770000D02*
X111690000Y-74270000D01*
D68*
X108160000Y-100230000D02*
X107520000Y-100230000D01*
D66*
X110850000Y-103990000D02*
X110850000Y-104310000D01*
D67*
X143650000Y-99080000D02*
X143080000Y-99650000D01*
D66*
X149260000Y-103740000D02*
X149940000Y-103740000D01*
X135090000Y-90970000D02*
X135090000Y-91580000D01*
X100675000Y-91630000D02*
X100110000Y-91630000D01*
X99580000Y-65490000D02*
X99580000Y-67020000D01*
D67*
X144150000Y-105450000D02*
X144150000Y-106662500D01*
X147450000Y-105250000D02*
X147660000Y-105460000D01*
D66*
X124700000Y-83290000D02*
X124630000Y-83360000D01*
D69*
X103404000Y-104540000D02*
X102770000Y-104540000D01*
D66*
X140360000Y-84630000D02*
X140360000Y-84740000D01*
D70*
X95100000Y-105862500D02*
X95100000Y-105830000D01*
D67*
X147859214Y-102250000D02*
X147863048Y-102246166D01*
D66*
X153607500Y-78752500D02*
X153610000Y-78750000D01*
X141410000Y-75010000D02*
X141290000Y-75130000D01*
X109880000Y-73770000D02*
X111190000Y-73770000D01*
X145200000Y-95860000D02*
X145210000Y-95870000D01*
X108580000Y-66320000D02*
X108580000Y-67020000D01*
X127360000Y-77420000D02*
X127360000Y-78230000D01*
D71*
X101530000Y-105200000D02*
X100910000Y-105200000D01*
D66*
X140960000Y-86630000D02*
X140970000Y-86640000D01*
X142630000Y-75010000D02*
X141410000Y-75010000D01*
X140880000Y-82960000D02*
X140880000Y-82282362D01*
X113370000Y-68630000D02*
X113340000Y-68600000D01*
X131180000Y-91010000D02*
X130470000Y-91010000D01*
X143654393Y-82005608D02*
X143335349Y-82005608D01*
X152240000Y-78752500D02*
X153607500Y-78752500D01*
D67*
X136570000Y-100720000D02*
X138207500Y-100720000D01*
D66*
X134960000Y-105200000D02*
X134930000Y-105170000D01*
X141830000Y-85420000D02*
X142310000Y-85420000D01*
X139010000Y-109150000D02*
X138980000Y-109180000D01*
X147350000Y-94090000D02*
X147330000Y-94110000D01*
X137310000Y-77050000D02*
X137800000Y-77050000D01*
X115860000Y-89640000D02*
X115860000Y-90440000D01*
X100110000Y-91630000D02*
X99160000Y-92580000D01*
X140700000Y-95620000D02*
X140700000Y-94930000D01*
D70*
X150910000Y-89865000D02*
X150910000Y-88540000D01*
D71*
X98862500Y-102787500D02*
X98995000Y-102655000D01*
D66*
X126423244Y-87400000D02*
X126420000Y-87396756D01*
X110230000Y-104127459D02*
X110460000Y-104357459D01*
X143440000Y-79090000D02*
X142876541Y-78526541D01*
X144320000Y-81930000D02*
X143730001Y-81930000D01*
X113370000Y-69350000D02*
X113370000Y-68630000D01*
X125430000Y-83290000D02*
X124700000Y-83290000D01*
D71*
X100002500Y-105140000D02*
X99736250Y-104873750D01*
D66*
X110850000Y-104310000D02*
X110760000Y-104400000D01*
X137510000Y-72910000D02*
X137500000Y-72920000D01*
D69*
X104060000Y-105196000D02*
X103404000Y-104540000D01*
D66*
X149940000Y-103740000D02*
X149950000Y-103730000D01*
X139600000Y-95620000D02*
X139600000Y-94970000D01*
X110760000Y-104400000D02*
X110760000Y-105196000D01*
X102114000Y-105196000D02*
X102110000Y-105200000D01*
X150840000Y-95790000D02*
X152130000Y-95790000D01*
X134300000Y-77050000D02*
X133880000Y-77050000D01*
X99580000Y-79100000D02*
X99400000Y-78920000D01*
X137800000Y-77050000D02*
X137810000Y-77060000D01*
D67*
X144030737Y-105330737D02*
X144150000Y-105450000D01*
D71*
X102110000Y-105200000D02*
X101530000Y-105200000D01*
D66*
X138510000Y-108540000D02*
X137940000Y-108540000D01*
D68*
X107520000Y-100230000D02*
X106900000Y-99610000D01*
D67*
X136994793Y-101256207D02*
X137003793Y-101256207D01*
D66*
X135520000Y-105200000D02*
X134960000Y-105200000D01*
X157640000Y-97020000D02*
X157650000Y-97010000D01*
X124970000Y-84210000D02*
X125430000Y-84210000D01*
D71*
X98995000Y-102655000D02*
X99215000Y-102435000D01*
D67*
X136480000Y-99660000D02*
X136490000Y-99650000D01*
X143830000Y-105330737D02*
X144030737Y-105330737D01*
D66*
X106900000Y-98110000D02*
X106900000Y-98080000D01*
X122965000Y-110535000D02*
X123000000Y-110500000D01*
X103397000Y-104533000D02*
X103404000Y-104540000D01*
D70*
X95100000Y-105830000D02*
X95980000Y-104950000D01*
D67*
X137010000Y-100250000D02*
X136910000Y-100150000D01*
D66*
X147030000Y-97550000D02*
X146270000Y-97550000D01*
X99580000Y-80520000D02*
X99580000Y-79100000D01*
X157210000Y-103020000D02*
X157230000Y-103000000D01*
D71*
X100270000Y-105200000D02*
X100062500Y-105200000D01*
D66*
X150130000Y-97580000D02*
X150880000Y-97580000D01*
X132210000Y-105790000D02*
X132220000Y-105800000D01*
X142310000Y-85420000D02*
X142340000Y-85450000D01*
X108580000Y-80520000D02*
X108580000Y-81680000D01*
X124700000Y-83940000D02*
X124970000Y-84210000D01*
D67*
X139990000Y-99610000D02*
X140080000Y-99610000D01*
D66*
X104080000Y-80520000D02*
X104080000Y-78840000D01*
D70*
X159120000Y-88852500D02*
X159120000Y-90290000D01*
D66*
X129979000Y-76750000D02*
X129911000Y-76750000D01*
D71*
X98862500Y-104000000D02*
X98862500Y-102787500D01*
D66*
X143335349Y-82005608D02*
X143637349Y-82005608D01*
X137280000Y-77020000D02*
X137310000Y-77050000D01*
X144110000Y-95520978D02*
X144415489Y-95215489D01*
X143637349Y-82005608D02*
X145337349Y-83705608D01*
X108450000Y-66190000D02*
X108580000Y-66320000D01*
X128979000Y-76750000D02*
X128320000Y-76750000D01*
D70*
X98862500Y-104000000D02*
X98862500Y-103300000D01*
D67*
X143650000Y-98337500D02*
X143650000Y-99080000D01*
D66*
X146270000Y-97550000D02*
X146260000Y-97560000D01*
X108580000Y-81680000D02*
X109070000Y-82170000D01*
X140360000Y-84740000D02*
X140801475Y-85181475D01*
X143440000Y-79330000D02*
X143440000Y-79090000D01*
X122714599Y-84790000D02*
X122735493Y-84810894D01*
X140360000Y-86630000D02*
X140960000Y-86630000D01*
D67*
X146562500Y-100750000D02*
X147840000Y-100750000D01*
D66*
X157640000Y-97770000D02*
X157640000Y-97020000D01*
D71*
X99215000Y-102435000D02*
X100000000Y-101650000D01*
D66*
X131100000Y-105790000D02*
X131100000Y-104870000D01*
X139600000Y-94970000D02*
X139610000Y-94960000D01*
D71*
X99736250Y-104873750D02*
X98862500Y-104000000D01*
D66*
X124740000Y-95270000D02*
X124720000Y-95250000D01*
X148640000Y-94090000D02*
X147350000Y-94090000D01*
X131100000Y-105790000D02*
X132210000Y-105790000D01*
X134830000Y-102800000D02*
X134810000Y-102780000D01*
X126420000Y-87396756D02*
X126420000Y-86890000D01*
X138740000Y-108310000D02*
X138510000Y-108540000D01*
X140400000Y-109150000D02*
X139010000Y-109150000D01*
X145337349Y-83705608D02*
X145535349Y-83705608D01*
D71*
X98862500Y-103300000D02*
X98331250Y-102768750D01*
D67*
X137003793Y-101256207D02*
X137010000Y-101250000D01*
X138137500Y-99650000D02*
X138237500Y-99750000D01*
X138237500Y-100250000D02*
X137010000Y-100250000D01*
D70*
X155450000Y-90120000D02*
X155480000Y-90150000D01*
D71*
X100062500Y-105200000D02*
X100002500Y-105140000D01*
D66*
X129911000Y-76750000D02*
X129500000Y-76339000D01*
X140880000Y-82282362D02*
X140946181Y-82216181D01*
X143730001Y-81930000D02*
X143654393Y-82005608D01*
X146865608Y-83705608D02*
X146900000Y-83740000D01*
X135520000Y-102800000D02*
X134830000Y-102800000D01*
D67*
X146562500Y-102250000D02*
X147859214Y-102250000D01*
X136490000Y-99650000D02*
X138137500Y-99650000D01*
D66*
X122714599Y-83734401D02*
X122714599Y-84790000D01*
X131100000Y-105790000D02*
X130010000Y-105790000D01*
D67*
X140150000Y-99540000D02*
X140150000Y-98337500D01*
D70*
X159120000Y-90290000D02*
X159150000Y-90320000D01*
D67*
X137010000Y-101250000D02*
X138237500Y-101250000D01*
X140080000Y-99610000D02*
X140150000Y-99540000D01*
D66*
X144110000Y-95870000D02*
X144110000Y-95520978D01*
X124740000Y-96462500D02*
X124740000Y-95270000D01*
D70*
X155450000Y-88832500D02*
X155450000Y-90120000D01*
D66*
X122720000Y-83729000D02*
X122714599Y-83734401D01*
D71*
X100910000Y-105200000D02*
X100270000Y-105200000D01*
D68*
X106900000Y-99610000D02*
X106900000Y-99302500D01*
D66*
X103380000Y-104516000D02*
X103397000Y-104533000D01*
X130010000Y-105790000D02*
X129990000Y-105770000D01*
X152130000Y-95790000D02*
X152140000Y-95800000D01*
X110230000Y-103880000D02*
X110230000Y-104127459D01*
D68*
X106900000Y-99302500D02*
X106900000Y-98110000D01*
D66*
X100600000Y-84140000D02*
X100270000Y-83810000D01*
X145200000Y-95140000D02*
X145200000Y-95860000D01*
X108450000Y-65660000D02*
X108450000Y-66190000D01*
X148630000Y-100170000D02*
X148420000Y-100170000D01*
X103380000Y-103600000D02*
X103380000Y-104516000D01*
D69*
X102770000Y-104540000D02*
X102114000Y-105196000D01*
D66*
X110460000Y-104357459D02*
X110460000Y-105196000D01*
X108450000Y-65660000D02*
X108450000Y-64930000D01*
X131100000Y-104870000D02*
X131090000Y-104860000D01*
X131100000Y-105790000D02*
X131100000Y-106670000D01*
D67*
X146562500Y-105250000D02*
X147450000Y-105250000D01*
D71*
X98331250Y-102768750D02*
X97620000Y-102057500D01*
D66*
%TO.N,+3V3*%
X117485493Y-88620894D02*
X115959106Y-88620894D01*
D72*
X102300000Y-98330000D02*
X102300000Y-97650000D01*
D73*
X139650000Y-98337500D02*
X139650000Y-96630000D01*
D67*
X129580000Y-79133500D02*
X129580000Y-78210000D01*
X138276500Y-86630000D02*
X139400000Y-86630000D01*
D66*
X115910000Y-88670000D02*
X115850000Y-88670000D01*
X131180000Y-90050000D02*
X130570000Y-90050000D01*
D67*
X137519534Y-86630000D02*
X137244767Y-86904767D01*
X133580000Y-79133500D02*
X133580000Y-78310000D01*
X137180000Y-79133500D02*
X137180000Y-78640000D01*
X126650000Y-83030000D02*
X126390000Y-83290000D01*
D71*
X100937500Y-103012500D02*
X102280000Y-101670000D01*
D67*
X129440000Y-83550000D02*
X129414497Y-83524497D01*
X129450000Y-85490000D02*
X129323500Y-85616500D01*
X129580000Y-79133500D02*
X129580000Y-79700000D01*
D66*
X115959106Y-88620894D02*
X115910000Y-88670000D01*
D67*
X128921697Y-81430000D02*
X129323500Y-81028197D01*
X135180000Y-88926500D02*
X135180000Y-88120000D01*
X128483500Y-83030000D02*
X126650000Y-83030000D01*
D71*
X100937500Y-104000000D02*
X100937500Y-103012500D01*
D70*
X101337500Y-103600000D02*
X100937500Y-104000000D01*
D66*
X120840000Y-95290000D02*
X120850000Y-95280000D01*
X130610000Y-96500000D02*
X131890000Y-96500000D01*
D70*
X102420000Y-101770000D02*
X102300000Y-101650000D01*
D66*
X138850000Y-96580000D02*
X138580000Y-96310000D01*
X147110000Y-110750000D02*
X147110000Y-109880000D01*
D67*
X129323500Y-85814274D02*
X128907774Y-86230000D01*
D66*
X115810000Y-88630000D02*
X115850000Y-88670000D01*
D67*
X128960000Y-83430000D02*
X128483500Y-83430000D01*
D66*
X126390000Y-84210000D02*
X126390000Y-83290000D01*
X112410000Y-69350000D02*
X109960000Y-69350000D01*
X126390000Y-83290000D02*
X126390000Y-83372980D01*
D67*
X128483500Y-83430000D02*
X127280000Y-83430000D01*
D66*
X138580000Y-96310000D02*
X138580000Y-95490000D01*
D72*
X102300000Y-99060000D02*
X102300000Y-98330000D01*
D66*
X112410000Y-69950000D02*
X112430000Y-69970000D01*
D67*
X129080000Y-77710000D02*
X128979000Y-77710000D01*
D73*
X138237500Y-105250000D02*
X136530000Y-105250000D01*
D66*
X137280000Y-77980000D02*
X137310000Y-78010000D01*
X148630000Y-78810000D02*
X150070000Y-78810000D01*
X124740000Y-99610000D02*
X124740000Y-98537500D01*
X120840000Y-96500000D02*
X120840000Y-95290000D01*
D72*
X102300000Y-97650000D02*
X102300000Y-96970000D01*
D67*
X128907774Y-86230000D02*
X128483500Y-86230000D01*
D66*
X134301000Y-77800002D02*
X134091002Y-78010000D01*
X134091002Y-78010000D02*
X133880000Y-78010000D01*
X107080000Y-67020000D02*
X107080000Y-68630000D01*
X131890000Y-96500000D02*
X131910000Y-96480000D01*
D67*
X129979000Y-78409000D02*
X129979000Y-77710000D01*
D72*
X102300000Y-100430000D02*
X102300000Y-99820000D01*
D66*
X115190000Y-88630000D02*
X115810000Y-88630000D01*
D67*
X135180000Y-88926500D02*
X135180000Y-89900000D01*
X135180000Y-88120000D02*
X135190000Y-88110000D01*
X127280000Y-83430000D02*
X126500000Y-84210000D01*
D66*
X123914106Y-89695894D02*
X124820493Y-89695894D01*
D70*
X97030000Y-105850000D02*
X98260000Y-105850000D01*
D66*
X109960000Y-69350000D02*
X109880000Y-69270000D01*
D67*
X129323500Y-85616500D02*
X129323500Y-85814274D01*
X137572151Y-84630000D02*
X137380000Y-84437849D01*
D66*
X130570000Y-90050000D02*
X130560000Y-90040000D01*
D67*
X129580000Y-78210000D02*
X129080000Y-77710000D01*
X135090000Y-89990000D02*
X135090000Y-90010000D01*
X137180000Y-78640000D02*
X137280000Y-78540000D01*
X138276499Y-84630000D02*
X137572151Y-84630000D01*
X127380000Y-86770000D02*
X127380000Y-86890000D01*
X129414497Y-83524497D02*
X129054497Y-83524497D01*
D66*
X141892500Y-94080000D02*
X141892500Y-93617500D01*
D67*
X129980000Y-79133501D02*
X129980000Y-78410000D01*
D70*
X101852500Y-99982500D02*
X102300000Y-100430000D01*
D66*
X136480000Y-105970000D02*
X136500000Y-105990000D01*
D67*
X129580000Y-79700000D02*
X129890000Y-80010000D01*
D66*
X139600000Y-96580000D02*
X138850000Y-96580000D01*
X137310000Y-78010000D02*
X137840000Y-78010000D01*
X122780000Y-96500000D02*
X122780000Y-95320000D01*
D67*
X127200000Y-81430000D02*
X127180000Y-81410000D01*
X131180000Y-88926499D02*
X131180000Y-90050000D01*
D71*
X102420000Y-103600000D02*
X102420000Y-101770000D01*
X102280000Y-101670000D02*
X102300000Y-101650000D01*
D67*
X137380000Y-84437849D02*
X137380000Y-84220000D01*
D72*
X102300000Y-96970000D02*
X102300000Y-95350000D01*
D67*
X129980000Y-78410000D02*
X129979000Y-78409000D01*
D72*
X102300000Y-101650000D02*
X102300000Y-100430000D01*
D66*
X112410000Y-69350000D02*
X112410000Y-69950000D01*
D70*
X98260000Y-105850000D02*
X98270000Y-105860000D01*
D67*
X138276500Y-86630000D02*
X137519534Y-86630000D01*
D66*
X125165000Y-110605000D02*
X125150000Y-110590000D01*
X124470000Y-78230000D02*
X123700000Y-78230000D01*
X123700000Y-78230000D02*
X123690000Y-78220000D01*
X128650000Y-95310000D02*
X128670000Y-95290000D01*
X126690000Y-96500000D02*
X126690000Y-95260000D01*
X107080000Y-65340000D02*
X107490000Y-64930000D01*
D71*
X97620000Y-99982500D02*
X101852500Y-99982500D01*
D67*
X129054497Y-83524497D02*
X128960000Y-83430000D01*
D66*
X136480000Y-105200000D02*
X136480000Y-105970000D01*
X125165000Y-111940000D02*
X125165000Y-110605000D01*
X141892500Y-93617500D02*
X142530000Y-92980000D01*
D67*
X133580000Y-78310000D02*
X133880000Y-78010000D01*
D66*
X126690000Y-95260000D02*
X126730000Y-95220000D01*
X128650000Y-96500000D02*
X128650000Y-95310000D01*
D67*
X128483500Y-86230000D02*
X127920000Y-86230000D01*
X136530000Y-105250000D02*
X136480000Y-105200000D01*
D71*
X102420000Y-103600000D02*
X101337500Y-103600000D01*
D67*
X137280000Y-78540000D02*
X137280000Y-77980000D01*
X128483500Y-81430000D02*
X127200000Y-81430000D01*
X139650000Y-96630000D02*
X139600000Y-96580000D01*
D72*
X102300000Y-99820000D02*
X102300000Y-99060000D01*
D67*
X128483500Y-81430000D02*
X128921697Y-81430000D01*
X126500000Y-84210000D02*
X126390000Y-84210000D01*
D66*
X107080000Y-67020000D02*
X107080000Y-65340000D01*
D67*
X138276499Y-84630000D02*
X139400000Y-84630000D01*
X135180000Y-89900000D02*
X135090000Y-89990000D01*
X127920000Y-86230000D02*
X127380000Y-86770000D01*
D70*
%TO.N,VBUS*%
X105160000Y-105950896D02*
X105689104Y-106480000D01*
D72*
X104880000Y-101370000D02*
X106892500Y-101370000D01*
D68*
X105689104Y-106480000D02*
X109130896Y-106480000D01*
D70*
X105160000Y-105196000D02*
X105160000Y-105950896D01*
D72*
X106892500Y-101370000D02*
X106900000Y-101377500D01*
D66*
X106512500Y-101650000D02*
X106785000Y-101377500D01*
X104600000Y-101650000D02*
X104840000Y-101410000D01*
D70*
X109960000Y-105650896D02*
X109960000Y-105196000D01*
D66*
X105010000Y-102060000D02*
X104600000Y-101650000D01*
D72*
X104600000Y-101650000D02*
X104880000Y-101370000D01*
D71*
X105010000Y-105046000D02*
X105010000Y-102060000D01*
D66*
X106785000Y-101377500D02*
X106900000Y-101377500D01*
D72*
X104840000Y-99790000D02*
X104840000Y-101410000D01*
D70*
X109130896Y-106480000D02*
X109960000Y-105650896D01*
D74*
%TO.N,/VREG_AVDD*%
X126400000Y-78230000D02*
X125490000Y-78230000D01*
X126483500Y-78230000D02*
X126400000Y-78230000D01*
X128483500Y-80230000D02*
X126483500Y-78230000D01*
D67*
%TO.N,+1V1*%
X138954522Y-83329000D02*
X139411000Y-83329000D01*
X138850000Y-83430000D02*
X138853521Y-83430000D01*
X128483500Y-81830000D02*
X127727000Y-81830000D01*
X133180000Y-88926500D02*
X133180000Y-90050000D01*
D74*
X127727000Y-81830000D02*
X127676000Y-81881000D01*
D67*
X133180000Y-79133500D02*
X133180000Y-78310000D01*
X139411000Y-83329000D02*
X139780000Y-82960000D01*
D66*
X132790000Y-90050000D02*
X132410000Y-90430000D01*
D67*
X124585000Y-81415000D02*
X124500000Y-81500000D01*
X139780000Y-82960000D02*
X139920000Y-82960000D01*
D68*
X124680000Y-81510000D02*
X124585000Y-81415000D01*
D71*
X124710000Y-81540000D02*
X124670000Y-81500000D01*
D67*
X138276499Y-83430000D02*
X138850000Y-83430000D01*
D66*
X133180000Y-90050000D02*
X132790000Y-90050000D01*
D67*
X126646000Y-81881000D02*
X126180000Y-81415000D01*
D71*
X126015000Y-81500000D02*
X124750000Y-81500000D01*
D67*
X138853521Y-83430000D02*
X138954522Y-83329000D01*
D74*
X126180000Y-81415000D02*
X126095000Y-81500000D01*
D67*
X133180000Y-78310000D02*
X132880000Y-78010000D01*
D74*
X127676000Y-81881000D02*
X126646000Y-81881000D01*
X124670000Y-81500000D02*
X124585000Y-81415000D01*
%TO.N,/XIN*%
X141989000Y-83971000D02*
X142254392Y-83705608D01*
X138961446Y-84230000D02*
X139220446Y-83971000D01*
X142254392Y-83705608D02*
X143335349Y-83705608D01*
X141830000Y-84130000D02*
X141989000Y-83971000D01*
X139220446Y-83971000D02*
X141989000Y-83971000D01*
X141830000Y-84460000D02*
X141830000Y-84130000D01*
X138276500Y-84230000D02*
X138961446Y-84230000D01*
%TO.N,Net-(C9-Pad1)*%
X143440000Y-80290000D02*
X143440000Y-80570259D01*
X145535349Y-82005608D02*
X144390000Y-80860259D01*
X141850000Y-81570001D02*
X141850000Y-81680001D01*
X144390000Y-80860259D02*
X143150000Y-80860259D01*
X142559742Y-80860259D02*
X141850000Y-81570001D01*
X143440000Y-80570259D02*
X143150000Y-80860259D01*
X143150000Y-80860259D02*
X142559742Y-80860259D01*
D67*
%TO.N,+3.3VA*%
X144150000Y-96870000D02*
X144110000Y-96830000D01*
X145180000Y-101104999D02*
X145180000Y-100709063D01*
D70*
X143460000Y-94087500D02*
X143467500Y-94080000D01*
D67*
X146642500Y-101670000D02*
X148260000Y-101670000D01*
X145825001Y-101750000D02*
X145181849Y-102393152D01*
X144150000Y-99590000D02*
X144090000Y-99650000D01*
D68*
X157140000Y-106480000D02*
X156340000Y-105680000D01*
D67*
X145181849Y-102393152D02*
X145181849Y-102773895D01*
D74*
X146562500Y-101750000D02*
X146597334Y-101715166D01*
D70*
X143972864Y-96830000D02*
X143460000Y-96317136D01*
D73*
X144150000Y-98337500D02*
X144150000Y-96870000D01*
D67*
X146562500Y-101750000D02*
X145825001Y-101750000D01*
D70*
X144110000Y-96830000D02*
X143972864Y-96830000D01*
D67*
X148260000Y-101670000D02*
X148670000Y-102080000D01*
X144150000Y-98337500D02*
X144150000Y-99590000D01*
X156220000Y-105440000D02*
X156340000Y-105440000D01*
D68*
X156340000Y-105680000D02*
X156340000Y-105440000D01*
D70*
X143460000Y-96317136D02*
X143460000Y-94087500D01*
D67*
X145825001Y-101750000D02*
X145180000Y-101104999D01*
X146597334Y-101715166D02*
X146642500Y-101670000D01*
D74*
%TO.N,Net-(C11-Pad1)*%
X156310000Y-101300000D02*
X156350000Y-101260000D01*
X156360000Y-98580000D02*
X156360000Y-98550000D01*
X156360000Y-98550000D02*
X155610000Y-97800000D01*
X156360000Y-98580000D02*
X156360000Y-98090000D01*
X156360000Y-98090000D02*
X156680000Y-97770000D01*
X155610000Y-101300000D02*
X156310000Y-101300000D01*
%TO.N,Net-(C12-Pad1)*%
X155450000Y-103020000D02*
X155450000Y-103329999D01*
X155124999Y-103655000D02*
X154755540Y-103655000D01*
X154270000Y-105530000D02*
X153850000Y-105950000D01*
X154525001Y-103655000D02*
X154755540Y-103655000D01*
X155450000Y-103329999D02*
X155124999Y-103655000D01*
X154239637Y-105440315D02*
X154270000Y-105470678D01*
X154270000Y-105470678D02*
X154270000Y-105530000D01*
X154230000Y-103040000D02*
X154230000Y-103359999D01*
X154230000Y-103359999D02*
X154525001Y-103655000D01*
D67*
%TO.N,Net-(U5-XSCI)*%
X146562500Y-99750000D02*
X147126250Y-99186250D01*
X147602500Y-98710000D02*
X148010000Y-98710000D01*
X148010000Y-98710000D02*
X148010000Y-97570000D01*
X147126250Y-99186250D02*
X147602500Y-98710000D01*
X147990000Y-97550000D02*
X147990000Y-96440000D01*
X147990000Y-96440000D02*
X148640000Y-95790000D01*
%TO.N,Net-(U5-XSCO)*%
X149030000Y-98710000D02*
X149030000Y-97720000D01*
X149730000Y-94990000D02*
X150630000Y-94090000D01*
X147360000Y-100250000D02*
X148900000Y-98710000D01*
X149170000Y-97580000D02*
X149730000Y-97020000D01*
D74*
X148900000Y-98710000D02*
X149030000Y-98710000D01*
D67*
X150630000Y-94090000D02*
X150840000Y-94090000D01*
X149730000Y-97020000D02*
X149730000Y-94990000D01*
X146562500Y-100250000D02*
X147360000Y-100250000D01*
%TO.N,+1.2VA*%
X144693779Y-103356707D02*
X144872984Y-103356707D01*
X144620228Y-103285935D02*
X144623007Y-103285935D01*
D70*
X144872984Y-103356707D02*
X145266277Y-103750000D01*
X145266277Y-103750000D02*
X146562500Y-103750000D01*
D71*
X144560000Y-108752500D02*
X144220000Y-109092500D01*
D74*
X148290000Y-103750000D02*
X148300000Y-103740000D01*
D71*
X144560000Y-108460000D02*
X144560000Y-108752500D01*
D67*
X144623007Y-103285935D02*
X144693779Y-103356707D01*
D70*
X146562500Y-103750000D02*
X148290000Y-103750000D01*
D66*
%TO.N,+1.2VO*%
X141410000Y-111690000D02*
X141410000Y-111677500D01*
D67*
X142420000Y-110667500D02*
X142400000Y-110687500D01*
X142420000Y-110667500D02*
X142592500Y-110667500D01*
D73*
X144360000Y-100400000D02*
X144650000Y-100110000D01*
D66*
X142037500Y-111050000D02*
X142400000Y-110687500D01*
D67*
X140400000Y-111050000D02*
X140770000Y-111050000D01*
X143782360Y-100387640D02*
X143794720Y-100400000D01*
D66*
X144220000Y-110667500D02*
X143300000Y-110667500D01*
X140770000Y-111050000D02*
X141410000Y-111690000D01*
X143300000Y-110667500D02*
X142420000Y-110667500D01*
D73*
X144670000Y-100090000D02*
X144670000Y-98357500D01*
D66*
X140400000Y-111050000D02*
X142037500Y-111050000D01*
D73*
X144650000Y-100110000D02*
X144670000Y-100090000D01*
D66*
X144007500Y-110667500D02*
X143300000Y-109960000D01*
X142592500Y-110667500D02*
X143300000Y-109960000D01*
D73*
X144670000Y-98357500D02*
X144650000Y-98337500D01*
X143794720Y-100400000D02*
X144360000Y-100400000D01*
D67*
X144220000Y-110667500D02*
X144007500Y-110667500D01*
D66*
X141410000Y-111677500D02*
X142400000Y-110687500D01*
D70*
%TO.N,+1.2VD*%
X136980000Y-108220000D02*
X137450000Y-107750000D01*
D74*
X145150000Y-98337500D02*
X145572500Y-98337500D01*
D67*
X145224854Y-96815146D02*
X145210000Y-96830000D01*
D66*
X141460000Y-96750000D02*
X140870000Y-96750000D01*
D73*
X143650000Y-106662500D02*
X143650000Y-107862500D01*
D66*
X146109016Y-96815146D02*
X145224854Y-96815146D01*
D73*
X140660000Y-98327500D02*
X140660000Y-96640000D01*
D67*
X138237500Y-102750000D02*
X136530000Y-102750000D01*
X143034999Y-105322500D02*
X142352500Y-105322500D01*
D73*
X138237500Y-102750000D02*
X139820000Y-102750000D01*
D67*
X145150000Y-98337500D02*
X145150000Y-96890000D01*
X138247500Y-102760000D02*
X138237500Y-102750000D01*
D73*
X140650000Y-98337500D02*
X140660000Y-98327500D01*
D67*
X136530000Y-102750000D02*
X136480000Y-102800000D01*
X140650000Y-96630000D02*
X140700000Y-96580000D01*
X143637500Y-105925001D02*
X143034999Y-105322500D01*
D74*
X145572500Y-98337500D02*
X145740000Y-98170000D01*
D67*
X145150000Y-96890000D02*
X145210000Y-96830000D01*
X140870000Y-96750000D02*
X140700000Y-96580000D01*
D74*
X143650000Y-106662500D02*
X143650000Y-105925001D01*
D70*
X136980000Y-108540000D02*
X136980000Y-108220000D01*
D73*
X143650000Y-107862500D02*
X142400000Y-109112500D01*
X140660000Y-96640000D02*
X140650000Y-96630000D01*
D67*
X142400000Y-109112500D02*
X142400000Y-108790000D01*
D70*
X142400000Y-108790000D02*
X141770000Y-108160000D01*
D67*
X142352500Y-105322500D02*
X142340000Y-105310000D01*
D70*
%TO.N,Net-(D1-A)*%
X96992500Y-103812500D02*
X97030000Y-103850000D01*
X95100000Y-103812500D02*
X96992500Y-103812500D01*
D75*
%TO.N,/USB_D-*%
X119590000Y-81430000D02*
X119109999Y-81430000D01*
X119109999Y-81430000D02*
X118809999Y-81730000D01*
X107660000Y-104696000D02*
X107660000Y-105196000D01*
X113275440Y-81730000D02*
X109480000Y-85525440D01*
X109480000Y-85525440D02*
X109480000Y-100979117D01*
X111380000Y-102879117D02*
X111380000Y-103150000D01*
X107600000Y-104261311D02*
X107590000Y-104271311D01*
X107600000Y-103620000D02*
X107600000Y-104261311D01*
X109480000Y-100979117D02*
X111380000Y-102879117D01*
X107590000Y-104626000D02*
X107660000Y-104696000D01*
X107810000Y-103410000D02*
X107600000Y-103620000D01*
X118809999Y-81730000D02*
X113275440Y-81730000D01*
X107590000Y-104271311D02*
X107590000Y-104626000D01*
%TO.N,/USB_D+*%
X107230000Y-104626000D02*
X107160000Y-104696000D01*
X119590000Y-82390000D02*
X119109999Y-82390000D01*
X119109999Y-82390000D02*
X118809999Y-82090000D01*
X109840000Y-85674560D02*
X109840000Y-100830000D01*
X107240000Y-103620000D02*
X107240000Y-104123546D01*
X107030000Y-103410000D02*
X107240000Y-103620000D01*
X107240000Y-104123546D02*
X107230000Y-104133546D01*
X109840000Y-100830000D02*
X112160000Y-103150000D01*
X118809999Y-82090000D02*
X113424560Y-82090000D01*
X107230000Y-104133546D02*
X107230000Y-104626000D01*
X107160000Y-104696000D02*
X107160000Y-105196000D01*
X113424560Y-82090000D02*
X109840000Y-85674560D01*
D66*
%TO.N,Net-(J2-Pad1)*%
X160900000Y-67900000D02*
X163234669Y-67900000D01*
X163234669Y-67900000D02*
X165214669Y-69880000D01*
%TO.N,Net-(J2-Pad3)*%
X163374669Y-76300000D02*
X165214669Y-74460000D01*
X160900000Y-76300000D02*
X163374669Y-76300000D01*
D74*
%TO.N,/VGA_HSYNC*%
X133059640Y-86920000D02*
X131980000Y-87999640D01*
X133359677Y-86929677D02*
X133350000Y-86920000D01*
X131980000Y-87999640D02*
X131980000Y-88926500D01*
X133350000Y-86920000D02*
X133059640Y-86920000D01*
%TO.N,/VGA_VSYNC*%
X133377987Y-87501065D02*
X132380000Y-88499052D01*
X132380000Y-88499052D02*
X132380000Y-88926500D01*
X136030000Y-87810000D02*
X135721065Y-87501065D01*
X135721065Y-87501065D02*
X133377987Y-87501065D01*
D66*
%TO.N,Net-(J2-Pad2)*%
X160900000Y-72100000D02*
X165144669Y-72100000D01*
D74*
X165144669Y-72100000D02*
X165214669Y-72170000D01*
D67*
%TO.N,/SD_TX*%
X134330000Y-88031065D02*
X134442225Y-88143290D01*
X126750000Y-97710000D02*
X126750000Y-98440000D01*
X126750000Y-98440000D02*
X126690000Y-98500000D01*
X134442225Y-88143290D02*
X134444058Y-88143290D01*
X134780000Y-88479232D02*
X134780000Y-88926500D01*
X126265000Y-111940000D02*
X126265000Y-98925000D01*
X134444058Y-88143290D02*
X134780000Y-88479232D01*
D74*
X126265000Y-98925000D02*
X126690000Y-98500000D01*
D67*
%TO.N,/SD_CSn*%
X129620000Y-95950000D02*
X129620000Y-97180000D01*
X128650000Y-98150000D02*
X128650000Y-98500000D01*
X127365000Y-103437000D02*
X128950000Y-101852000D01*
D74*
X128950000Y-98800000D02*
X128650000Y-98500000D01*
D67*
X133980000Y-91590000D02*
X129620000Y-95950000D01*
X128950000Y-101852000D02*
X128950000Y-98800000D01*
X133980000Y-88926500D02*
X133980000Y-91590000D01*
X129620000Y-97180000D02*
X128650000Y-98150000D01*
X127365000Y-111940000D02*
X127365000Y-103437000D01*
%TO.N,Net-(J3-DAT2)*%
X128465000Y-111940000D02*
X128465000Y-110145000D01*
X128465000Y-110145000D02*
X129459000Y-109151000D01*
X129459000Y-109151000D02*
X129459000Y-105550052D01*
X130610000Y-100080000D02*
X130610000Y-98500000D01*
X130130000Y-104710000D02*
X130130000Y-100560000D01*
X129459000Y-105381000D02*
X130130000Y-104710000D01*
X130130000Y-100560000D02*
X130610000Y-100080000D01*
X129459000Y-105550052D02*
X129459000Y-105381000D01*
%TO.N,/SD_RX*%
X122820000Y-97710000D02*
X122820000Y-98460000D01*
D74*
X123030000Y-98750000D02*
X122780000Y-98500000D01*
D67*
X123030000Y-108889000D02*
X123030000Y-98750000D01*
X133580000Y-88050000D02*
X133580000Y-88926500D01*
X121865000Y-111940000D02*
X121865000Y-110054000D01*
X122820000Y-98460000D02*
X122780000Y-98500000D01*
X121865000Y-110054000D02*
X123030000Y-108889000D01*
%TO.N,Net-(J3-DAT1)*%
X120850000Y-111905000D02*
X120850000Y-110110000D01*
D74*
X120815000Y-111940000D02*
X120850000Y-111905000D01*
D67*
X120160000Y-109420000D02*
X120160000Y-99180000D01*
X120850000Y-110110000D02*
X120160000Y-109420000D01*
X120160000Y-99180000D02*
X120840000Y-98500000D01*
%TO.N,/SD_SCK*%
X134380000Y-91700000D02*
X134380000Y-88926500D01*
X129630000Y-97840000D02*
X129960000Y-97510000D01*
X124160000Y-111845000D02*
X124065000Y-111940000D01*
X131700000Y-97510000D02*
X132510000Y-96700000D01*
X128300000Y-106030000D02*
X129630000Y-104700000D01*
X132510000Y-96700000D02*
X132510000Y-93570000D01*
X129630000Y-104700000D02*
X129630000Y-97840000D01*
X128300000Y-108420000D02*
X128300000Y-106030000D01*
X129960000Y-97510000D02*
X131700000Y-97510000D01*
X132510000Y-93570000D02*
X134380000Y-91700000D01*
X124160000Y-110480000D02*
X124160000Y-111845000D01*
D66*
%TO.N,Net-(J4-Pad5)*%
X141705000Y-68885000D02*
X138750000Y-68885000D01*
X144620000Y-72910000D02*
X144620000Y-71800000D01*
X144620000Y-71800000D02*
X141705000Y-68885000D01*
%TO.N,Net-(J4-Pad1)*%
X148380000Y-75010000D02*
X148380000Y-73975000D01*
X148380000Y-73975000D02*
X140800000Y-66395000D01*
D74*
%TO.N,/SWCLK*%
X141715187Y-78704633D02*
X142456820Y-77963000D01*
X136810511Y-95249849D02*
X136389849Y-95249849D01*
X148148000Y-82148000D02*
X148148000Y-83912360D01*
X138869000Y-82941000D02*
X139019000Y-82941000D01*
X143963000Y-77963000D02*
X148148000Y-82148000D01*
X139019000Y-82941000D02*
X141715187Y-80244813D01*
X138780000Y-83030000D02*
X138869000Y-82941000D01*
X142456820Y-77963000D02*
X143963000Y-77963000D01*
X138276500Y-83030000D02*
X138780000Y-83030000D01*
X141715187Y-80244813D02*
X141715187Y-78704633D01*
X148148000Y-83912360D02*
X136810511Y-95249849D01*
%TO.N,/SWD*%
X138276500Y-82630000D02*
X138833007Y-82630000D01*
X138833007Y-82630000D02*
X141404187Y-80058820D01*
X136130000Y-96370180D02*
X136130000Y-96670000D01*
X148459000Y-84041180D02*
X136130000Y-96370180D01*
X142328000Y-77652000D02*
X144122180Y-77652000D01*
X141404187Y-78575813D02*
X142328000Y-77652000D01*
X148459000Y-81988820D02*
X148459000Y-84041180D01*
X144122180Y-77652000D02*
X148459000Y-81988820D01*
X141404187Y-80058820D02*
X141404187Y-78575813D01*
%TO.N,/UART0_RX*%
X129146564Y-87030000D02*
X128483500Y-87030000D01*
X129276564Y-87160000D02*
X129146564Y-87030000D01*
X129370648Y-87160000D02*
X129276564Y-87160000D01*
%TO.N,/UART0_TX*%
X129532085Y-86630000D02*
X129817000Y-86345085D01*
X128483500Y-86630000D02*
X129532085Y-86630000D01*
D73*
%TO.N,/VREG_LX*%
X127576000Y-80900000D02*
X125611000Y-80900000D01*
D67*
X125611000Y-80900000D02*
X125611000Y-80889000D01*
D76*
X127706000Y-81030000D02*
X127576000Y-80900000D01*
D67*
X125611000Y-80889000D02*
X125609000Y-80889000D01*
X128483500Y-81030000D02*
X127706000Y-81030000D01*
D70*
%TO.N,Net-(P1-PadL4)*%
X159492590Y-109822590D02*
X168592590Y-109822590D01*
X174164160Y-111250000D02*
X174397370Y-111016790D01*
D73*
X159492590Y-109822590D02*
X159472590Y-109822590D01*
X151990000Y-106880000D02*
X150790000Y-108080000D01*
X159472590Y-109822590D02*
X156530000Y-106880000D01*
X156530000Y-106880000D02*
X151990000Y-106880000D01*
D70*
X170020000Y-111250000D02*
X174164160Y-111250000D01*
X168592590Y-109822590D02*
X170020000Y-111250000D01*
X174397370Y-111016790D02*
X175789630Y-109624530D01*
%TO.N,Net-(P1-PadL2)*%
X155750000Y-94020000D02*
X163160000Y-94020000D01*
D67*
X175205510Y-100100000D02*
X175789130Y-99516380D01*
D70*
X169240000Y-100100000D02*
X175205510Y-100100000D01*
X163160000Y-94020000D02*
X169240000Y-100100000D01*
D74*
%TO.N,/ERX-*%
X155090001Y-100040000D02*
X155400001Y-99730000D01*
X163103726Y-97340000D02*
X163350000Y-97586274D01*
X155400001Y-99730000D02*
X157716274Y-99730000D01*
X163350000Y-97586274D02*
X163350000Y-99220000D01*
X163090000Y-99480000D02*
X162150000Y-99480000D01*
X157716274Y-99730000D02*
X160106274Y-97340000D01*
X154610000Y-100040000D02*
X154610000Y-101280000D01*
X162001040Y-99331040D02*
X162001040Y-98855790D01*
X162150000Y-99480000D02*
X162001040Y-99331040D01*
X160106274Y-97340000D02*
X163103726Y-97340000D01*
X154610000Y-101280000D02*
X154590000Y-101300000D01*
X154610000Y-100040000D02*
X155090001Y-100040000D01*
X163350000Y-99220000D02*
X163090000Y-99480000D01*
%TO.N,/ERX+*%
X154610000Y-99100000D02*
X155090001Y-99100000D01*
X154610000Y-97820000D02*
X154590000Y-97800000D01*
X154610000Y-99100000D02*
X154610000Y-97820000D01*
X155090001Y-99100000D02*
X155400001Y-99410000D01*
X155400001Y-99410000D02*
X157583726Y-99410000D01*
X159973726Y-97020000D02*
X163236274Y-97020000D01*
X157583726Y-99410000D02*
X159973726Y-97020000D01*
X163670000Y-97453726D02*
X163670000Y-99254750D01*
X163670000Y-99254750D02*
X164541040Y-100125790D01*
X163236274Y-97020000D02*
X163670000Y-97453726D01*
D70*
%TO.N,/VGA_R0*%
X152140000Y-69060000D02*
X152130000Y-69050000D01*
D74*
X129740770Y-83090230D02*
X130347000Y-83696460D01*
X129740767Y-81878825D02*
X129740770Y-83090230D01*
D70*
X153560000Y-65900000D02*
X154300000Y-65900000D01*
D74*
X129450180Y-87830000D02*
X128483500Y-87830000D01*
X130347000Y-83696460D02*
X130347000Y-86933180D01*
X133451017Y-80130549D02*
X133395565Y-80186001D01*
X133395565Y-80186001D02*
X131433591Y-80186001D01*
D70*
X152130000Y-69050000D02*
X152130000Y-67330000D01*
X152130000Y-67330000D02*
X153560000Y-65900000D01*
D74*
X130347000Y-86933180D02*
X129450180Y-87830000D01*
X131433591Y-80186001D02*
X129740767Y-81878825D01*
D66*
%TO.N,Net-(R6-Pad2)*%
X156300000Y-65900000D02*
X156300000Y-67900000D01*
X156300000Y-67900000D02*
X158900000Y-67900000D01*
D74*
%TO.N,/VGA_R1*%
X152225000Y-69975000D02*
X152225000Y-69895000D01*
D70*
X153530000Y-67900000D02*
X154300000Y-67900000D01*
X152225000Y-69895000D02*
X152671000Y-69449000D01*
X152671000Y-69449000D02*
X152840000Y-69280000D01*
D74*
X130051769Y-82961409D02*
X130658000Y-83567640D01*
D70*
X152840000Y-69280000D02*
X152840000Y-68590000D01*
D74*
X130658000Y-83567640D02*
X130658000Y-87062000D01*
D70*
X152840000Y-68590000D02*
X153530000Y-67900000D01*
D74*
X130658000Y-87062000D02*
X129580000Y-88140000D01*
X134755323Y-80790000D02*
X133039640Y-80790000D01*
X132746642Y-80497001D02*
X131562411Y-80497001D01*
X133039640Y-80790000D02*
X132746642Y-80497001D01*
X129580000Y-88140000D02*
X129580000Y-88926500D01*
X130051767Y-82007645D02*
X130051769Y-82961409D01*
X131562411Y-80497001D02*
X130051767Y-82007645D01*
%TO.N,/VGA_G0*%
X130362767Y-82136465D02*
X130362768Y-82832588D01*
X130362768Y-82832588D02*
X130969000Y-83438820D01*
D70*
X153560000Y-70100000D02*
X154300000Y-70100000D01*
D74*
X130969000Y-83438820D02*
X130968999Y-87211181D01*
X132617822Y-80808001D02*
X131691231Y-80808001D01*
D70*
X152310000Y-71350000D02*
X153560000Y-70100000D01*
X150000000Y-76020000D02*
X149875000Y-76145000D01*
D74*
X129980000Y-88200180D02*
X129980000Y-88926500D01*
D70*
X152310000Y-73370000D02*
X152310000Y-71350000D01*
D74*
X133520000Y-81320000D02*
X133510000Y-81330000D01*
X131691231Y-80808001D02*
X130362767Y-82136465D01*
D70*
X150000000Y-75680000D02*
X152310000Y-73370000D01*
D74*
X130968999Y-87211181D02*
X129980000Y-88200180D01*
D70*
X150000000Y-75680000D02*
X150000000Y-76020000D01*
D74*
X133139820Y-81330000D02*
X132617822Y-80808001D01*
X133510000Y-81330000D02*
X133139820Y-81330000D01*
D66*
%TO.N,Net-(R10-Pad2)*%
X156300000Y-70100000D02*
X156300000Y-72100000D01*
X156300000Y-72100000D02*
X158900000Y-72100000D01*
D74*
%TO.N,/VGA_G1*%
X131820051Y-81119001D02*
X130673767Y-82265285D01*
D70*
X152761000Y-73779000D02*
X150705000Y-75835000D01*
X150705000Y-75835000D02*
X150705000Y-76125000D01*
D74*
X135242391Y-81860000D02*
X133230000Y-81860000D01*
X130380001Y-88239999D02*
X130380000Y-88926500D01*
D70*
X152761000Y-72639000D02*
X152761000Y-73779000D01*
D74*
X150705000Y-76125000D02*
X150810000Y-76020000D01*
D70*
X153300000Y-72100000D02*
X152761000Y-72639000D01*
X154300000Y-72100000D02*
X153300000Y-72100000D01*
D74*
X132489001Y-81119001D02*
X131820051Y-81119001D01*
X133230000Y-81860000D02*
X132489001Y-81119001D01*
X130673767Y-82265285D02*
X130673767Y-82703767D01*
X130673767Y-82703767D02*
X131280000Y-83310000D01*
X131279999Y-87340001D02*
X130380001Y-88239999D01*
X131280000Y-83310000D02*
X131279999Y-87340001D01*
X135292391Y-81910000D02*
X135242391Y-81860000D01*
D70*
%TO.N,/VGA_B0*%
X152290000Y-75280000D02*
X153270000Y-74300000D01*
X152170000Y-75400000D02*
X152290000Y-75280000D01*
X153270000Y-74300000D02*
X154300000Y-74300000D01*
X152170000Y-76990000D02*
X152170000Y-75400000D01*
D74*
X130780000Y-88320000D02*
X130780000Y-88926500D01*
X133040000Y-86060000D02*
X130780000Y-88320000D01*
X135878062Y-86270000D02*
X135668062Y-86060000D01*
X135668062Y-86060000D02*
X133040000Y-86060000D01*
X151990000Y-77170000D02*
X152170000Y-76990000D01*
D66*
%TO.N,Net-(R13-Pad2)*%
X156300000Y-76300000D02*
X158900000Y-76300000D01*
X156300000Y-74300000D02*
X156300000Y-76300000D01*
D74*
%TO.N,/VGA_B1*%
X134380000Y-86749000D02*
X134002000Y-86371000D01*
D70*
X152662881Y-76887119D02*
X153250000Y-76300000D01*
X152662881Y-77492415D02*
X152662881Y-76887119D01*
X153250000Y-76300000D02*
X154300000Y-76300000D01*
D74*
X134002000Y-86371000D02*
X133168820Y-86371000D01*
D70*
X152775233Y-77604767D02*
X152662881Y-77492415D01*
D74*
X131580000Y-87959820D02*
X131580000Y-88926500D01*
X133168820Y-86371000D02*
X131580000Y-87959820D01*
D75*
%TO.N,/UD+*%
X127878499Y-82610000D02*
X123355440Y-82610000D01*
X123355440Y-82610000D02*
X122828507Y-82083067D01*
X121215842Y-82090000D02*
X120960000Y-82090000D01*
X127898499Y-82630000D02*
X127878499Y-82610000D01*
X120660000Y-82390000D02*
X120610000Y-82390000D01*
X121222775Y-82083067D02*
X121215842Y-82090000D01*
X120960000Y-82090000D02*
X120660000Y-82390000D01*
X128483500Y-82630000D02*
X127898499Y-82630000D01*
X122828507Y-82083067D02*
X121222775Y-82083067D01*
D74*
%TO.N,/PS2_CLK*%
X138217500Y-85371000D02*
X137821510Y-85371000D01*
X140600000Y-73040000D02*
X140470000Y-72910000D01*
X138276500Y-85430000D02*
X138217500Y-85371000D01*
X137821510Y-85371000D02*
X137791510Y-85341000D01*
X137019001Y-80251689D02*
X140600000Y-76670690D01*
X136538001Y-82182179D02*
X137019000Y-81701180D01*
X137019000Y-81701180D02*
X137019001Y-80251689D01*
X137791510Y-85341000D02*
X137310231Y-85340999D01*
X136538000Y-84568768D02*
X136538001Y-82182179D01*
D67*
X140470000Y-72910000D02*
X140870000Y-72910000D01*
D74*
X140600000Y-73180000D02*
X140870000Y-72910000D01*
X137310231Y-85340999D02*
X136538000Y-84568768D01*
X140600000Y-76670690D02*
X140600000Y-73180000D01*
D70*
X140870000Y-72910000D02*
X142620000Y-72910000D01*
D74*
%TO.N,/PS2_DAT*%
X138276500Y-85030000D02*
X137439052Y-85030000D01*
X137330000Y-81830000D02*
X137330000Y-80380510D01*
D70*
X144630000Y-75010000D02*
X146380000Y-75010000D01*
D74*
X136849000Y-82311000D02*
X137330000Y-81830000D01*
X137439052Y-85030000D02*
X136849000Y-84439948D01*
X142640000Y-77000000D02*
X144630000Y-75010000D01*
X137330000Y-80380510D02*
X140710510Y-77000000D01*
X136849000Y-84439948D02*
X136849000Y-82311000D01*
X140710510Y-77000000D02*
X142640000Y-77000000D01*
D75*
%TO.N,/UD-*%
X127878499Y-82250000D02*
X123504560Y-82250000D01*
X121078077Y-81730000D02*
X120960000Y-81730000D01*
X123504560Y-82250000D02*
X122977627Y-81723067D01*
X127898499Y-82230000D02*
X127878499Y-82250000D01*
X120960000Y-81730000D02*
X120660000Y-81430000D01*
X121085010Y-81723067D02*
X121078077Y-81730000D01*
X128483500Y-82230000D02*
X127898499Y-82230000D01*
X120660000Y-81430000D02*
X120610000Y-81430000D01*
X122977627Y-81723067D02*
X121085010Y-81723067D01*
D70*
%TO.N,Net-(U2-DO)*%
X107380000Y-83640000D02*
X107380000Y-80820000D01*
D74*
X107380000Y-80820000D02*
X107080000Y-80520000D01*
D70*
%TO.N,/gSPI_DI_DO*%
X116760000Y-80200000D02*
X113400000Y-80200000D01*
D74*
X105380000Y-80720000D02*
X105580000Y-80520000D01*
D70*
X112210000Y-80200000D02*
X107980000Y-84430000D01*
X117500000Y-79460000D02*
X116760000Y-80200000D01*
D74*
X135839533Y-84749533D02*
X137320000Y-86230000D01*
X135529999Y-84749533D02*
X135839533Y-84749533D01*
D70*
X107980000Y-84430000D02*
X105720000Y-84430000D01*
X113400000Y-80200000D02*
X112210000Y-80200000D01*
X105380000Y-83640000D02*
X105380000Y-80720000D01*
D74*
X137320000Y-86230000D02*
X138276500Y-86230000D01*
D70*
X105440000Y-84150000D02*
X105440000Y-83230000D01*
X105720000Y-84430000D02*
X105440000Y-84150000D01*
D74*
%TO.N,/QSPI_SS*%
X119340000Y-90580000D02*
X119190000Y-90580000D01*
X128483500Y-85830000D02*
X127807654Y-85830000D01*
X121920000Y-88000000D02*
X119340000Y-90580000D01*
X127807654Y-85830000D02*
X127287654Y-86350000D01*
X124408867Y-88000000D02*
X121920000Y-88000000D01*
X126058867Y-86350000D02*
X124408867Y-88000000D01*
X127287654Y-86350000D02*
X126058867Y-86350000D01*
%TO.N,/~{USB_BOOT}*%
X119190000Y-91600000D02*
X118130000Y-91600000D01*
X118130000Y-91600000D02*
X118100000Y-91630000D01*
D70*
X108070000Y-91630000D02*
X104825000Y-91630000D01*
%TO.N,Net-(U2-nIRQ)*%
X114190000Y-78200000D02*
X113400000Y-78200000D01*
X113580000Y-75270000D02*
X114670000Y-76360000D01*
X114670000Y-76360000D02*
X114670000Y-77720000D01*
X114670000Y-77720000D02*
X114190000Y-78200000D01*
X109880000Y-75270000D02*
X113580000Y-75270000D01*
D74*
%TO.N,Net-(R27-Pad1)*%
X100600000Y-87865000D02*
X100695000Y-87960000D01*
D70*
X100600000Y-85720000D02*
X100600000Y-87865000D01*
D67*
%TO.N,/ETH_RSTn*%
X147110000Y-107540000D02*
X147110000Y-108860000D01*
D74*
X137506500Y-88926500D02*
X137310000Y-88926500D01*
D67*
X142474020Y-102845980D02*
X142544020Y-102845980D01*
X142544020Y-102845980D02*
X142649734Y-102740266D01*
D74*
X138793909Y-90213909D02*
X137506500Y-88926500D01*
D67*
X145150000Y-106662500D02*
X146232500Y-106662500D01*
X146232500Y-106662500D02*
X147110000Y-107540000D01*
X145150000Y-105240532D02*
X145150000Y-106662500D01*
X142649734Y-102740266D02*
X145150000Y-105240532D01*
D74*
%TO.N,/XOUT*%
X139091626Y-83660000D02*
X141040000Y-83660000D01*
X141710000Y-82990000D02*
X141710000Y-82839999D01*
X138276500Y-83830000D02*
X138921626Y-83830000D01*
X141710000Y-82839999D02*
X141850000Y-82699999D01*
X141040000Y-83660000D02*
X141710000Y-82990000D01*
X138921626Y-83830000D02*
X139091626Y-83660000D01*
%TO.N,/LNK*%
X153159000Y-92449000D02*
X154730000Y-94020000D01*
X140980000Y-93100000D02*
X141631000Y-92449000D01*
X141631000Y-92449000D02*
X153159000Y-92449000D01*
X140980000Y-94459052D02*
X140980000Y-93100000D01*
X143150000Y-98337500D02*
X143150000Y-96629052D01*
X143150000Y-96629052D02*
X140980000Y-94459052D01*
D67*
%TO.N,/ACT*%
X145564000Y-105144000D02*
X145564000Y-105466254D01*
X145564000Y-105466254D02*
X148177746Y-108080000D01*
X148177746Y-108080000D02*
X149770000Y-108080000D01*
X141650000Y-98337500D02*
X141650000Y-101230000D01*
X141650000Y-101230000D02*
X145564000Y-105144000D01*
%TO.N,Net-(R41-Pad2)*%
X149660000Y-101150000D02*
X149650000Y-101140000D01*
X149650000Y-101140000D02*
X149650000Y-100170000D01*
D74*
%TO.N,/RUN*%
X141093187Y-78436813D02*
X141093187Y-79930000D01*
X141093187Y-79930000D02*
X138793187Y-82230000D01*
X144251000Y-77341000D02*
X142189000Y-77341000D01*
X136660000Y-97350000D02*
X136660000Y-96280000D01*
X136660000Y-96280000D02*
X148770000Y-84170000D01*
X148770000Y-84170000D02*
X148770000Y-81860000D01*
X148770000Y-81860000D02*
X144251000Y-77341000D01*
D70*
X106490000Y-87960000D02*
X107270000Y-88740000D01*
X104845000Y-87960000D02*
X106490000Y-87960000D01*
D74*
X142189000Y-77341000D02*
X141093187Y-78436813D01*
X138793187Y-82230000D02*
X138276500Y-82230000D01*
%TO.N,/gSPI_SCLK*%
X139150000Y-81430000D02*
X138276500Y-81430000D01*
X140550000Y-80030000D02*
X139150000Y-81430000D01*
X140550000Y-79640000D02*
X140550000Y-80030000D01*
D70*
X102580000Y-77240000D02*
X104250000Y-75570000D01*
X102580000Y-80520000D02*
X102580000Y-77240000D01*
D74*
%TO.N,/WIFI_BT_ON*%
X137464233Y-87435767D02*
X137024819Y-87435767D01*
X137024819Y-87435767D02*
X136713767Y-87124715D01*
D70*
X115290000Y-75990000D02*
X111570000Y-72270000D01*
D74*
X138276500Y-87030000D02*
X137870000Y-87030000D01*
D70*
X115290000Y-76770000D02*
X115290000Y-75990000D01*
D74*
X136149715Y-85499535D02*
X135530001Y-85499535D01*
X137870000Y-87030000D02*
X137464233Y-87435767D01*
D70*
X109880000Y-72270000D02*
X109880000Y-70770000D01*
D74*
X136713767Y-87124715D02*
X136713767Y-86063587D01*
D70*
X111570000Y-72270000D02*
X109880000Y-72270000D01*
D74*
X136713767Y-86063587D02*
X136149715Y-85499535D01*
%TO.N,/gSPI_CS*%
X135640000Y-84110000D02*
X137360000Y-85830000D01*
D70*
X111740000Y-76770000D02*
X109880000Y-76770000D01*
X112300000Y-76210000D02*
X111740000Y-76770000D01*
D74*
X135640000Y-83940000D02*
X135640000Y-84110000D01*
X137360000Y-85830000D02*
X138276500Y-85830000D01*
%TO.N,/QSPI_SD2*%
X127074014Y-85684000D02*
X125586000Y-85684000D01*
X125586000Y-85684000D02*
X125120000Y-86150000D01*
X122804599Y-86150000D02*
X122735493Y-86080894D01*
X125120000Y-86150000D02*
X122804599Y-86150000D01*
X127728014Y-85030000D02*
X127074014Y-85684000D01*
X128483500Y-85030000D02*
X127728014Y-85030000D01*
%TO.N,/QSPI_SD1*%
X128483500Y-85430000D02*
X127767834Y-85430000D01*
X124289820Y-87420000D02*
X122804599Y-87420000D01*
X122804599Y-87420000D02*
X122735493Y-87350894D01*
X127158834Y-86039000D02*
X125670820Y-86039000D01*
X125670820Y-86039000D02*
X124289820Y-87420000D01*
X127767834Y-85430000D02*
X127158834Y-86039000D01*
%TO.N,/QSPI_SCLK*%
X127648374Y-84230000D02*
X126816374Y-85062000D01*
X128483500Y-84230000D02*
X127648374Y-84230000D01*
X124839000Y-85062000D02*
X124799000Y-85062000D01*
X124799000Y-85062000D02*
X124580000Y-85281000D01*
X117514599Y-86110000D02*
X117485493Y-86080894D01*
X120910000Y-86110000D02*
X117514599Y-86110000D01*
X126816374Y-85062000D02*
X124839000Y-85062000D01*
%TO.N,/QSPI_SD0*%
X124991180Y-85839000D02*
X123929000Y-85839000D01*
X126945194Y-85373000D02*
X125457179Y-85373001D01*
X125457179Y-85373001D02*
X124991180Y-85839000D01*
X123929000Y-85839000D02*
X123490000Y-85400000D01*
X127688194Y-84630000D02*
X126945194Y-85373000D01*
X128483500Y-84630000D02*
X127688194Y-84630000D01*
X123490000Y-85400000D02*
X118074599Y-85400000D01*
X118074599Y-85400000D02*
X117485493Y-84810894D01*
X117458600Y-84784001D02*
X117485493Y-84810894D01*
%TO.N,/QSPI_SD3*%
X124138002Y-84610002D02*
X124279000Y-84751000D01*
X118870000Y-87330000D02*
X117506387Y-87330000D01*
X127608554Y-83830000D02*
X128483500Y-83830000D01*
X117506387Y-87330000D02*
X117485493Y-87350894D01*
X126687554Y-84751000D02*
X127608554Y-83830000D01*
X124138002Y-84436650D02*
X124138002Y-84610002D01*
X124279000Y-84751000D02*
X126687554Y-84751000D01*
%TO.N,/GPIO40_ADC0*%
X128637055Y-70029000D02*
X123909000Y-65300945D01*
X135860000Y-74470000D02*
X135549688Y-74470000D01*
X123909000Y-60916000D02*
X124990000Y-59835000D01*
X135549688Y-74470000D02*
X131108691Y-70029002D01*
X131108691Y-70029002D02*
X128637055Y-70029000D01*
X123909000Y-65300945D02*
X123909000Y-60916000D01*
X133980000Y-79529490D02*
X134471353Y-80020843D01*
X133980000Y-79133500D02*
X133980000Y-79529490D01*
X134471353Y-80020843D02*
X136541915Y-80020843D01*
%TO.N,/GPIO35*%
X135970000Y-78641230D02*
X136076000Y-78535229D01*
X135970000Y-79123500D02*
X135970000Y-78641230D01*
X119910000Y-62621405D02*
X119910000Y-62375000D01*
X128250593Y-70961998D02*
X119910000Y-62621405D01*
X136075996Y-77064770D02*
X136074997Y-77063770D01*
X136074997Y-77063770D02*
X136074996Y-76314768D01*
X136074996Y-76314768D02*
X130722228Y-70962000D01*
X130722228Y-70962000D02*
X128250593Y-70961998D01*
X136076000Y-78535229D02*
X136075996Y-77064770D01*
X135980000Y-79133500D02*
X135970000Y-79123500D01*
%TO.N,/GPIO33*%
X136697998Y-78094254D02*
X136697996Y-76807128D01*
X120740000Y-60930000D02*
X113735000Y-60930000D01*
X136780000Y-79133500D02*
X136780000Y-78620000D01*
X121350000Y-63181765D02*
X121350000Y-61540000D01*
X136701000Y-78097256D02*
X136697998Y-78094254D01*
X113735000Y-60930000D02*
X112290000Y-62375000D01*
X136780000Y-78620000D02*
X136701000Y-78541000D01*
X128508235Y-70340000D02*
X121350000Y-63181765D01*
X121350000Y-61540000D02*
X120740000Y-60930000D01*
X130559407Y-70340000D02*
X128508235Y-70340000D01*
X136701000Y-78541000D02*
X136701000Y-78097256D01*
X136696996Y-76057128D02*
X130979870Y-70340002D01*
X136696996Y-76806128D02*
X136696996Y-76057128D01*
X130979870Y-70340002D02*
X130559407Y-70340000D01*
X136697996Y-76807128D02*
X136696996Y-76806128D01*
%TO.N,/GPIO46_ADC6*%
X130780000Y-79133500D02*
X130830999Y-79082501D01*
X116579998Y-69019999D02*
X111210000Y-63650001D01*
X129097374Y-74590000D02*
X126750000Y-74590000D01*
X110535820Y-60916000D02*
X108291000Y-60916000D01*
X126270716Y-74589996D02*
X120700720Y-69020000D01*
X126750000Y-74590000D02*
X126670000Y-74590000D01*
X111209999Y-61590179D02*
X110535820Y-60916000D01*
X130830999Y-76323625D02*
X129097374Y-74590000D01*
X126750000Y-74590000D02*
X126639998Y-74589997D01*
X130830999Y-79082501D02*
X130830999Y-76323625D01*
X126639998Y-74589997D02*
X126270716Y-74589996D01*
X111210000Y-63650001D02*
X111209999Y-61590179D01*
X120700720Y-69020000D02*
X116579998Y-69019999D01*
X108291000Y-60916000D02*
X107210000Y-59835000D01*
%TO.N,/GPIO43_ADC3*%
X129483834Y-73657000D02*
X126657179Y-73656999D01*
X126657179Y-73656999D02*
X119730180Y-66730000D01*
X119730180Y-66730000D02*
X119340000Y-66730000D01*
X131980000Y-79133500D02*
X131980000Y-76153166D01*
X131980000Y-76153166D02*
X129483834Y-73657000D01*
%TO.N,/GPIO45_ADC5*%
X120390459Y-68269919D02*
X119308807Y-68269919D01*
X126399537Y-74278997D02*
X120390459Y-68269919D01*
X131180000Y-76232806D02*
X129226194Y-74279000D01*
X126799000Y-74279000D02*
X126798998Y-74278998D01*
X126798998Y-74278998D02*
X126399537Y-74278997D01*
X131180000Y-79133500D02*
X131180000Y-76232806D01*
X129226194Y-74279000D02*
X126799000Y-74279000D01*
D70*
%TO.N,/GPIO28*%
X159170000Y-79150000D02*
X159170000Y-81690000D01*
D74*
X138276500Y-81830000D02*
X137800000Y-81830000D01*
D70*
X159170000Y-81690000D02*
X159090000Y-81770000D01*
D74*
X137379000Y-82251000D02*
X137379000Y-83370000D01*
X137800000Y-81830000D02*
X137379000Y-82251000D01*
%TO.N,/ETH_CSn*%
X136610000Y-93043120D02*
X136610000Y-93510000D01*
X135190000Y-94930000D02*
X135190000Y-100200948D01*
X136660000Y-91110000D02*
X136069000Y-90519000D01*
X136610000Y-93510000D02*
X135190000Y-94930000D01*
X138196500Y-101791000D02*
X138237500Y-101750000D01*
X135190000Y-100200948D02*
X136780052Y-101791000D01*
X135980000Y-89316499D02*
X135980000Y-88926500D01*
X136069000Y-90519000D02*
X136069000Y-89405499D01*
X136069000Y-89405499D02*
X135980000Y-89316499D01*
X136780052Y-101791000D02*
X138196500Y-101791000D01*
%TO.N,/GPIO39*%
X130222948Y-72222000D02*
X127742359Y-72221999D01*
X134520948Y-78331002D02*
X134832000Y-78019950D01*
X127742359Y-72221999D02*
X123880360Y-68360000D01*
X134380000Y-78465474D02*
X134514472Y-78331002D01*
X134831000Y-77579054D02*
X134831000Y-76830052D01*
X134380000Y-79133500D02*
X134380000Y-78465474D01*
X123880360Y-68360000D02*
X122580000Y-68360000D01*
X134832000Y-78019950D02*
X134832000Y-77580054D01*
X134514472Y-78331002D02*
X134520948Y-78331002D01*
X134832000Y-77580054D02*
X134831000Y-77579054D01*
X134831000Y-76830052D02*
X130222948Y-72222000D01*
%TO.N,/GPIO31*%
X139070180Y-80630000D02*
X138276500Y-80630000D01*
X139650000Y-79290180D02*
X139649001Y-79291179D01*
X139650000Y-78820000D02*
X139650000Y-79290180D01*
X139649001Y-79291179D02*
X139649000Y-80051180D01*
X139649000Y-80051180D02*
X139070180Y-80630000D01*
%TO.N,/GPIO34*%
X136390000Y-78740000D02*
X136390000Y-78226076D01*
X120581000Y-61241000D02*
X118504000Y-61241000D01*
X136386996Y-76935949D02*
X136385996Y-76934948D01*
X136390000Y-78226076D02*
X136386998Y-78223074D01*
X118504000Y-61241000D02*
X117370000Y-62375000D01*
X136380000Y-78750000D02*
X136390000Y-78740000D01*
X130851049Y-70651001D02*
X128379414Y-70650999D01*
X121039000Y-63310585D02*
X121039000Y-61699000D01*
X128379414Y-70650999D02*
X121039000Y-63310585D01*
X136385996Y-76185948D02*
X130851049Y-70651001D01*
X136385996Y-76934948D02*
X136385996Y-76185948D01*
X136380000Y-79133500D02*
X136380000Y-78750000D01*
X136386998Y-78223074D02*
X136386996Y-76935949D01*
X121039000Y-61699000D02*
X120581000Y-61241000D01*
%TO.N,/ETH_TX*%
X138136500Y-103351000D02*
X134615910Y-103351000D01*
X137380000Y-89936632D02*
X136829000Y-89385632D01*
X136829000Y-88975500D02*
X136780000Y-88926500D01*
X137380000Y-91210000D02*
X137380000Y-89936632D01*
X136829000Y-89385632D02*
X136829000Y-88975500D01*
X134269000Y-94321000D02*
X137380000Y-91210000D01*
X134269000Y-103004090D02*
X134269000Y-94321000D01*
X138237500Y-103250000D02*
X138136500Y-103351000D01*
X134615910Y-103351000D02*
X134269000Y-103004090D01*
D67*
%TO.N,/ETH_INTn*%
X141669122Y-102860460D02*
X141669268Y-102860460D01*
D74*
X139579659Y-89630000D02*
X139579659Y-89133159D01*
D67*
X142972637Y-103680000D02*
X144650000Y-105357363D01*
D74*
X139579659Y-89133159D02*
X138276500Y-87830000D01*
D67*
X144650000Y-105357363D02*
X144650000Y-106662500D01*
X141669268Y-102860460D02*
X142488808Y-103680000D01*
X142488808Y-103680000D02*
X142972637Y-103680000D01*
D74*
%TO.N,/ETH_RX*%
X134560948Y-103750000D02*
X133948000Y-103137052D01*
X135690000Y-92440000D02*
X135690000Y-89757304D01*
X135690000Y-89757304D02*
X135580000Y-89647304D01*
X133948000Y-103137052D02*
X133948000Y-94182000D01*
X133948000Y-94182000D02*
X135690000Y-92440000D01*
X135580000Y-89647304D02*
X135580000Y-88926500D01*
X138237500Y-103750000D02*
X134560948Y-103750000D01*
%TO.N,/GPIO44_ADC4*%
X129355014Y-73968000D02*
X126528358Y-73967998D01*
X131580000Y-76192986D02*
X129355014Y-73968000D01*
X131580000Y-79133500D02*
X131580000Y-76192986D01*
X126528358Y-73967998D02*
X120080360Y-67520000D01*
X120080360Y-67520000D02*
X119320000Y-67520000D01*
%TO.N,/GPIO30*%
X139960000Y-79420000D02*
X140550000Y-78830000D01*
X139960000Y-80180000D02*
X139960000Y-79420000D01*
X138286500Y-81020000D02*
X139120000Y-81020000D01*
X138276500Y-81030000D02*
X138286500Y-81020000D01*
X139120000Y-81020000D02*
X139960000Y-80180000D01*
%TO.N,/ETH_SCK*%
X134879000Y-94451000D02*
X134879000Y-100329768D01*
X134879000Y-100329768D02*
X136799232Y-102250000D01*
X135837326Y-93492674D02*
X134879000Y-94451000D01*
X136799232Y-102250000D02*
X138237500Y-102250000D01*
X136650000Y-90090000D02*
X136380000Y-89820000D01*
X136380000Y-89820000D02*
X136380000Y-88926500D01*
X135861000Y-93492674D02*
X135837326Y-93492674D01*
%TO.N,/PSRAM_CS*%
X126040000Y-87930000D02*
X125250000Y-88720000D01*
X128087510Y-87430000D02*
X127587510Y-87930000D01*
X124810493Y-88695894D02*
X124820493Y-88685894D01*
X122735493Y-88620894D02*
X122735493Y-88640894D01*
X127587510Y-87930000D02*
X126040000Y-87930000D01*
X128483500Y-87430000D02*
X128087510Y-87430000D01*
X124864599Y-88720000D02*
X124820493Y-88675894D01*
X125250000Y-88720000D02*
X124864599Y-88720000D01*
X124820493Y-88685894D02*
X124820493Y-88675894D01*
X122790493Y-88695894D02*
X124810493Y-88695894D01*
X122735493Y-88640894D02*
X122790493Y-88695894D01*
%TO.N,/GPIO37*%
X135453998Y-77322412D02*
X135454000Y-78277590D01*
X123195380Y-66795380D02*
X128000000Y-71600000D01*
X122574620Y-66795380D02*
X123195380Y-66795380D01*
X135180000Y-78551590D02*
X135180000Y-79133500D01*
X128000000Y-71600000D02*
X130480588Y-71600000D01*
X135454000Y-78277590D02*
X135180000Y-78551590D01*
X135452999Y-77321413D02*
X135453998Y-77322412D01*
X122570000Y-66800000D02*
X122574620Y-66795380D01*
X130480588Y-71600000D02*
X135452998Y-76572410D01*
X135452998Y-76572410D02*
X135452999Y-77321413D01*
%TO.N,/GPIO38*%
X135141999Y-76701231D02*
X135142000Y-77450234D01*
X135143000Y-78148770D02*
X134780000Y-78511770D01*
X135142000Y-77450234D02*
X135142999Y-77451233D01*
X123509885Y-67549705D02*
X127871180Y-71911000D01*
X127871180Y-71911000D02*
X130351768Y-71911000D01*
X135142999Y-77451233D02*
X135143000Y-78148770D01*
X130351768Y-71911000D02*
X135141999Y-76701231D01*
X134780000Y-78511770D02*
X134780000Y-79133500D01*
X122548882Y-67549705D02*
X123509885Y-67549705D01*
%TO.N,/GPIO47_ADC7*%
X110899000Y-61719000D02*
X110407000Y-61227000D01*
X126141894Y-74900996D02*
X126140898Y-74900000D01*
X106062000Y-61227000D02*
X104670000Y-59835000D01*
X126511179Y-74900999D02*
X126511177Y-74900997D01*
X126090000Y-74900000D02*
X120521000Y-69331000D01*
X110407000Y-61227000D02*
X106062000Y-61227000D01*
X116451178Y-69330999D02*
X110899000Y-63778821D01*
X130380000Y-78147554D02*
X130519999Y-78007555D01*
X130380000Y-79133500D02*
X130380000Y-78147554D01*
X126140898Y-74900000D02*
X126090000Y-74900000D01*
X130519999Y-78007555D02*
X130520000Y-76452446D01*
X120521000Y-69331000D02*
X116451178Y-69330999D01*
X128968554Y-74901000D02*
X126511179Y-74900999D01*
X130520000Y-76452446D02*
X128968554Y-74901000D01*
X126511177Y-74900997D02*
X126141894Y-74900996D01*
X110899000Y-63778821D02*
X110899000Y-61719000D01*
%TO.N,/GPIO22*%
X153870000Y-80820000D02*
X153725000Y-80820000D01*
X153717500Y-80827500D02*
X152240000Y-80827500D01*
X142890000Y-87430000D02*
X142930000Y-87470000D01*
X152240000Y-80827500D02*
X152240000Y-82560000D01*
X153725000Y-80820000D02*
X153717500Y-80827500D01*
X138276500Y-87430000D02*
X142890000Y-87430000D01*
X152240000Y-82560000D02*
X152390000Y-82710000D01*
%TO.N,/GPIO36*%
X128121772Y-71272997D02*
X122874249Y-66025474D01*
X135763997Y-76443589D02*
X130593408Y-71273000D01*
X135763997Y-77192590D02*
X135763997Y-76443589D01*
X135580000Y-78591410D02*
X135764999Y-78406411D01*
X135580000Y-79133500D02*
X135580000Y-78591410D01*
X128192998Y-71272998D02*
X128121772Y-71272997D01*
X122874249Y-66025474D02*
X122564534Y-66025474D01*
X135764997Y-77193591D02*
X135763997Y-77192590D01*
X128193000Y-71273000D02*
X128192998Y-71272998D01*
X130593408Y-71273000D02*
X128193000Y-71273000D01*
X135764999Y-78406411D02*
X135764997Y-77193591D01*
%TO.N,/GPIO32*%
X138276500Y-80230000D02*
X138790000Y-80230000D01*
X138790000Y-80230000D02*
X139119000Y-79901000D01*
X139119000Y-79901000D02*
X139119000Y-79616000D01*
%TO.N,/GPIO11*%
X132652500Y-89547500D02*
X132542500Y-89547500D01*
D70*
X155420000Y-80661000D02*
X155420000Y-81770000D01*
D74*
X131880000Y-92540000D02*
X131870000Y-92550000D01*
X132780000Y-89420000D02*
X132652500Y-89547500D01*
D70*
X155440000Y-80641000D02*
X155420000Y-80661000D01*
D74*
X132542500Y-89547500D02*
X131880000Y-90210000D01*
X131880000Y-92500000D02*
X131880000Y-92540000D01*
X131880000Y-90210000D02*
X131880000Y-92500000D01*
X132780000Y-88926500D02*
X132780000Y-89420000D01*
%TO.N,/GPIO42_ADC2*%
X128570000Y-73346000D02*
X126786000Y-73346000D01*
X132291000Y-78261000D02*
X132290999Y-76024345D01*
X132290999Y-76024345D02*
X129612654Y-73346000D01*
X132380000Y-79133500D02*
X132380000Y-78350000D01*
X126786000Y-73346000D02*
X119360000Y-65920000D01*
X132380000Y-78350000D02*
X132291000Y-78261000D01*
X129612654Y-73346000D02*
X128570000Y-73346000D01*
%TO.N,/GPIO41_ADC1*%
X131304770Y-79875002D02*
X132434488Y-79875002D01*
X129670052Y-80541000D02*
X130638772Y-80541000D01*
X128170000Y-77420000D02*
X128170000Y-79040948D01*
X130638772Y-80541000D02*
X131304770Y-79875002D01*
X121384767Y-70634767D02*
X128170000Y-77420000D01*
X132434488Y-79875002D02*
X132780000Y-79529490D01*
X128170000Y-79040948D02*
X129670052Y-80541000D01*
X121075233Y-70634767D02*
X121384767Y-70634767D01*
X132780000Y-79529490D02*
X132780000Y-79133500D01*
D67*
%TO.N,Net-(U5-RSET_BG)*%
X148489000Y-101311000D02*
X148640000Y-101160000D01*
X146623500Y-101311000D02*
X148489000Y-101311000D01*
X146562500Y-101250000D02*
X146623500Y-101311000D01*
X148640000Y-101160000D02*
X148640000Y-101150000D01*
D74*
%TO.N,/ETH_TX-*%
X147668751Y-104750000D02*
X147758751Y-104660000D01*
X150835000Y-104675000D02*
X151384999Y-104675000D01*
X146562500Y-104750000D02*
X147668751Y-104750000D01*
X151384999Y-104675000D02*
X151709999Y-105000000D01*
X150820000Y-104660000D02*
X150835000Y-104675000D01*
X151709999Y-105000000D02*
X152190000Y-105000000D01*
X147758751Y-104660000D02*
X150820000Y-104660000D01*
%TO.N,/ETH_TX+*%
X151709999Y-104030000D02*
X152190000Y-104030000D01*
X150942458Y-104340000D02*
X150957458Y-104355000D01*
X146562500Y-104250000D02*
X147668751Y-104250000D01*
X150957458Y-104355000D02*
X151384999Y-104355000D01*
X147668751Y-104250000D02*
X147758751Y-104340000D01*
X151384999Y-104355000D02*
X151709999Y-104030000D01*
X147758751Y-104340000D02*
X150942458Y-104340000D01*
%TO.N,/ETH_RX+*%
X149945440Y-102820000D02*
X147738751Y-102820000D01*
X151275440Y-99390000D02*
X150520000Y-100145440D01*
X147668751Y-102750000D02*
X146562500Y-102750000D01*
X150520000Y-100145440D02*
X150520000Y-102245440D01*
X152819999Y-99390000D02*
X151275440Y-99390000D01*
X147738751Y-102820000D02*
X147668751Y-102750000D01*
X153590000Y-99100000D02*
X153109999Y-99100000D01*
X153109999Y-99100000D02*
X152819999Y-99390000D01*
X150520000Y-102245440D02*
X149945440Y-102820000D01*
X146587500Y-102775000D02*
X146562500Y-102750000D01*
X146562500Y-102750000D02*
X146562500Y-102701000D01*
%TO.N,/ETH_RX-*%
X146562500Y-103250000D02*
X146611500Y-103201000D01*
X150880000Y-102394560D02*
X150094560Y-103180000D01*
X147738751Y-103180000D02*
X147668751Y-103250000D01*
X150094560Y-103180000D02*
X147738751Y-103180000D01*
X153109999Y-100040000D02*
X152819999Y-99750000D01*
X152819999Y-99750000D02*
X151424560Y-99750000D01*
X147668751Y-103250000D02*
X146562500Y-103250000D01*
X153590000Y-100040000D02*
X153109999Y-100040000D01*
X151424560Y-99750000D02*
X150880000Y-100294560D01*
X147248970Y-103250000D02*
X146562500Y-103250000D01*
X150880000Y-100294560D02*
X150880000Y-102394560D01*
%TO.N,/ETX+*%
X162603726Y-107620000D02*
X163060000Y-107163726D01*
X158490000Y-104693726D02*
X158490000Y-107463726D01*
X162835790Y-106475790D02*
X162001040Y-106475790D01*
X154015001Y-104355000D02*
X158151274Y-104355000D01*
X153210000Y-104030000D02*
X153690001Y-104030000D01*
X158151274Y-104355000D02*
X158490000Y-104693726D01*
X163060000Y-106700000D02*
X162835790Y-106475790D01*
X153690001Y-104030000D02*
X154015001Y-104355000D01*
X153210000Y-104030000D02*
X153210000Y-102820000D01*
X158490000Y-107463726D02*
X158646274Y-107620000D01*
X163060000Y-107163726D02*
X163060000Y-106700000D01*
X158646274Y-107620000D02*
X162603726Y-107620000D01*
%TO.N,/ETX-*%
X158170000Y-107596274D02*
X158513726Y-107940000D01*
X153210000Y-105000000D02*
X153210000Y-104680001D01*
X158513726Y-107940000D02*
X162736274Y-107940000D01*
X153210000Y-105570000D02*
X152830000Y-105950000D01*
X162736274Y-107940000D02*
X163306274Y-107370000D01*
X158170000Y-104826274D02*
X158170000Y-107596274D01*
X158018726Y-104675000D02*
X158170000Y-104826274D01*
X153215001Y-104675000D02*
X158018726Y-104675000D01*
X164165250Y-107370000D02*
X164541040Y-107745790D01*
X163306274Y-107370000D02*
X164165250Y-107370000D01*
X153210000Y-104680001D02*
X153215001Y-104675000D01*
X153210000Y-105000000D02*
X153210000Y-105570000D01*
D70*
%TO.N,Net-(D2-A)*%
X155420000Y-83770000D02*
X155420000Y-86752500D01*
X155420000Y-86752500D02*
X155450000Y-86782500D01*
%TO.N,Net-(D3-A)*%
X159090000Y-83770000D02*
X159090000Y-86772500D01*
X159090000Y-86772500D02*
X159120000Y-86802500D01*
%TO.N,Net-(R43-Pad1)*%
X150390000Y-81130000D02*
X150070000Y-80810000D01*
D74*
X150910000Y-83230000D02*
X150390000Y-82710000D01*
D70*
X150390000Y-82710000D02*
X150390000Y-81130000D01*
D74*
X150910000Y-85755000D02*
X150910000Y-83230000D01*
%TD*%
%TA.AperFunction,Conductor*%
%TO.N,GND*%
G36*
X127152723Y-79303368D02*
G01*
X127153447Y-79304164D01*
X127940358Y-80254690D01*
X127943000Y-80262023D01*
X127943000Y-80305240D01*
X127954923Y-80365182D01*
X127954924Y-80365183D01*
X128000341Y-80433155D01*
X128000343Y-80433157D01*
X128068318Y-80478577D01*
X128128260Y-80490500D01*
X128128261Y-80490500D01*
X128130170Y-80490500D01*
X128138302Y-80493868D01*
X128139013Y-80494649D01*
X128157149Y-80516556D01*
X128159776Y-80524463D01*
X128150150Y-80716995D01*
X128146380Y-80724949D01*
X128138090Y-80727907D01*
X128136748Y-80727760D01*
X127704464Y-80654698D01*
X127701981Y-80653984D01*
X127630800Y-80624500D01*
X127526755Y-80624500D01*
X127524839Y-80624339D01*
X127440000Y-80610000D01*
X127439999Y-80610000D01*
X125921677Y-80610000D01*
X125913545Y-80606632D01*
X125910177Y-80598500D01*
X125910178Y-80598324D01*
X125911427Y-80516556D01*
X125929827Y-79311323D01*
X125933319Y-79303245D01*
X125941326Y-79300000D01*
X127144591Y-79300000D01*
X127152723Y-79303368D01*
G37*
%TD.AperFunction*%
%TD*%
%TA.AperFunction,Conductor*%
%TO.N,/VREG_LX*%
G36*
X125339869Y-79763368D02*
G01*
X125342636Y-79767832D01*
X125688474Y-80795466D01*
X125687876Y-80804247D01*
X125687861Y-80804277D01*
X125584979Y-81010040D01*
X125578330Y-81015807D01*
X125569884Y-81015343D01*
X124326583Y-80443030D01*
X124320605Y-80436570D01*
X124319893Y-80432753D01*
X124310172Y-79771669D01*
X124313421Y-79763489D01*
X124321502Y-79760001D01*
X124321671Y-79760000D01*
X125331737Y-79760000D01*
X125339869Y-79763368D01*
G37*
%TD.AperFunction*%
%TD*%
M02*
