%TF.GenerationSoftware,KiCad,Pcbnew,9.0.1*%
%TF.CreationDate,2026-01-12T23:01:10+01:00*%
%TF.ProjectId,GeT_Computer,4765545f-436f-46d7-9075-7465722e6b69,rev?*%
%TF.SameCoordinates,Original*%
%TF.FileFunction,Paste,Top*%
%TF.FilePolarity,Positive*%
%FSLAX46Y46*%
G04 Gerber Fmt 4.6, Leading zero omitted, Abs format (unit mm)*
G04 Created by KiCad (PCBNEW 9.0.1) date 2026-01-12 23:01:10*
%MOMM*%
%LPD*%
G01*
G04 APERTURE LIST*
G04 Aperture macros list*
%AMRoundRect*
0 Rectangle with rounded corners*
0 $1 Rounding radius*
0 $2 $3 $4 $5 $6 $7 $8 $9 X,Y pos of 4 corners*
0 Add a 4 corners polygon primitive as box body*
4,1,4,$2,$3,$4,$5,$6,$7,$8,$9,$2,$3,0*
0 Add four circle primitives for the rounded corners*
1,1,$1+$1,$2,$3*
1,1,$1+$1,$4,$5*
1,1,$1+$1,$6,$7*
1,1,$1+$1,$8,$9*
0 Add four rect primitives between the rounded corners*
20,1,$1+$1,$2,$3,$4,$5,0*
20,1,$1+$1,$4,$5,$6,$7,0*
20,1,$1+$1,$6,$7,$8,$9,0*
20,1,$1+$1,$8,$9,$2,$3,0*%
G04 Aperture macros list end*
%ADD10C,0.000000*%
%ADD11RoundRect,0.140000X-0.140000X-0.170000X0.140000X-0.170000X0.140000X0.170000X-0.140000X0.170000X0*%
%ADD12RoundRect,0.075000X0.662500X0.075000X-0.662500X0.075000X-0.662500X-0.075000X0.662500X-0.075000X0*%
%ADD13RoundRect,0.075000X0.075000X0.662500X-0.075000X0.662500X-0.075000X-0.662500X0.075000X-0.662500X0*%
%ADD14RoundRect,0.140000X0.170000X-0.140000X0.170000X0.140000X-0.170000X0.140000X-0.170000X-0.140000X0*%
%ADD15RoundRect,0.140000X-0.170000X0.140000X-0.170000X-0.140000X0.170000X-0.140000X0.170000X0.140000X0*%
%ADD16R,1.400000X1.200000*%
%ADD17RoundRect,0.250000X0.450000X-0.325000X0.450000X0.325000X-0.450000X0.325000X-0.450000X-0.325000X0*%
%ADD18RoundRect,0.250000X-0.450000X0.350000X-0.450000X-0.350000X0.450000X-0.350000X0.450000X0.350000X0*%
%ADD19RoundRect,0.140000X0.140000X0.170000X-0.140000X0.170000X-0.140000X-0.170000X0.140000X-0.170000X0*%
%ADD20RoundRect,0.250000X-0.350000X-0.450000X0.350000X-0.450000X0.350000X0.450000X-0.350000X0.450000X0*%
%ADD21RoundRect,0.250000X0.450000X-0.350000X0.450000X0.350000X-0.450000X0.350000X-0.450000X-0.350000X0*%
%ADD22RoundRect,0.135000X-0.135000X-0.185000X0.135000X-0.185000X0.135000X0.185000X-0.135000X0.185000X0*%
%ADD23R,1.350000X1.800000*%
%ADD24RoundRect,0.218750X-0.256250X0.218750X-0.256250X-0.218750X0.256250X-0.218750X0.256250X0.218750X0*%
%ADD25RoundRect,0.150000X0.675000X0.150000X-0.675000X0.150000X-0.675000X-0.150000X0.675000X-0.150000X0*%
%ADD26RoundRect,0.135000X-0.185000X0.135000X-0.185000X-0.135000X0.185000X-0.135000X0.185000X0.135000X0*%
%ADD27RoundRect,0.135000X0.185000X-0.135000X0.185000X0.135000X-0.185000X0.135000X-0.185000X-0.135000X0*%
%ADD28RoundRect,0.250000X0.475000X-0.250000X0.475000X0.250000X-0.475000X0.250000X-0.475000X-0.250000X0*%
%ADD29RoundRect,0.250000X0.475000X-0.337500X0.475000X0.337500X-0.475000X0.337500X-0.475000X-0.337500X0*%
%ADD30R,0.530000X0.470000*%
%ADD31R,1.700000X0.700000*%
%ADD32RoundRect,0.218750X0.256250X-0.218750X0.256250X0.218750X-0.256250X0.218750X-0.256250X-0.218750X0*%
%ADD33RoundRect,0.250000X0.350000X-0.350000X0.350000X0.350000X-0.350000X0.350000X-0.350000X-0.350000X0*%
%ADD34RoundRect,0.055000X0.055000X0.335000X-0.055000X0.335000X-0.055000X-0.335000X0.055000X-0.335000X0*%
%ADD35RoundRect,0.055000X0.335000X-0.055000X0.335000X0.055000X-0.335000X0.055000X-0.335000X-0.055000X0*%
%ADD36R,0.133333X0.133333*%
%ADD37RoundRect,0.375000X0.375000X-0.625000X0.375000X0.625000X-0.375000X0.625000X-0.375000X-0.625000X0*%
%ADD38RoundRect,0.500000X1.400000X-0.500000X1.400000X0.500000X-1.400000X0.500000X-1.400000X-0.500000X0*%
%ADD39RoundRect,0.250000X0.350000X0.450000X-0.350000X0.450000X-0.350000X-0.450000X0.350000X-0.450000X0*%
%ADD40R,1.000000X2.000000*%
%ADD41R,2.000000X1.000000*%
%ADD42R,1.800000X1.350000*%
%ADD43RoundRect,0.135000X0.135000X0.185000X-0.135000X0.185000X-0.135000X-0.185000X0.135000X-0.185000X0*%
%ADD44RoundRect,0.250000X-0.475000X0.337500X-0.475000X-0.337500X0.475000X-0.337500X0.475000X0.337500X0*%
%ADD45R,0.300000X1.300000*%
%ADD46R,0.850000X1.100000*%
%ADD47R,0.750000X1.100000*%
%ADD48R,1.200000X1.000000*%
%ADD49R,1.550000X1.350000*%
%ADD50R,1.900000X1.350000*%
%ADD51R,1.170000X1.800000*%
%ADD52RoundRect,0.250000X0.337500X0.475000X-0.337500X0.475000X-0.337500X-0.475000X0.337500X-0.475000X0*%
%ADD53RoundRect,0.218750X-0.218750X-0.256250X0.218750X-0.256250X0.218750X0.256250X-0.218750X0.256250X0*%
G04 APERTURE END LIST*
D10*
%TO.C,J1*%
G36*
X105810000Y-105846000D02*
G01*
X105510000Y-105846000D01*
X105510000Y-104546000D01*
X105810000Y-104546000D01*
X105810000Y-105846000D01*
G37*
G36*
X106310000Y-105846000D02*
G01*
X106010000Y-105846000D01*
X106010000Y-104546000D01*
X106310000Y-104546000D01*
X106310000Y-105846000D01*
G37*
G36*
X106810000Y-105846000D02*
G01*
X106510000Y-105846000D01*
X106510000Y-104546000D01*
X106810000Y-104546000D01*
X106810000Y-105846000D01*
G37*
G36*
X107310000Y-105846000D02*
G01*
X107010000Y-105846000D01*
X107010000Y-104546000D01*
X107310000Y-104546000D01*
X107310000Y-105846000D01*
G37*
G36*
X107810000Y-105846000D02*
G01*
X107510000Y-105846000D01*
X107510000Y-104546000D01*
X107810000Y-104546000D01*
X107810000Y-105846000D01*
G37*
G36*
X108310000Y-105846000D02*
G01*
X108010000Y-105846000D01*
X108010000Y-104546000D01*
X108310000Y-104546000D01*
X108310000Y-105846000D01*
G37*
G36*
X108809500Y-105846000D02*
G01*
X108509500Y-105846000D01*
X108509500Y-104546000D01*
X108809500Y-104546000D01*
X108809500Y-105846000D01*
G37*
G36*
X109310000Y-105846000D02*
G01*
X109010000Y-105846000D01*
X109010000Y-104546000D01*
X109310000Y-104546000D01*
X109310000Y-105846000D01*
G37*
G36*
X104510000Y-105846000D02*
G01*
X104210000Y-105846000D01*
X103910000Y-105846000D01*
X103910000Y-104546000D01*
X104210000Y-104546000D01*
X104510000Y-104546000D01*
X104510000Y-105846000D01*
G37*
G36*
X105310000Y-105846000D02*
G01*
X105010000Y-105846000D01*
X104710000Y-105846000D01*
X104710000Y-104546000D01*
X105010000Y-104546000D01*
X105310000Y-104546000D01*
X105310000Y-105846000D01*
G37*
G36*
X110110000Y-105845500D02*
G01*
X109810000Y-105845500D01*
X109510000Y-105845500D01*
X109510000Y-104546000D01*
X109810000Y-104546000D01*
X110110000Y-104546000D01*
X110110000Y-105845500D01*
G37*
G36*
X110910000Y-105845500D02*
G01*
X110610000Y-105845500D01*
X110310000Y-105845500D01*
X110310000Y-104546000D01*
X110610000Y-104546000D01*
X110910000Y-104546000D01*
X110910000Y-105845500D01*
G37*
G36*
X103129500Y-109246000D02*
G01*
X103159500Y-109249000D01*
X103189000Y-109253000D01*
X103218500Y-109259000D01*
X103247500Y-109266500D01*
X103276000Y-109275500D01*
X103304000Y-109285500D01*
X103331500Y-109297000D01*
X103358500Y-109310000D01*
X103385000Y-109324500D01*
X103410500Y-109340000D01*
X103435000Y-109357000D01*
X103459000Y-109375000D01*
X103482000Y-109394500D01*
X103504000Y-109414500D01*
X103524500Y-109436000D01*
X103544500Y-109458500D01*
X103563000Y-109482000D01*
X103580500Y-109506000D01*
X103597000Y-109531500D01*
X103612000Y-109557000D01*
X103625500Y-109584000D01*
X103638000Y-109611000D01*
X103648500Y-109639000D01*
X103658000Y-109667500D01*
X103666500Y-109696000D01*
X103673000Y-109725000D01*
X103678000Y-109754500D01*
X103682000Y-109784500D01*
X103684000Y-109814000D01*
X103685000Y-109844000D01*
X103685000Y-110444000D01*
X103684000Y-110474000D01*
X103682000Y-110504000D01*
X103678000Y-110533500D01*
X103673000Y-110563000D01*
X103666500Y-110592000D01*
X103658000Y-110621000D01*
X103648500Y-110649500D01*
X103638000Y-110677000D01*
X103625500Y-110704500D01*
X103612000Y-110731000D01*
X103597000Y-110757000D01*
X103580500Y-110782000D01*
X103563000Y-110806500D01*
X103544500Y-110830000D01*
X103524500Y-110852000D01*
X103504000Y-110873500D01*
X103482000Y-110894000D01*
X103459000Y-110913000D01*
X103435000Y-110931500D01*
X103410500Y-110948000D01*
X103385000Y-110963500D01*
X103358500Y-110978000D01*
X103331500Y-110991000D01*
X103304000Y-111002500D01*
X103276000Y-111013000D01*
X103247500Y-111021500D01*
X103218500Y-111029000D01*
X103189000Y-111035000D01*
X103159500Y-111039500D01*
X103129500Y-111042500D01*
X103100000Y-111044000D01*
X103070000Y-111044000D01*
X103040000Y-111042500D01*
X103010500Y-111039500D01*
X102980500Y-111035000D01*
X102951500Y-111029000D01*
X102922500Y-111021500D01*
X102894000Y-111013000D01*
X102865500Y-111002500D01*
X102838000Y-110991000D01*
X102811000Y-110978000D01*
X102785000Y-110963500D01*
X102759500Y-110948000D01*
X102734500Y-110931500D01*
X102711000Y-110913000D01*
X102688000Y-110894000D01*
X102666000Y-110873500D01*
X102645000Y-110852000D01*
X102625000Y-110830000D01*
X102606500Y-110806500D01*
X102589000Y-110782000D01*
X102573000Y-110757000D01*
X102558000Y-110731000D01*
X102544500Y-110704500D01*
X102532000Y-110677000D01*
X102521000Y-110649500D01*
X102511500Y-110621000D01*
X102503500Y-110592000D01*
X102497000Y-110563000D01*
X102491500Y-110533500D01*
X102488000Y-110504000D01*
X102485500Y-110474000D01*
X102485000Y-110444000D01*
X102485000Y-109844000D01*
X102485500Y-109814000D01*
X102488000Y-109784500D01*
X102491500Y-109754500D01*
X102497000Y-109725000D01*
X102503500Y-109696000D01*
X102511500Y-109667500D01*
X102521000Y-109639000D01*
X102532000Y-109611000D01*
X102544500Y-109584000D01*
X102558000Y-109557000D01*
X102573000Y-109531500D01*
X102589000Y-109506000D01*
X102606500Y-109482000D01*
X102625000Y-109458500D01*
X102645000Y-109436000D01*
X102666000Y-109414500D01*
X102688000Y-109394500D01*
X102711000Y-109375000D01*
X102734500Y-109357000D01*
X102759500Y-109340000D01*
X102785000Y-109324500D01*
X102811000Y-109310000D01*
X102838000Y-109297000D01*
X102865500Y-109285500D01*
X102894000Y-109275500D01*
X102922500Y-109266500D01*
X102951500Y-109259000D01*
X102980500Y-109253000D01*
X103010500Y-109249000D01*
X103040000Y-109246000D01*
X103070000Y-109244500D01*
X103100000Y-109244500D01*
X103129500Y-109246000D01*
G37*
G36*
X103129500Y-104966000D02*
G01*
X103159500Y-104969000D01*
X103189000Y-104973500D01*
X103218500Y-104979500D01*
X103247500Y-104986500D01*
X103276000Y-104995500D01*
X103304000Y-105005500D01*
X103331500Y-105017500D01*
X103358500Y-105030500D01*
X103385000Y-105044500D01*
X103410500Y-105060000D01*
X103435000Y-105077000D01*
X103459000Y-105095000D01*
X103482000Y-105114500D01*
X103504000Y-105134500D01*
X103524500Y-105156000D01*
X103544500Y-105178500D01*
X103563000Y-105202000D01*
X103580500Y-105226000D01*
X103597000Y-105251500D01*
X103612000Y-105277500D01*
X103625500Y-105304000D01*
X103638000Y-105331000D01*
X103648500Y-105359000D01*
X103658000Y-105387500D01*
X103666500Y-105416000D01*
X103673000Y-105445500D01*
X103678000Y-105475000D01*
X103682000Y-105504500D01*
X103684000Y-105534500D01*
X103685000Y-105564000D01*
X103685000Y-106364000D01*
X103684000Y-106394000D01*
X103682000Y-106424000D01*
X103678000Y-106453500D01*
X103673000Y-106483000D01*
X103666500Y-106512500D01*
X103658000Y-106541000D01*
X103648500Y-106569500D01*
X103638000Y-106597500D01*
X103625500Y-106624500D01*
X103612000Y-106651000D01*
X103597000Y-106677000D01*
X103580500Y-106702000D01*
X103563000Y-106726500D01*
X103544500Y-106750000D01*
X103524500Y-106772500D01*
X103504000Y-106793500D01*
X103482000Y-106814000D01*
X103459000Y-106833500D01*
X103435000Y-106851500D01*
X103410500Y-106868000D01*
X103385000Y-106884000D01*
X103358500Y-106898000D01*
X103331500Y-106911000D01*
X103304000Y-106922500D01*
X103276000Y-106933000D01*
X103247500Y-106942000D01*
X103218500Y-106949000D01*
X103189000Y-106955000D01*
X103159500Y-106959500D01*
X103129500Y-106962500D01*
X103100000Y-106964000D01*
X103070000Y-106964000D01*
X103040000Y-106962500D01*
X103010500Y-106959500D01*
X102980500Y-106955000D01*
X102951500Y-106949000D01*
X102922500Y-106942000D01*
X102894000Y-106933000D01*
X102865500Y-106922500D01*
X102838000Y-106911000D01*
X102811000Y-106898000D01*
X102785000Y-106884000D01*
X102759500Y-106868000D01*
X102734500Y-106851500D01*
X102711000Y-106833500D01*
X102688000Y-106814000D01*
X102666000Y-106793500D01*
X102645000Y-106772500D01*
X102625000Y-106750000D01*
X102606500Y-106726500D01*
X102589000Y-106702000D01*
X102573000Y-106677000D01*
X102558000Y-106651000D01*
X102544500Y-106624500D01*
X102532000Y-106597500D01*
X102521000Y-106569500D01*
X102511500Y-106541000D01*
X102503500Y-106512500D01*
X102497000Y-106483000D01*
X102491500Y-106453500D01*
X102488000Y-106424000D01*
X102485500Y-106394000D01*
X102485000Y-106364000D01*
X102485000Y-105564000D01*
X102485500Y-105534500D01*
X102488000Y-105504500D01*
X102491500Y-105475000D01*
X102497000Y-105445500D01*
X102503500Y-105416000D01*
X102511500Y-105387500D01*
X102521000Y-105359000D01*
X102532000Y-105331000D01*
X102544500Y-105304000D01*
X102558000Y-105277500D01*
X102573000Y-105251500D01*
X102589000Y-105226000D01*
X102606500Y-105202000D01*
X102625000Y-105178500D01*
X102645000Y-105156000D01*
X102666000Y-105134500D01*
X102688000Y-105114500D01*
X102711000Y-105095000D01*
X102734500Y-105077000D01*
X102759500Y-105060000D01*
X102785000Y-105044500D01*
X102811000Y-105030500D01*
X102838000Y-105017500D01*
X102865500Y-105005500D01*
X102894000Y-104995500D01*
X102922500Y-104986500D01*
X102951500Y-104979500D01*
X102980500Y-104973500D01*
X103010500Y-104969000D01*
X103040000Y-104966000D01*
X103070000Y-104964500D01*
X103100000Y-104964500D01*
X103129500Y-104966000D01*
G37*
G36*
X111780000Y-104966000D02*
G01*
X111809500Y-104969000D01*
X111839500Y-104973500D01*
X111868500Y-104979500D01*
X111897500Y-104986500D01*
X111926000Y-104995500D01*
X111954500Y-105005500D01*
X111982000Y-105017500D01*
X112009000Y-105030500D01*
X112035000Y-105044500D01*
X112060500Y-105060000D01*
X112085500Y-105077000D01*
X112109000Y-105095000D01*
X112132000Y-105114500D01*
X112154000Y-105134500D01*
X112175000Y-105156000D01*
X112195000Y-105178500D01*
X112213500Y-105202000D01*
X112231000Y-105226000D01*
X112247000Y-105251500D01*
X112262000Y-105277500D01*
X112275500Y-105304000D01*
X112288000Y-105331000D01*
X112299000Y-105359000D01*
X112308500Y-105387500D01*
X112316500Y-105416000D01*
X112323000Y-105445500D01*
X112328500Y-105475000D01*
X112332000Y-105504500D01*
X112334500Y-105534500D01*
X112335000Y-105564000D01*
X112335000Y-106364000D01*
X112334500Y-106394000D01*
X112332000Y-106424000D01*
X112328500Y-106453500D01*
X112323000Y-106483000D01*
X112316500Y-106512500D01*
X112308500Y-106541000D01*
X112299000Y-106569500D01*
X112288000Y-106597500D01*
X112275500Y-106624500D01*
X112262000Y-106651000D01*
X112247000Y-106677000D01*
X112231000Y-106702000D01*
X112213500Y-106726500D01*
X112195000Y-106750000D01*
X112175000Y-106772500D01*
X112154000Y-106793500D01*
X112132000Y-106814000D01*
X112109000Y-106833500D01*
X112085500Y-106851500D01*
X112060500Y-106868000D01*
X112035000Y-106884000D01*
X112009000Y-106898000D01*
X111982000Y-106911000D01*
X111954500Y-106922500D01*
X111926000Y-106933000D01*
X111897500Y-106942000D01*
X111868500Y-106949000D01*
X111839500Y-106955000D01*
X111809500Y-106959500D01*
X111780000Y-106962500D01*
X111750000Y-106964000D01*
X111720000Y-106964000D01*
X111690500Y-106962500D01*
X111660500Y-106959500D01*
X111631000Y-106955000D01*
X111601500Y-106949000D01*
X111572500Y-106942000D01*
X111544000Y-106933000D01*
X111516000Y-106922500D01*
X111488500Y-106911000D01*
X111461500Y-106898000D01*
X111435000Y-106884000D01*
X111409500Y-106868000D01*
X111385000Y-106851500D01*
X111361000Y-106833500D01*
X111338000Y-106814000D01*
X111316000Y-106793500D01*
X111295500Y-106772500D01*
X111275500Y-106750000D01*
X111257000Y-106726500D01*
X111239500Y-106702000D01*
X111223000Y-106677000D01*
X111208000Y-106651000D01*
X111194500Y-106624500D01*
X111182000Y-106597500D01*
X111171500Y-106569500D01*
X111162000Y-106541000D01*
X111153500Y-106512500D01*
X111147000Y-106483000D01*
X111142000Y-106453500D01*
X111138000Y-106424000D01*
X111136000Y-106394000D01*
X111135000Y-106364000D01*
X111135000Y-105564000D01*
X111136000Y-105534500D01*
X111138000Y-105504500D01*
X111142000Y-105475000D01*
X111147000Y-105445500D01*
X111153500Y-105416000D01*
X111162000Y-105387500D01*
X111171500Y-105359000D01*
X111182000Y-105331000D01*
X111194500Y-105304000D01*
X111208000Y-105277500D01*
X111223000Y-105251500D01*
X111239500Y-105226000D01*
X111257000Y-105202000D01*
X111275500Y-105178500D01*
X111295500Y-105156000D01*
X111316000Y-105134500D01*
X111338000Y-105114500D01*
X111361000Y-105095000D01*
X111385000Y-105077000D01*
X111409500Y-105060000D01*
X111435000Y-105044500D01*
X111461500Y-105030500D01*
X111488500Y-105017500D01*
X111516000Y-105005500D01*
X111544000Y-104995500D01*
X111572500Y-104986500D01*
X111601500Y-104979500D01*
X111631000Y-104973500D01*
X111660500Y-104969000D01*
X111690500Y-104966000D01*
X111720000Y-104964500D01*
X111750000Y-104964500D01*
X111780000Y-104966000D01*
G37*
G36*
X111780000Y-109246000D02*
G01*
X111809500Y-109249000D01*
X111839500Y-109253000D01*
X111868500Y-109259000D01*
X111897500Y-109266500D01*
X111926000Y-109275500D01*
X111954500Y-109285500D01*
X111982000Y-109297000D01*
X112009000Y-109310000D01*
X112035000Y-109324500D01*
X112060500Y-109340000D01*
X112085500Y-109357000D01*
X112109000Y-109375000D01*
X112132000Y-109394500D01*
X112154000Y-109414500D01*
X112175000Y-109436000D01*
X112195000Y-109458500D01*
X112213500Y-109482000D01*
X112231000Y-109506000D01*
X112247000Y-109531500D01*
X112262000Y-109557000D01*
X112275500Y-109584000D01*
X112288000Y-109611000D01*
X112299000Y-109639000D01*
X112308500Y-109667500D01*
X112316500Y-109696000D01*
X112323000Y-109725000D01*
X112328500Y-109754500D01*
X112332000Y-109784500D01*
X112334500Y-109814000D01*
X112335000Y-109844000D01*
X112335000Y-110444000D01*
X112334500Y-110474000D01*
X112332000Y-110504000D01*
X112328500Y-110533500D01*
X112323000Y-110563000D01*
X112316500Y-110592000D01*
X112308500Y-110621000D01*
X112299000Y-110649500D01*
X112288000Y-110677000D01*
X112275500Y-110704500D01*
X112262000Y-110731000D01*
X112247000Y-110757000D01*
X112231000Y-110782000D01*
X112213500Y-110806500D01*
X112195000Y-110830000D01*
X112175000Y-110852000D01*
X112154000Y-110873500D01*
X112132000Y-110894000D01*
X112109000Y-110913000D01*
X112085500Y-110931500D01*
X112060500Y-110948000D01*
X112035000Y-110963500D01*
X112009000Y-110978000D01*
X111982000Y-110991000D01*
X111954500Y-111002500D01*
X111926000Y-111013000D01*
X111897500Y-111021500D01*
X111868500Y-111029000D01*
X111839500Y-111035000D01*
X111809500Y-111039500D01*
X111780000Y-111042500D01*
X111750000Y-111044000D01*
X111720000Y-111044000D01*
X111690500Y-111042500D01*
X111660500Y-111039500D01*
X111631000Y-111035000D01*
X111601500Y-111029000D01*
X111572500Y-111021500D01*
X111544000Y-111013000D01*
X111516000Y-111002500D01*
X111488500Y-110991000D01*
X111461500Y-110978000D01*
X111435000Y-110963500D01*
X111409500Y-110948000D01*
X111385000Y-110931500D01*
X111361000Y-110913000D01*
X111338000Y-110894000D01*
X111316000Y-110873500D01*
X111295500Y-110852000D01*
X111275500Y-110830000D01*
X111257000Y-110806500D01*
X111239500Y-110782000D01*
X111223000Y-110757000D01*
X111208000Y-110731000D01*
X111194500Y-110704500D01*
X111182000Y-110677000D01*
X111171500Y-110649500D01*
X111162000Y-110621000D01*
X111153500Y-110592000D01*
X111147000Y-110563000D01*
X111142000Y-110533500D01*
X111138000Y-110504000D01*
X111136000Y-110474000D01*
X111135000Y-110444000D01*
X111135000Y-109844000D01*
X111136000Y-109814000D01*
X111138000Y-109784500D01*
X111142000Y-109754500D01*
X111147000Y-109725000D01*
X111153500Y-109696000D01*
X111162000Y-109667500D01*
X111171500Y-109639000D01*
X111182000Y-109611000D01*
X111194500Y-109584000D01*
X111208000Y-109557000D01*
X111223000Y-109531500D01*
X111239500Y-109506000D01*
X111257000Y-109482000D01*
X111275500Y-109458500D01*
X111295500Y-109436000D01*
X111316000Y-109414500D01*
X111338000Y-109394500D01*
X111361000Y-109375000D01*
X111385000Y-109357000D01*
X111409500Y-109340000D01*
X111435000Y-109324500D01*
X111461500Y-109310000D01*
X111488500Y-109297000D01*
X111516000Y-109285500D01*
X111544000Y-109275500D01*
X111572500Y-109266500D01*
X111601500Y-109259000D01*
X111631000Y-109253000D01*
X111660500Y-109249000D01*
X111690500Y-109246000D01*
X111720000Y-109244500D01*
X111750000Y-109244500D01*
X111780000Y-109246000D01*
G37*
%TD*%
D11*
%TO.C,C43*%
X140880000Y-82960000D03*
X139920000Y-82960000D03*
%TD*%
D12*
%TO.C,U5*%
X146562500Y-105250000D03*
X146562500Y-104750000D03*
X146562500Y-104250000D03*
X146562500Y-103750000D03*
X146562500Y-103250000D03*
X146562500Y-102750000D03*
X146562500Y-102250000D03*
X146562500Y-101750000D03*
X146562500Y-101250000D03*
X146562500Y-100750000D03*
X146562500Y-100250000D03*
X146562500Y-99750000D03*
D13*
X145150000Y-98337500D03*
X144650000Y-98337500D03*
X144150000Y-98337500D03*
X143650000Y-98337500D03*
X143150000Y-98337500D03*
X142650000Y-98337500D03*
X142150000Y-98337500D03*
X141650000Y-98337500D03*
X141150000Y-98337500D03*
X140650000Y-98337500D03*
X140150000Y-98337500D03*
X139650000Y-98337500D03*
D12*
X138237500Y-99750000D03*
X138237500Y-100250000D03*
X138237500Y-100750000D03*
X138237500Y-101250000D03*
X138237500Y-101750000D03*
X138237500Y-102250000D03*
X138237500Y-102750000D03*
X138237500Y-103250000D03*
X138237500Y-103750000D03*
X138237500Y-104250000D03*
X138237500Y-104750000D03*
X138237500Y-105250000D03*
D13*
X139650000Y-106662500D03*
X140150000Y-106662500D03*
X140650000Y-106662500D03*
X141150000Y-106662500D03*
X141650000Y-106662500D03*
X142150000Y-106662500D03*
X142650000Y-106662500D03*
X143150000Y-106662500D03*
X143650000Y-106662500D03*
X144150000Y-106662500D03*
X144650000Y-106662500D03*
X145150000Y-106662500D03*
%TD*%
D14*
%TO.C,C39*%
X145210000Y-96830000D03*
X145210000Y-95870000D03*
%TD*%
D11*
%TO.C,C18*%
X148670000Y-102080000D03*
X149630000Y-102080000D03*
%TD*%
D15*
%TO.C,C42*%
X133180000Y-90050000D03*
X133180000Y-91010000D03*
%TD*%
D14*
%TO.C,C17*%
X144110000Y-96830000D03*
X144110000Y-95870000D03*
%TD*%
D16*
%TO.C,Y1*%
X143335349Y-83705608D03*
X145535349Y-83705608D03*
X145535349Y-82005608D03*
X143335349Y-82005608D03*
%TD*%
D17*
%TO.C,D3*%
X159120000Y-88852500D03*
X159120000Y-86802500D03*
%TD*%
D18*
%TO.C,R9*%
X97030000Y-103850000D03*
X97030000Y-105850000D03*
%TD*%
D11*
%TO.C,C27*%
X139400000Y-86630000D03*
X140360000Y-86630000D03*
%TD*%
D17*
%TO.C,D2*%
X155450000Y-88832500D03*
X155450000Y-86782500D03*
%TD*%
D19*
%TO.C,C10*%
X156220000Y-105440000D03*
X155260000Y-105440000D03*
%TD*%
D20*
%TO.C,R8*%
X154300000Y-67900000D03*
X156300000Y-67900000D03*
%TD*%
%TO.C,R22*%
X138870000Y-72910000D03*
X140870000Y-72910000D03*
%TD*%
D21*
%TO.C,R43*%
X150070000Y-80810000D03*
X150070000Y-78810000D03*
%TD*%
D22*
%TO.C,R38*%
X154730000Y-94020000D03*
X155750000Y-94020000D03*
%TD*%
D11*
%TO.C,C12*%
X155450000Y-103020000D03*
X156410000Y-103020000D03*
%TD*%
D23*
%TO.C,S2*%
X104845000Y-87960000D03*
X100695000Y-87960000D03*
%TD*%
D21*
%TO.C,R26*%
X113400000Y-80200000D03*
X113400000Y-78200000D03*
%TD*%
%TO.C,R46*%
X159090000Y-83770000D03*
X159090000Y-81770000D03*
%TD*%
D24*
%TO.C,L3*%
X144220000Y-109092500D03*
X144220000Y-110667500D03*
%TD*%
D25*
%TO.C,U3*%
X122735493Y-88620894D03*
X122735493Y-87350894D03*
X122735493Y-86080894D03*
X122735493Y-84810894D03*
X117485493Y-84810894D03*
X117485493Y-86080894D03*
X117485493Y-87350894D03*
X117485493Y-88620894D03*
%TD*%
D26*
%TO.C,R24*%
X119190000Y-90580000D03*
X119190000Y-91600000D03*
%TD*%
D21*
%TO.C,R5*%
X130610000Y-98500000D03*
X130610000Y-96500000D03*
%TD*%
D22*
%TO.C,R33*%
X153590000Y-100040000D03*
X154610000Y-100040000D03*
%TD*%
D20*
%TO.C,R7*%
X158900000Y-67900000D03*
X160900000Y-67900000D03*
%TD*%
D27*
%TO.C,R25*%
X124820493Y-89695894D03*
X124820493Y-88675894D03*
%TD*%
D19*
%TO.C,C24*%
X126390000Y-84210000D03*
X125430000Y-84210000D03*
%TD*%
D28*
%TO.C,C36*%
X140400000Y-111050000D03*
X140400000Y-109150000D03*
%TD*%
D14*
%TO.C,C15*%
X139600000Y-96580000D03*
X139600000Y-95620000D03*
%TD*%
D29*
%TO.C,C2*%
X106900000Y-101377500D03*
X106900000Y-99302500D03*
%TD*%
D21*
%TO.C,R45*%
X155420000Y-83770000D03*
X155420000Y-81770000D03*
%TD*%
D14*
%TO.C,C21*%
X137280000Y-77980000D03*
X137280000Y-77020000D03*
%TD*%
D15*
%TO.C,C8*%
X141830000Y-84460000D03*
X141830000Y-85420000D03*
%TD*%
D30*
%TO.C,C6*%
X127180000Y-81415000D03*
X127180000Y-80385000D03*
%TD*%
D22*
%TO.C,R34*%
X154590000Y-101300000D03*
X155610000Y-101300000D03*
%TD*%
%TO.C,R30*%
X152190000Y-104030000D03*
X153210000Y-104030000D03*
%TD*%
%TO.C,R17*%
X119590000Y-82390000D03*
X120610000Y-82390000D03*
%TD*%
D20*
%TO.C,R13*%
X154300000Y-74300000D03*
X156300000Y-74300000D03*
%TD*%
D31*
%TO.C,L1*%
X124500000Y-81500000D03*
X124500000Y-80100000D03*
%TD*%
D17*
%TO.C,D1*%
X95100000Y-105862500D03*
X95100000Y-103812500D03*
%TD*%
D22*
%TO.C,R37*%
X152830000Y-105950000D03*
X153850000Y-105950000D03*
%TD*%
D23*
%TO.C,S1*%
X104825000Y-91630000D03*
X100675000Y-91630000D03*
%TD*%
D11*
%TO.C,C32*%
X107490000Y-64930000D03*
X108450000Y-64930000D03*
%TD*%
D15*
%TO.C,C29*%
X115850000Y-88670000D03*
X115850000Y-89630000D03*
%TD*%
D32*
%TO.C,L4*%
X142400000Y-110687500D03*
X142400000Y-109112500D03*
%TD*%
D20*
%TO.C,R12*%
X154300000Y-72100000D03*
X156300000Y-72100000D03*
%TD*%
D19*
%TO.C,C16*%
X136480000Y-105200000D03*
X135520000Y-105200000D03*
%TD*%
D20*
%TO.C,R44*%
X150390000Y-82710000D03*
X152390000Y-82710000D03*
%TD*%
D11*
%TO.C,C41*%
X102420000Y-103600000D03*
X103380000Y-103600000D03*
%TD*%
%TO.C,C11*%
X156680000Y-97770000D03*
X157640000Y-97770000D03*
%TD*%
D22*
%TO.C,R40*%
X149770000Y-108080000D03*
X150790000Y-108080000D03*
%TD*%
D11*
%TO.C,C35*%
X148300000Y-103740000D03*
X149260000Y-103740000D03*
%TD*%
D15*
%TO.C,C20*%
X135090000Y-90010000D03*
X135090000Y-90970000D03*
%TD*%
D33*
%TO.C,U4*%
X132680000Y-84730000D03*
X134080000Y-84730000D03*
X132680000Y-83330000D03*
X134080000Y-83330000D03*
D34*
X129580000Y-88926500D03*
X129980000Y-88926500D03*
X130380000Y-88926500D03*
X130780000Y-88926500D03*
X131180000Y-88926500D03*
X131580000Y-88926500D03*
X131980000Y-88926500D03*
X132380000Y-88926500D03*
X132780000Y-88926500D03*
X133180000Y-88926500D03*
X133580000Y-88926500D03*
X133980000Y-88926500D03*
X134380000Y-88926500D03*
X134780000Y-88926500D03*
X135180000Y-88926500D03*
X135580000Y-88926500D03*
X135980000Y-88926500D03*
X136380000Y-88926500D03*
X136780000Y-88926500D03*
X137180000Y-88926500D03*
D35*
X138276500Y-87830000D03*
X138276500Y-87430000D03*
X138276500Y-87030000D03*
X138276500Y-86630000D03*
X138276500Y-86230000D03*
X138276500Y-85830000D03*
X138276500Y-85430000D03*
X138276500Y-85030000D03*
X138276500Y-84630000D03*
X138276500Y-84230000D03*
X138276500Y-83830000D03*
X138276500Y-83430000D03*
X138276500Y-83030000D03*
X138276500Y-82630000D03*
X138276500Y-82230000D03*
X138276500Y-81830000D03*
X138276500Y-81430000D03*
X138276500Y-81030000D03*
X138276500Y-80630000D03*
X138276500Y-80230000D03*
D34*
X137180000Y-79133500D03*
X136780000Y-79133500D03*
X136380000Y-79133500D03*
X135980000Y-79133500D03*
X135580000Y-79133500D03*
X135180000Y-79133500D03*
X134780000Y-79133500D03*
X134380000Y-79133500D03*
X133980000Y-79133500D03*
X133580000Y-79133500D03*
X133180000Y-79133500D03*
X132780000Y-79133500D03*
X132380000Y-79133500D03*
X131980000Y-79133500D03*
X131580000Y-79133500D03*
X131180000Y-79133500D03*
X130780000Y-79133500D03*
X130380000Y-79133500D03*
X129980000Y-79133500D03*
X129580000Y-79133500D03*
D35*
X128483500Y-80230000D03*
X128483500Y-80630000D03*
X128483500Y-81030000D03*
X128483500Y-81430000D03*
X128483500Y-81830000D03*
X128483500Y-82230000D03*
X128483500Y-82630000D03*
X128483500Y-83030000D03*
X128483500Y-83430000D03*
X128483500Y-83830000D03*
X128483500Y-84230000D03*
X128483500Y-84630000D03*
X128483500Y-85030000D03*
X128483500Y-85430000D03*
X128483500Y-85830000D03*
X128483500Y-86230000D03*
X128483500Y-86630000D03*
X128483500Y-87030000D03*
X128483500Y-87430000D03*
X128483500Y-87830000D03*
D36*
X132246667Y-85163333D03*
X133380000Y-85163333D03*
X134513333Y-85163333D03*
X132246667Y-84030000D03*
X133380000Y-84030000D03*
X134513333Y-84030000D03*
X132246667Y-82896667D03*
X133380000Y-82896667D03*
X134513333Y-82896667D03*
%TD*%
D22*
%TO.C,R41*%
X148640000Y-101150000D03*
X149660000Y-101150000D03*
%TD*%
D14*
%TO.C,C44*%
X132880000Y-78010000D03*
X132880000Y-77050000D03*
%TD*%
D22*
%TO.C,R28*%
X152190000Y-105000000D03*
X153210000Y-105000000D03*
%TD*%
D37*
%TO.C,U1*%
X100000000Y-101650000D03*
X102300000Y-101650000D03*
D38*
X102300000Y-95350000D03*
D37*
X104600000Y-101650000D03*
%TD*%
D20*
%TO.C,R10*%
X154300000Y-70100000D03*
X156300000Y-70100000D03*
%TD*%
D11*
%TO.C,C31*%
X112410000Y-69350000D03*
X113370000Y-69350000D03*
%TD*%
D39*
%TO.C,R21*%
X107440000Y-83230000D03*
X105440000Y-83230000D03*
%TD*%
D20*
%TO.C,R23*%
X142630000Y-75010000D03*
X144630000Y-75010000D03*
%TD*%
D40*
%TO.C,U2*%
X99580000Y-80520000D03*
X101080000Y-80520000D03*
X102580000Y-80520000D03*
X104080000Y-80520000D03*
X105580000Y-80520000D03*
X107080000Y-80520000D03*
X108580000Y-80520000D03*
D41*
X109880000Y-78270000D03*
X109880000Y-76770000D03*
X109880000Y-75270000D03*
X109880000Y-73770000D03*
X109880000Y-72270000D03*
X109880000Y-70770000D03*
X109880000Y-69270000D03*
D40*
X108580000Y-67020000D03*
X107080000Y-67020000D03*
X105580000Y-67020000D03*
X104080000Y-67020000D03*
X102580000Y-67020000D03*
X101080000Y-67020000D03*
X99580000Y-67020000D03*
%TD*%
D22*
%TO.C,R39*%
X148010000Y-98710000D03*
X149030000Y-98710000D03*
%TD*%
D42*
%TO.C,S3*%
X150910000Y-89905000D03*
X150910000Y-85755000D03*
%TD*%
D27*
%TO.C,R27*%
X100600000Y-85720000D03*
X100600000Y-84700000D03*
%TD*%
D20*
%TO.C,R18*%
X142620000Y-72910000D03*
X144620000Y-72910000D03*
%TD*%
%TO.C,R14*%
X158900000Y-76300000D03*
X160900000Y-76300000D03*
%TD*%
D19*
%TO.C,C28*%
X127380000Y-86890000D03*
X126420000Y-86890000D03*
%TD*%
D22*
%TO.C,R20*%
X119590000Y-81430000D03*
X120610000Y-81430000D03*
%TD*%
D19*
%TO.C,C13*%
X147990000Y-97550000D03*
X147030000Y-97550000D03*
%TD*%
D22*
%TO.C,R31*%
X153590000Y-99100000D03*
X154610000Y-99100000D03*
%TD*%
D20*
%TO.C,R6*%
X154300000Y-65900000D03*
X156300000Y-65900000D03*
%TD*%
D27*
%TO.C,R32*%
X141850000Y-82700000D03*
X141850000Y-81680000D03*
%TD*%
D43*
%TO.C,R42*%
X149650000Y-100170000D03*
X148630000Y-100170000D03*
%TD*%
D44*
%TO.C,C3*%
X97620000Y-99982500D03*
X97620000Y-102057500D03*
%TD*%
D22*
%TO.C,R16*%
X124470000Y-78230000D03*
X125490000Y-78230000D03*
%TD*%
D20*
%TO.C,R19*%
X146380000Y-75010000D03*
X148380000Y-75010000D03*
%TD*%
D16*
%TO.C,Y2*%
X148640000Y-95790000D03*
X150840000Y-95790000D03*
X150840000Y-94090000D03*
X148640000Y-94090000D03*
%TD*%
D20*
%TO.C,R11*%
X158900000Y-72100000D03*
X160900000Y-72100000D03*
%TD*%
D14*
%TO.C,C9*%
X143440000Y-80290000D03*
X143440000Y-79330000D03*
%TD*%
D21*
%TO.C,R3*%
X126690000Y-98500000D03*
X126690000Y-96500000D03*
%TD*%
D45*
%TO.C,J1*%
X104060000Y-105196000D03*
X104860000Y-105196000D03*
X106160000Y-105196000D03*
X107160000Y-105196000D03*
X107660000Y-105196000D03*
X108659500Y-105196000D03*
X109960000Y-105196000D03*
X110760000Y-105196000D03*
X110460000Y-105196000D03*
X109660000Y-105196000D03*
X109160000Y-105196000D03*
X108160000Y-105196000D03*
X106660000Y-105196000D03*
X105660000Y-105196000D03*
X105160000Y-105196000D03*
X104360000Y-105196000D03*
%TD*%
D27*
%TO.C,R29*%
X147110000Y-109880000D03*
X147110000Y-108860000D03*
%TD*%
D11*
%TO.C,C14*%
X149170000Y-97580000D03*
X150130000Y-97580000D03*
%TD*%
D21*
%TO.C,R1*%
X120840000Y-98500000D03*
X120840000Y-96500000D03*
%TD*%
D11*
%TO.C,C5*%
X126400000Y-78230000D03*
X127360000Y-78230000D03*
%TD*%
D14*
%TO.C,C23*%
X128979000Y-77710000D03*
X128979000Y-76750000D03*
%TD*%
%TO.C,C22*%
X133880000Y-78010000D03*
X133880000Y-77050000D03*
%TD*%
D30*
%TO.C,C7*%
X126180000Y-81415000D03*
X126180000Y-80385000D03*
%TD*%
D20*
%TO.C,R15*%
X154300000Y-76300000D03*
X156300000Y-76300000D03*
%TD*%
D22*
%TO.C,R35*%
X154590000Y-97800000D03*
X155610000Y-97800000D03*
%TD*%
D46*
%TO.C,J3*%
X128465000Y-111940000D03*
X127365000Y-111940000D03*
X126265000Y-111940000D03*
X125165000Y-111940000D03*
X124065000Y-111940000D03*
X122965000Y-111940000D03*
X121865000Y-111940000D03*
D47*
X120815000Y-111940000D03*
D48*
X131100000Y-105790000D03*
X131100000Y-102090000D03*
D49*
X130925000Y-111815000D03*
D50*
X127600000Y-101115000D03*
X121630000Y-101115000D03*
D51*
X119605000Y-111590000D03*
%TD*%
D21*
%TO.C,R2*%
X122780000Y-98500000D03*
X122780000Y-96500000D03*
%TD*%
D11*
%TO.C,C30*%
X139400000Y-84630000D03*
X140360000Y-84630000D03*
%TD*%
%TO.C,C40*%
X136980000Y-108540000D03*
X137940000Y-108540000D03*
%TD*%
D19*
%TO.C,C33*%
X126390000Y-83290000D03*
X125430000Y-83290000D03*
%TD*%
D21*
%TO.C,R4*%
X128650000Y-98500000D03*
X128650000Y-96500000D03*
%TD*%
D29*
%TO.C,C1*%
X124740000Y-98537500D03*
X124740000Y-96462500D03*
%TD*%
D14*
%TO.C,C37*%
X140700000Y-96580000D03*
X140700000Y-95620000D03*
%TD*%
D19*
%TO.C,C38*%
X136480000Y-102800000D03*
X135520000Y-102800000D03*
%TD*%
D29*
%TO.C,C34*%
X152240000Y-80827500D03*
X152240000Y-78752500D03*
%TD*%
D52*
%TO.C,C4*%
X100937500Y-104000000D03*
X98862500Y-104000000D03*
%TD*%
D53*
%TO.C,L2*%
X141892500Y-94080000D03*
X143467500Y-94080000D03*
%TD*%
D15*
%TO.C,C19*%
X131180000Y-90050000D03*
X131180000Y-91010000D03*
%TD*%
D14*
%TO.C,C25*%
X129979000Y-77710000D03*
X129979000Y-76750000D03*
%TD*%
D22*
%TO.C,R36*%
X153210000Y-103040000D03*
X154230000Y-103040000D03*
%TD*%
M02*
