%TF.GenerationSoftware,KiCad,Pcbnew,9.0.1*%
%TF.CreationDate,2026-01-12T23:01:10+01:00*%
%TF.ProjectId,GeT_Computer,4765545f-436f-46d7-9075-7465722e6b69,rev?*%
%TF.SameCoordinates,Original*%
%TF.FileFunction,Profile,NP*%
%FSLAX46Y46*%
G04 Gerber Fmt 4.6, Leading zero omitted, Abs format (unit mm)*
G04 Created by KiCad (PCBNEW 9.0.1) date 2026-01-12 23:01:10*
%MOMM*%
%LPD*%
G01*
G04 APERTURE LIST*
%TA.AperFunction,Profile*%
%ADD10C,0.050000*%
%TD*%
%TA.AperFunction,Profile*%
%ADD11C,0.000000*%
%TD*%
G04 APERTURE END LIST*
D10*
X93500000Y-110500000D02*
X93500000Y-60500000D01*
X93500000Y-60500000D02*
G75*
G02*
X96500000Y-57500000I3000000J0D01*
G01*
X175500000Y-57500000D02*
G75*
G02*
X178500000Y-60500000I0J-3000000D01*
G01*
X175500000Y-113500000D02*
X96500000Y-113500000D01*
X96500000Y-57500000D02*
X175500000Y-57500000D01*
X96500000Y-113500000D02*
G75*
G02*
X93500000Y-110500000I0J3000000D01*
G01*
X178500000Y-110500000D02*
G75*
G02*
X175500000Y-113500000I-3000000J0D01*
G01*
X178500000Y-60500000D02*
X178500000Y-110500000D01*
D11*
%TA.AperFunction,Profile*%
%TO.C,J1*%
G36*
X104653506Y-106118045D02*
G01*
X104738286Y-106166992D01*
X104807508Y-106236214D01*
X104856455Y-106320994D01*
X104881792Y-106415553D01*
X104881792Y-106513447D01*
X104856455Y-106608006D01*
X104807508Y-106692786D01*
X104738286Y-106762008D01*
X104653506Y-106810955D01*
X104558947Y-106836292D01*
X104461053Y-106836292D01*
X104366494Y-106810955D01*
X104281714Y-106762008D01*
X104212492Y-106692786D01*
X104163545Y-106608006D01*
X104138208Y-106513447D01*
X104138208Y-106415553D01*
X104163545Y-106320994D01*
X104212492Y-106236214D01*
X104281714Y-106166992D01*
X104366494Y-106118045D01*
X104461053Y-106092708D01*
X104558947Y-106092708D01*
X104653506Y-106118045D01*
G37*
%TD.AperFunction*%
%TA.AperFunction,Profile*%
G36*
X110453506Y-106118045D02*
G01*
X110538286Y-106166992D01*
X110607508Y-106236214D01*
X110656455Y-106320994D01*
X110681792Y-106415553D01*
X110681792Y-106513447D01*
X110656455Y-106608006D01*
X110607508Y-106692786D01*
X110538286Y-106762008D01*
X110453506Y-106810955D01*
X110358947Y-106836292D01*
X110261053Y-106836292D01*
X110166494Y-106810955D01*
X110081714Y-106762008D01*
X110012492Y-106692786D01*
X109963545Y-106608006D01*
X109938208Y-106513447D01*
X109938208Y-106415553D01*
X109963545Y-106320994D01*
X110012492Y-106236214D01*
X110081714Y-106166992D01*
X110166494Y-106118045D01*
X110261053Y-106092708D01*
X110358947Y-106092708D01*
X110453506Y-106118045D01*
G37*
%TD.AperFunction*%
%TD*%
M02*
