M48
; DRILL file {KiCad 9.0.1} date 2026-01-12T22:58:22+0100
; FORMAT={-:-/ absolute / metric / decimal}
; #@! TF.CreationDate,2026-01-12T22:58:22+01:00
; #@! TF.GenerationSoftware,Kicad,Pcbnew,9.0.1
; #@! TF.FileFunction,Plated,1,4,PTH
FMAT,2
METRIC
; #@! TA.AperFunction,Plated,PTH,ViaDrill
T1C0.300
; #@! TA.AperFunction,Plated,PTH,ComponentDrill
T2C0.300
; #@! TA.AperFunction,Plated,PTH,ComponentDrill
T3C0.800
; #@! TA.AperFunction,Plated,PTH,ComponentDrill
T4C0.900
; #@! TA.AperFunction,Plated,PTH,ComponentDrill
T5C0.970
; #@! TA.AperFunction,Plated,PTH,ComponentDrill
T6C1.000
; #@! TA.AperFunction,Plated,PTH,ComponentDrill
T7C1.600
; #@! TA.AperFunction,Plated,PTH,ComponentDrill
T8C2.370
; #@! TA.AperFunction,Plated,PTH,ComponentDrill
T9C3.200
%
G90
G05
T1
X95.98Y-104.95
X98.27Y-105.86
X98.331Y-102.769
X98.862Y-102.787
X99.16Y-92.58
X99.4Y-78.92
X99.58Y-65.49
X99.736Y-104.874
X100.27Y-83.81
X100.27Y-105.2
X100.883Y-105.2
X100.938Y-104.0
X101.497Y-105.2
X102.11Y-105.2
X102.28Y-101.67
X102.3Y-96.83
X102.3Y-97.522
X102.3Y-98.214
X102.3Y-98.906
X102.3Y-99.598
X102.3Y-100.29
X102.77Y-104.54
X103.397Y-104.533
X104.09Y-78.83
X104.25Y-75.57
X104.84Y-99.79
X106.9Y-98.08
X107.03Y-103.41
X107.08Y-68.63
X107.27Y-88.74
X107.81Y-103.41
X108.07Y-91.63
X108.16Y-100.23
X108.45Y-65.66
X109.07Y-82.17
X110.23Y-103.88
X110.85Y-103.99
X111.38Y-103.15
X111.69Y-74.27
X112.16Y-103.15
X112.3Y-76.21
X112.43Y-69.97
X113.34Y-68.6
X115.19Y-88.63
X115.29Y-76.77
X115.86Y-90.44
X117.5Y-79.46
X118.1Y-91.63
X118.87Y-87.33
X119.3Y-66.0
X119.3Y-66.783
X119.3Y-67.567
X119.3Y-68.35
X120.85Y-95.28
X120.91Y-86.11
X121.075Y-70.635
X122.56Y-66.025
X122.56Y-66.804
X122.56Y-67.582
X122.56Y-68.36
X122.72Y-83.729
X122.78Y-95.32
X122.82Y-97.71
X123.0Y-110.5
X123.69Y-78.22
X123.914Y-89.696
X124.138Y-84.437
X124.16Y-110.48
X124.5Y-81.5
X124.58Y-85.281
X124.63Y-83.36
X124.7Y-83.94
X124.72Y-95.25
X124.74Y-99.61
X125.15Y-110.59
X125.39Y-81.5
X126.34Y-79.65
X126.39Y-83.373
X126.423Y-87.4
X126.73Y-95.22
X126.75Y-97.71
X126.88Y-79.66
X127.36Y-77.42
X128.3Y-108.42
X128.32Y-76.75
X128.67Y-95.29
X129.323Y-81.028
X129.371Y-87.16
X129.44Y-83.55
X129.45Y-85.49
X129.5Y-76.339
X129.817Y-86.345
X129.89Y-80.01
X129.979Y-77.71
X129.99Y-105.77
X130.29Y-91.19
X130.56Y-90.04
X131.07Y-106.7
X131.09Y-104.86
X131.205Y-82.485
X131.87Y-92.55
X131.91Y-96.48
X132.13Y-86.2
X132.22Y-105.8
X132.293Y-81.823
X132.41Y-90.43
X132.88Y-77.05
X132.88Y-78.01
X133.17Y-91.6
X133.36Y-86.93
X133.451Y-80.131
X133.52Y-81.32
X133.58Y-88.05
X134.3Y-77.05
X134.301Y-77.8
X134.33Y-88.031
X134.38Y-86.749
X134.755Y-80.79
X134.81Y-102.78
X134.93Y-105.17
X135.09Y-91.58
X135.19Y-88.11
X135.292Y-81.91
X135.53Y-84.75
X135.53Y-85.5
X135.64Y-83.94
X135.67Y-82.99
X135.86Y-74.47
X135.861Y-93.493
X135.878Y-86.27
X136.03Y-87.81
X136.13Y-96.67
X136.39Y-95.25
X136.48Y-99.66
X136.5Y-105.99
X136.542Y-80.021
X136.57Y-100.72
X136.61Y-93.043
X136.65Y-90.09
X136.66Y-91.11
X136.66Y-97.35
X136.91Y-100.15
X136.995Y-101.256
X137.245Y-86.905
X137.379Y-83.37
X137.38Y-84.22
X137.45Y-107.75
X137.5Y-72.92
X137.81Y-77.06
X137.84Y-78.01
X138.58Y-95.49
X138.74Y-108.31
X138.794Y-90.214
X138.98Y-109.18
X139.119Y-79.616
X139.58Y-89.63
X139.61Y-94.96
X139.65Y-78.82
X139.82Y-102.75
X139.92Y-82.96
X139.99Y-99.61
X140.55Y-78.83
X140.55Y-79.64
X140.7Y-94.93
X140.801Y-85.181
X140.946Y-82.216
X140.97Y-86.64
X141.29Y-75.13
X141.41Y-111.69
X141.46Y-96.75
X141.669Y-102.86
X141.77Y-108.16
X142.34Y-85.45
X142.34Y-105.31
X142.474Y-102.846
X142.53Y-92.98
X142.877Y-78.527
X142.93Y-87.47
X143.08Y-99.65
X143.3Y-109.96
X143.782Y-100.388
X143.83Y-105.331
X144.09Y-99.65
X144.11Y-96.83
X144.32Y-81.93
X144.415Y-95.215
X144.56Y-108.46
X144.62Y-103.286
X145.18Y-100.709
X145.182Y-102.774
X145.2Y-95.14
X145.74Y-98.17
X146.109Y-96.815
X146.26Y-97.56
X146.9Y-83.74
X147.11Y-110.75
X147.33Y-94.11
X147.66Y-105.46
X147.84Y-100.75
X147.863Y-102.246
X148.63Y-78.81
X149.63Y-102.08
X149.875Y-76.145
X149.95Y-103.73
X150.705Y-76.125
X150.88Y-97.58
X150.91Y-88.54
X151.99Y-77.17
X152.14Y-69.06
X152.14Y-95.8
X152.225Y-69.975
X152.775Y-77.605
X153.61Y-78.75
X153.87Y-80.82
X154.24Y-105.44
X154.756Y-103.655
X155.26Y-105.44
X155.44Y-80.641
X155.48Y-90.15
X156.35Y-101.26
X156.36Y-98.58
X157.14Y-106.48
X157.23Y-103.0
X157.65Y-97.01
X159.15Y-90.32
X159.17Y-79.15
T2
X132.247Y-82.897
X132.247Y-84.03
X132.247Y-85.163
X133.38Y-82.897
X133.38Y-84.03
X133.38Y-85.163
X134.513Y-82.897
X134.513Y-84.03
X134.513Y-85.163
T4
X162.001Y-98.856
X162.001Y-101.396
X162.001Y-103.936
X162.001Y-106.476
X164.541Y-100.126
X164.541Y-102.666
X164.541Y-105.206
X164.541Y-107.746
X174.269Y-107.086
X174.27Y-96.975
X175.789Y-99.516
X175.79Y-109.625
T5
X138.75Y-66.395
X138.75Y-68.885
X140.8Y-66.395
X143.4Y-66.395
X145.45Y-66.395
X145.45Y-68.885
T6
X102.13Y-59.835
X102.13Y-62.375
X104.67Y-59.835
X104.67Y-62.375
X107.21Y-59.835
X107.21Y-62.375
X109.75Y-59.835
X109.75Y-62.375
X112.29Y-59.835
X112.29Y-62.375
X113.57Y-93.93
X113.57Y-96.47
X113.57Y-99.01
X114.83Y-59.835
X114.83Y-62.375
X116.11Y-93.93
X116.11Y-96.47
X116.11Y-99.01
X117.37Y-59.835
X117.37Y-62.375
X119.91Y-59.835
X119.91Y-62.375
X122.45Y-59.835
X122.45Y-62.375
X124.99Y-59.835
X124.99Y-62.375
X127.53Y-59.835
X127.53Y-62.375
X130.07Y-59.835
X130.07Y-62.375
X165.215Y-69.88
X165.215Y-72.17
X165.215Y-74.46
X165.215Y-76.75
X165.215Y-79.04
X167.755Y-68.735
X167.755Y-71.025
X167.755Y-73.315
X167.755Y-75.605
X167.755Y-77.895
X170.295Y-69.88
X170.295Y-72.17
X170.295Y-74.46
X170.295Y-76.75
X170.295Y-79.04
T7
X167.841Y-95.426
X167.841Y-111.176
T8
X135.34Y-63.395
X142.1Y-62.585
X148.86Y-63.395
T9
X167.755Y-61.695
X167.755Y-86.695
T3
G00X103.085Y-105.564
M15
G01X103.085Y-106.364
M16
G05
G00X103.085Y-109.844
M15
G01X103.085Y-110.444
M16
G05
G00X111.735Y-105.564
M15
G01X111.735Y-106.364
M16
G05
G00X111.735Y-109.844
M15
G01X111.735Y-110.444
M16
G05
M30
