%TF.GenerationSoftware,KiCad,Pcbnew,9.0.1*%
%TF.CreationDate,2026-01-12T23:01:10+01:00*%
%TF.ProjectId,GeT_Computer,4765545f-436f-46d7-9075-7465722e6b69,rev?*%
%TF.SameCoordinates,Original*%
%TF.FileFunction,Soldermask,Top*%
%TF.FilePolarity,Negative*%
%FSLAX46Y46*%
G04 Gerber Fmt 4.6, Leading zero omitted, Abs format (unit mm)*
G04 Created by KiCad (PCBNEW 9.0.1) date 2026-01-12 23:01:10*
%MOMM*%
%LPD*%
G01*
G04 APERTURE LIST*
G04 Aperture macros list*
%AMRoundRect*
0 Rectangle with rounded corners*
0 $1 Rounding radius*
0 $2 $3 $4 $5 $6 $7 $8 $9 X,Y pos of 4 corners*
0 Add a 4 corners polygon primitive as box body*
4,1,4,$2,$3,$4,$5,$6,$7,$8,$9,$2,$3,0*
0 Add four circle primitives for the rounded corners*
1,1,$1+$1,$2,$3*
1,1,$1+$1,$4,$5*
1,1,$1+$1,$6,$7*
1,1,$1+$1,$8,$9*
0 Add four rect primitives between the rounded corners*
20,1,$1+$1,$2,$3,$4,$5,0*
20,1,$1+$1,$4,$5,$6,$7,0*
20,1,$1+$1,$6,$7,$8,$9,0*
20,1,$1+$1,$8,$9,$2,$3,0*%
G04 Aperture macros list end*
%ADD10RoundRect,0.140000X-0.140000X-0.170000X0.140000X-0.170000X0.140000X0.170000X-0.140000X0.170000X0*%
%ADD11C,2.700000*%
%ADD12RoundRect,0.075000X0.662500X0.075000X-0.662500X0.075000X-0.662500X-0.075000X0.662500X-0.075000X0*%
%ADD13RoundRect,0.075000X0.075000X0.662500X-0.075000X0.662500X-0.075000X-0.662500X0.075000X-0.662500X0*%
%ADD14RoundRect,0.140000X0.170000X-0.140000X0.170000X0.140000X-0.170000X0.140000X-0.170000X-0.140000X0*%
%ADD15RoundRect,0.140000X-0.170000X0.140000X-0.170000X-0.140000X0.170000X-0.140000X0.170000X0.140000X0*%
%ADD16R,1.400000X1.200000*%
%ADD17RoundRect,0.250000X0.450000X-0.325000X0.450000X0.325000X-0.450000X0.325000X-0.450000X-0.325000X0*%
%ADD18RoundRect,0.250000X-0.450000X0.350000X-0.450000X-0.350000X0.450000X-0.350000X0.450000X0.350000X0*%
%ADD19RoundRect,0.140000X0.140000X0.170000X-0.140000X0.170000X-0.140000X-0.170000X0.140000X-0.170000X0*%
%ADD20RoundRect,0.250000X-0.350000X-0.450000X0.350000X-0.450000X0.350000X0.450000X-0.350000X0.450000X0*%
%ADD21RoundRect,0.250000X0.450000X-0.350000X0.450000X0.350000X-0.450000X0.350000X-0.450000X-0.350000X0*%
%ADD22RoundRect,0.135000X-0.135000X-0.185000X0.135000X-0.185000X0.135000X0.185000X-0.135000X0.185000X0*%
%ADD23C,4.000000*%
%ADD24R,1.600000X1.600000*%
%ADD25C,1.600000*%
%ADD26RoundRect,0.102000X0.675000X0.900000X-0.675000X0.900000X-0.675000X-0.900000X0.675000X-0.900000X0*%
%ADD27RoundRect,0.218750X-0.256250X0.218750X-0.256250X-0.218750X0.256250X-0.218750X0.256250X0.218750X0*%
%ADD28RoundRect,0.150000X0.675000X0.150000X-0.675000X0.150000X-0.675000X-0.150000X0.675000X-0.150000X0*%
%ADD29RoundRect,0.135000X-0.185000X0.135000X-0.185000X-0.135000X0.185000X-0.135000X0.185000X0.135000X0*%
%ADD30RoundRect,0.135000X0.185000X-0.135000X0.185000X0.135000X-0.185000X0.135000X-0.185000X-0.135000X0*%
%ADD31RoundRect,0.250000X0.475000X-0.250000X0.475000X0.250000X-0.475000X0.250000X-0.475000X-0.250000X0*%
%ADD32RoundRect,0.250000X0.475000X-0.337500X0.475000X0.337500X-0.475000X0.337500X-0.475000X-0.337500X0*%
%ADD33R,1.700000X1.700000*%
%ADD34C,1.700000*%
%ADD35R,0.530000X0.470000*%
%ADD36R,1.700000X0.700000*%
%ADD37RoundRect,0.218750X0.256250X-0.218750X0.256250X0.218750X-0.256250X0.218750X-0.256250X-0.218750X0*%
%ADD38R,1.509000X1.509000*%
%ADD39C,1.509000*%
%ADD40C,3.555000*%
%ADD41RoundRect,0.055000X0.055000X0.335000X-0.055000X0.335000X-0.055000X-0.335000X0.055000X-0.335000X0*%
%ADD42RoundRect,0.055000X0.335000X-0.055000X0.335000X0.055000X-0.335000X0.055000X-0.335000X-0.055000X0*%
%ADD43C,0.600000*%
%ADD44R,1.133333X1.133333*%
%ADD45RoundRect,0.375000X0.375000X-0.625000X0.375000X0.625000X-0.375000X0.625000X-0.375000X-0.625000X0*%
%ADD46RoundRect,0.500000X1.400000X-0.500000X1.400000X0.500000X-1.400000X0.500000X-1.400000X-0.500000X0*%
%ADD47RoundRect,0.250000X0.350000X0.450000X-0.350000X0.450000X-0.350000X-0.450000X0.350000X-0.450000X0*%
%ADD48R,1.000000X2.000000*%
%ADD49R,2.000000X1.000000*%
%ADD50RoundRect,0.102000X0.900000X-0.675000X0.900000X0.675000X-0.900000X0.675000X-0.900000X-0.675000X0*%
%ADD51RoundRect,0.135000X0.135000X0.185000X-0.135000X0.185000X-0.135000X-0.185000X0.135000X-0.185000X0*%
%ADD52RoundRect,0.250000X-0.475000X0.337500X-0.475000X-0.337500X0.475000X-0.337500X0.475000X0.337500X0*%
%ADD53C,3.300000*%
%ADD54C,1.604000*%
%ADD55C,2.388400*%
%ADD56R,0.300000X1.300000*%
%ADD57O,1.200000X2.000000*%
%ADD58O,1.200000X1.800000*%
%ADD59R,0.850000X1.100000*%
%ADD60R,0.750000X1.100000*%
%ADD61R,1.200000X1.000000*%
%ADD62R,1.550000X1.350000*%
%ADD63R,1.900000X1.350000*%
%ADD64R,1.170000X1.800000*%
%ADD65RoundRect,0.250000X0.337500X0.475000X-0.337500X0.475000X-0.337500X-0.475000X0.337500X-0.475000X0*%
%ADD66RoundRect,0.218750X-0.218750X-0.256250X0.218750X-0.256250X0.218750X0.256250X-0.218750X0.256250X0*%
G04 APERTURE END LIST*
D10*
%TO.C,C43*%
X140880000Y-82960000D03*
X139920000Y-82960000D03*
%TD*%
D11*
%TO.C,REF\u002A\u002A*%
X155000000Y-61010000D03*
%TD*%
D12*
%TO.C,U5*%
X146562500Y-105250000D03*
X146562500Y-104750000D03*
X146562500Y-104250000D03*
X146562500Y-103750000D03*
X146562500Y-103250000D03*
X146562500Y-102750000D03*
X146562500Y-102250000D03*
X146562500Y-101750000D03*
X146562500Y-101250000D03*
X146562500Y-100750000D03*
X146562500Y-100250000D03*
X146562500Y-99750000D03*
D13*
X145150000Y-98337500D03*
X144650000Y-98337500D03*
X144150000Y-98337500D03*
X143650000Y-98337500D03*
X143150000Y-98337500D03*
X142650000Y-98337500D03*
X142150000Y-98337500D03*
X141650000Y-98337500D03*
X141150000Y-98337500D03*
X140650000Y-98337500D03*
X140150000Y-98337500D03*
X139650000Y-98337500D03*
D12*
X138237500Y-99750000D03*
X138237500Y-100250000D03*
X138237500Y-100750000D03*
X138237500Y-101250000D03*
X138237500Y-101750000D03*
X138237500Y-102250000D03*
X138237500Y-102750000D03*
X138237500Y-103250000D03*
X138237500Y-103750000D03*
X138237500Y-104250000D03*
X138237500Y-104750000D03*
X138237500Y-105250000D03*
D13*
X139650000Y-106662500D03*
X140150000Y-106662500D03*
X140650000Y-106662500D03*
X141150000Y-106662500D03*
X141650000Y-106662500D03*
X142150000Y-106662500D03*
X142650000Y-106662500D03*
X143150000Y-106662500D03*
X143650000Y-106662500D03*
X144150000Y-106662500D03*
X144650000Y-106662500D03*
X145150000Y-106662500D03*
%TD*%
D14*
%TO.C,C39*%
X145210000Y-96830000D03*
X145210000Y-95870000D03*
%TD*%
D10*
%TO.C,C18*%
X148670000Y-102080000D03*
X149630000Y-102080000D03*
%TD*%
D15*
%TO.C,C42*%
X133180000Y-90050000D03*
X133180000Y-91010000D03*
%TD*%
D14*
%TO.C,C17*%
X144110000Y-96830000D03*
X144110000Y-95870000D03*
%TD*%
D16*
%TO.C,Y1*%
X143335349Y-83705608D03*
X145535349Y-83705608D03*
X145535349Y-82005608D03*
X143335349Y-82005608D03*
%TD*%
D17*
%TO.C,D3*%
X159120000Y-88852500D03*
X159120000Y-86802500D03*
%TD*%
D18*
%TO.C,R9*%
X97030000Y-103850000D03*
X97030000Y-105850000D03*
%TD*%
D10*
%TO.C,C27*%
X139400000Y-86630000D03*
X140360000Y-86630000D03*
%TD*%
D17*
%TO.C,D2*%
X155450000Y-88832500D03*
X155450000Y-86782500D03*
%TD*%
D19*
%TO.C,C10*%
X156220000Y-105440000D03*
X155260000Y-105440000D03*
%TD*%
D20*
%TO.C,R8*%
X154300000Y-67900000D03*
X156300000Y-67900000D03*
%TD*%
%TO.C,R22*%
X138870000Y-72910000D03*
X140870000Y-72910000D03*
%TD*%
D21*
%TO.C,R43*%
X150070000Y-80810000D03*
X150070000Y-78810000D03*
%TD*%
D22*
%TO.C,R38*%
X154730000Y-94020000D03*
X155750000Y-94020000D03*
%TD*%
D10*
%TO.C,C12*%
X155450000Y-103020000D03*
X156410000Y-103020000D03*
%TD*%
D23*
%TO.C,J2*%
X167754669Y-86695000D03*
X167754669Y-61695000D03*
D24*
X165214669Y-69880000D03*
D25*
X165214669Y-72170000D03*
X165214669Y-74460000D03*
X165214669Y-76750000D03*
X165214669Y-79040000D03*
X167754669Y-68735000D03*
X167754669Y-71025000D03*
X167754669Y-73315000D03*
X167754669Y-75605000D03*
X167754669Y-77895000D03*
X170294669Y-69880000D03*
X170294669Y-72170000D03*
X170294669Y-74460000D03*
X170294669Y-76750000D03*
X170294669Y-79040000D03*
%TD*%
D26*
%TO.C,S2*%
X104845000Y-87960000D03*
X100695000Y-87960000D03*
%TD*%
D21*
%TO.C,R26*%
X113400000Y-80200000D03*
X113400000Y-78200000D03*
%TD*%
%TO.C,R46*%
X159090000Y-83770000D03*
X159090000Y-81770000D03*
%TD*%
D27*
%TO.C,L3*%
X144220000Y-109092500D03*
X144220000Y-110667500D03*
%TD*%
D28*
%TO.C,U3*%
X122735493Y-88620894D03*
X122735493Y-87350894D03*
X122735493Y-86080894D03*
X122735493Y-84810894D03*
X117485493Y-84810894D03*
X117485493Y-86080894D03*
X117485493Y-87350894D03*
X117485493Y-88620894D03*
%TD*%
D29*
%TO.C,R24*%
X119190000Y-90580000D03*
X119190000Y-91600000D03*
%TD*%
D21*
%TO.C,R5*%
X130610000Y-98500000D03*
X130610000Y-96500000D03*
%TD*%
D22*
%TO.C,R33*%
X153590000Y-100040000D03*
X154610000Y-100040000D03*
%TD*%
D20*
%TO.C,R7*%
X158900000Y-67900000D03*
X160900000Y-67900000D03*
%TD*%
D30*
%TO.C,R25*%
X124820493Y-89695894D03*
X124820493Y-88675894D03*
%TD*%
D19*
%TO.C,C24*%
X126390000Y-84210000D03*
X125430000Y-84210000D03*
%TD*%
D31*
%TO.C,C36*%
X140400000Y-111050000D03*
X140400000Y-109150000D03*
%TD*%
D14*
%TO.C,C15*%
X139600000Y-96580000D03*
X139600000Y-95620000D03*
%TD*%
D32*
%TO.C,C2*%
X106900000Y-101377500D03*
X106900000Y-99302500D03*
%TD*%
D21*
%TO.C,R45*%
X155420000Y-83770000D03*
X155420000Y-81770000D03*
%TD*%
D11*
%TO.C,REF\u002A\u002A*%
X97000000Y-110010000D03*
%TD*%
D14*
%TO.C,C21*%
X137280000Y-77980000D03*
X137280000Y-77020000D03*
%TD*%
D15*
%TO.C,C8*%
X141830000Y-84460000D03*
X141830000Y-85420000D03*
%TD*%
D33*
%TO.C,J5*%
X113570000Y-93930000D03*
D34*
X116110000Y-93930000D03*
X113570000Y-96470000D03*
X116110000Y-96470000D03*
X113570000Y-99010000D03*
X116110000Y-99010000D03*
%TD*%
D11*
%TO.C,REF\u002A\u002A*%
X155000000Y-110010000D03*
%TD*%
D35*
%TO.C,C6*%
X127180000Y-81415000D03*
X127180000Y-80385000D03*
%TD*%
D22*
%TO.C,R34*%
X154590000Y-101300000D03*
X155610000Y-101300000D03*
%TD*%
%TO.C,R30*%
X152190000Y-104030000D03*
X153210000Y-104030000D03*
%TD*%
%TO.C,R17*%
X119590000Y-82390000D03*
X120610000Y-82390000D03*
%TD*%
D20*
%TO.C,R13*%
X154300000Y-74300000D03*
X156300000Y-74300000D03*
%TD*%
D33*
%TO.C,J6*%
X102130000Y-62375000D03*
D34*
X102130000Y-59835000D03*
X104670000Y-62375000D03*
X104670000Y-59835000D03*
X107210000Y-62375000D03*
X107210000Y-59835000D03*
X109750000Y-62375000D03*
X109750000Y-59835000D03*
X112290000Y-62375000D03*
X112290000Y-59835000D03*
X114830000Y-62375000D03*
X114830000Y-59835000D03*
X117370000Y-62375000D03*
X117370000Y-59835000D03*
X119910000Y-62375000D03*
X119910000Y-59835000D03*
X122450000Y-62375000D03*
X122450000Y-59835000D03*
X124990000Y-62375000D03*
X124990000Y-59835000D03*
X127530000Y-62375000D03*
X127530000Y-59835000D03*
X130070000Y-62375000D03*
X130070000Y-59835000D03*
%TD*%
D36*
%TO.C,L1*%
X124500000Y-81500000D03*
X124500000Y-80100000D03*
%TD*%
D17*
%TO.C,D1*%
X95100000Y-105862500D03*
X95100000Y-103812500D03*
%TD*%
D22*
%TO.C,R37*%
X152830000Y-105950000D03*
X153850000Y-105950000D03*
%TD*%
D26*
%TO.C,S1*%
X104825000Y-91630000D03*
X100675000Y-91630000D03*
%TD*%
D10*
%TO.C,C32*%
X107490000Y-64930000D03*
X108450000Y-64930000D03*
%TD*%
D15*
%TO.C,C29*%
X115850000Y-88670000D03*
X115850000Y-89630000D03*
%TD*%
D37*
%TO.C,L4*%
X142400000Y-110687500D03*
X142400000Y-109112500D03*
%TD*%
D20*
%TO.C,R12*%
X154300000Y-72100000D03*
X156300000Y-72100000D03*
%TD*%
D38*
%TO.C,J4*%
X140800000Y-66395000D03*
D39*
X143400000Y-66395000D03*
X138750000Y-66395000D03*
X145450000Y-66395000D03*
X138750000Y-68885000D03*
X145450000Y-68885000D03*
D40*
X142100000Y-62585000D03*
X148860000Y-63395000D03*
X135340000Y-63395000D03*
%TD*%
D19*
%TO.C,C16*%
X136480000Y-105200000D03*
X135520000Y-105200000D03*
%TD*%
D20*
%TO.C,R44*%
X150390000Y-82710000D03*
X152390000Y-82710000D03*
%TD*%
D10*
%TO.C,C41*%
X102420000Y-103600000D03*
X103380000Y-103600000D03*
%TD*%
%TO.C,C11*%
X156680000Y-97770000D03*
X157640000Y-97770000D03*
%TD*%
D22*
%TO.C,R40*%
X149770000Y-108080000D03*
X150790000Y-108080000D03*
%TD*%
D10*
%TO.C,C35*%
X148300000Y-103740000D03*
X149260000Y-103740000D03*
%TD*%
D15*
%TO.C,C20*%
X135090000Y-90010000D03*
X135090000Y-90970000D03*
%TD*%
D41*
%TO.C,U4*%
X129580000Y-88926500D03*
X129980000Y-88926500D03*
X130380000Y-88926500D03*
X130780000Y-88926500D03*
X131180000Y-88926500D03*
X131580000Y-88926500D03*
X131980000Y-88926500D03*
X132380000Y-88926500D03*
X132780000Y-88926500D03*
X133180000Y-88926500D03*
X133580000Y-88926500D03*
X133980000Y-88926500D03*
X134380000Y-88926500D03*
X134780000Y-88926500D03*
X135180000Y-88926500D03*
X135580000Y-88926500D03*
X135980000Y-88926500D03*
X136380000Y-88926500D03*
X136780000Y-88926500D03*
X137180000Y-88926500D03*
D42*
X138276500Y-87830000D03*
X138276500Y-87430000D03*
X138276500Y-87030000D03*
X138276500Y-86630000D03*
X138276500Y-86230000D03*
X138276500Y-85830000D03*
X138276500Y-85430000D03*
X138276500Y-85030000D03*
X138276500Y-84630000D03*
X138276500Y-84230000D03*
X138276500Y-83830000D03*
X138276500Y-83430000D03*
X138276500Y-83030000D03*
X138276500Y-82630000D03*
X138276500Y-82230000D03*
X138276500Y-81830000D03*
X138276500Y-81430000D03*
X138276500Y-81030000D03*
X138276500Y-80630000D03*
X138276500Y-80230000D03*
D41*
X137180000Y-79133500D03*
X136780000Y-79133500D03*
X136380000Y-79133500D03*
X135980000Y-79133500D03*
X135580000Y-79133500D03*
X135180000Y-79133500D03*
X134780000Y-79133500D03*
X134380000Y-79133500D03*
X133980000Y-79133500D03*
X133580000Y-79133500D03*
X133180000Y-79133500D03*
X132780000Y-79133500D03*
X132380000Y-79133500D03*
X131980000Y-79133500D03*
X131580000Y-79133500D03*
X131180000Y-79133500D03*
X130780000Y-79133500D03*
X130380000Y-79133500D03*
X129980000Y-79133500D03*
X129580000Y-79133500D03*
D42*
X128483500Y-80230000D03*
X128483500Y-80630000D03*
X128483500Y-81030000D03*
X128483500Y-81430000D03*
X128483500Y-81830000D03*
X128483500Y-82230000D03*
X128483500Y-82630000D03*
X128483500Y-83030000D03*
X128483500Y-83430000D03*
X128483500Y-83830000D03*
X128483500Y-84230000D03*
X128483500Y-84630000D03*
X128483500Y-85030000D03*
X128483500Y-85430000D03*
X128483500Y-85830000D03*
X128483500Y-86230000D03*
X128483500Y-86630000D03*
X128483500Y-87030000D03*
X128483500Y-87430000D03*
X128483500Y-87830000D03*
D43*
X132246667Y-85163333D03*
D44*
X132246667Y-85163333D03*
D43*
X133380000Y-85163333D03*
D44*
X133380000Y-85163333D03*
D43*
X134513333Y-85163333D03*
D44*
X134513333Y-85163333D03*
D43*
X132246667Y-84030000D03*
D44*
X132246667Y-84030000D03*
D43*
X133380000Y-84030000D03*
D44*
X133380000Y-84030000D03*
D43*
X134513333Y-84030000D03*
D44*
X134513333Y-84030000D03*
D43*
X132246667Y-82896667D03*
D44*
X132246667Y-82896667D03*
D43*
X133380000Y-82896667D03*
D44*
X133380000Y-82896667D03*
D43*
X134513333Y-82896667D03*
D44*
X134513333Y-82896667D03*
%TD*%
D22*
%TO.C,R41*%
X148640000Y-101150000D03*
X149660000Y-101150000D03*
%TD*%
D14*
%TO.C,C44*%
X132880000Y-78010000D03*
X132880000Y-77050000D03*
%TD*%
D22*
%TO.C,R28*%
X152190000Y-105000000D03*
X153210000Y-105000000D03*
%TD*%
D45*
%TO.C,U1*%
X100000000Y-101650000D03*
X102300000Y-101650000D03*
D46*
X102300000Y-95350000D03*
D45*
X104600000Y-101650000D03*
%TD*%
D20*
%TO.C,R10*%
X154300000Y-70100000D03*
X156300000Y-70100000D03*
%TD*%
D10*
%TO.C,C31*%
X112410000Y-69350000D03*
X113370000Y-69350000D03*
%TD*%
D47*
%TO.C,R21*%
X107440000Y-83230000D03*
X105440000Y-83230000D03*
%TD*%
D20*
%TO.C,R23*%
X142630000Y-75010000D03*
X144630000Y-75010000D03*
%TD*%
D48*
%TO.C,U2*%
X99580000Y-80520000D03*
X101080000Y-80520000D03*
X102580000Y-80520000D03*
X104080000Y-80520000D03*
X105580000Y-80520000D03*
X107080000Y-80520000D03*
X108580000Y-80520000D03*
D49*
X109880000Y-78270000D03*
X109880000Y-76770000D03*
X109880000Y-75270000D03*
X109880000Y-73770000D03*
X109880000Y-72270000D03*
X109880000Y-70770000D03*
X109880000Y-69270000D03*
D48*
X108580000Y-67020000D03*
X107080000Y-67020000D03*
X105580000Y-67020000D03*
X104080000Y-67020000D03*
X102580000Y-67020000D03*
X101080000Y-67020000D03*
X99580000Y-67020000D03*
%TD*%
D22*
%TO.C,R39*%
X148010000Y-98710000D03*
X149030000Y-98710000D03*
%TD*%
D50*
%TO.C,S3*%
X150910000Y-89905000D03*
X150910000Y-85755000D03*
%TD*%
D30*
%TO.C,R27*%
X100600000Y-85720000D03*
X100600000Y-84700000D03*
%TD*%
D20*
%TO.C,R18*%
X142620000Y-72910000D03*
X144620000Y-72910000D03*
%TD*%
%TO.C,R14*%
X158900000Y-76300000D03*
X160900000Y-76300000D03*
%TD*%
D19*
%TO.C,C28*%
X127380000Y-86890000D03*
X126420000Y-86890000D03*
%TD*%
D22*
%TO.C,R20*%
X119590000Y-81430000D03*
X120610000Y-81430000D03*
%TD*%
D19*
%TO.C,C13*%
X147990000Y-97550000D03*
X147030000Y-97550000D03*
%TD*%
D22*
%TO.C,R31*%
X153590000Y-99100000D03*
X154610000Y-99100000D03*
%TD*%
D20*
%TO.C,R6*%
X154300000Y-65900000D03*
X156300000Y-65900000D03*
%TD*%
D30*
%TO.C,R32*%
X141850000Y-82700000D03*
X141850000Y-81680000D03*
%TD*%
D51*
%TO.C,R42*%
X149650000Y-100170000D03*
X148630000Y-100170000D03*
%TD*%
D52*
%TO.C,C3*%
X97620000Y-99982500D03*
X97620000Y-102057500D03*
%TD*%
D53*
%TO.C,P1*%
X170891041Y-109015790D03*
X170891041Y-97585790D03*
D54*
X174269630Y-96974530D03*
X175789130Y-99516380D03*
X174269130Y-107086380D03*
X175789630Y-109624530D03*
X164541040Y-107745790D03*
X162001040Y-106475790D03*
X164541040Y-105205790D03*
X162001040Y-103935791D03*
X164541040Y-102665791D03*
X162001040Y-101395790D03*
X164541040Y-100125790D03*
X162001040Y-98855790D03*
D55*
X167841040Y-111175790D03*
X167841040Y-95425790D03*
%TD*%
D22*
%TO.C,R16*%
X124470000Y-78230000D03*
X125490000Y-78230000D03*
%TD*%
D20*
%TO.C,R19*%
X146380000Y-75010000D03*
X148380000Y-75010000D03*
%TD*%
D16*
%TO.C,Y2*%
X148640000Y-95790000D03*
X150840000Y-95790000D03*
X150840000Y-94090000D03*
X148640000Y-94090000D03*
%TD*%
D20*
%TO.C,R11*%
X158900000Y-72100000D03*
X160900000Y-72100000D03*
%TD*%
D14*
%TO.C,C9*%
X143440000Y-80290000D03*
X143440000Y-79330000D03*
%TD*%
D21*
%TO.C,R3*%
X126690000Y-98500000D03*
X126690000Y-96500000D03*
%TD*%
D56*
%TO.C,J1*%
X104060000Y-105196000D03*
X104860000Y-105196000D03*
X106160000Y-105196000D03*
X107160000Y-105196000D03*
X107660000Y-105196000D03*
X108659500Y-105196000D03*
X109960000Y-105196000D03*
X110760000Y-105196000D03*
X110460000Y-105196000D03*
X109660000Y-105196000D03*
X109160000Y-105196000D03*
X108160000Y-105196000D03*
X106660000Y-105196000D03*
X105660000Y-105196000D03*
X105160000Y-105196000D03*
X104360000Y-105196000D03*
D57*
X103085000Y-105964000D03*
D58*
X103085000Y-110144000D03*
D57*
X111735000Y-105964000D03*
D58*
X111735000Y-110144000D03*
%TD*%
D30*
%TO.C,R29*%
X147110000Y-109880000D03*
X147110000Y-108860000D03*
%TD*%
D10*
%TO.C,C14*%
X149170000Y-97580000D03*
X150130000Y-97580000D03*
%TD*%
D21*
%TO.C,R1*%
X120840000Y-98500000D03*
X120840000Y-96500000D03*
%TD*%
D10*
%TO.C,C5*%
X126400000Y-78230000D03*
X127360000Y-78230000D03*
%TD*%
D14*
%TO.C,C23*%
X128979000Y-77710000D03*
X128979000Y-76750000D03*
%TD*%
%TO.C,C22*%
X133880000Y-78010000D03*
X133880000Y-77050000D03*
%TD*%
D35*
%TO.C,C7*%
X126180000Y-81415000D03*
X126180000Y-80385000D03*
%TD*%
D20*
%TO.C,R15*%
X154300000Y-76300000D03*
X156300000Y-76300000D03*
%TD*%
D22*
%TO.C,R35*%
X154590000Y-97800000D03*
X155610000Y-97800000D03*
%TD*%
D59*
%TO.C,J3*%
X128465000Y-111940000D03*
X127365000Y-111940000D03*
X126265000Y-111940000D03*
X125165000Y-111940000D03*
X124065000Y-111940000D03*
X122965000Y-111940000D03*
X121865000Y-111940000D03*
D60*
X120815000Y-111940000D03*
D61*
X131100000Y-105790000D03*
X131100000Y-102090000D03*
D62*
X130925000Y-111815000D03*
D63*
X127600000Y-101115000D03*
X121630000Y-101115000D03*
D64*
X119605000Y-111590000D03*
%TD*%
D21*
%TO.C,R2*%
X122780000Y-98500000D03*
X122780000Y-96500000D03*
%TD*%
D10*
%TO.C,C30*%
X139400000Y-84630000D03*
X140360000Y-84630000D03*
%TD*%
%TO.C,C40*%
X136980000Y-108540000D03*
X137940000Y-108540000D03*
%TD*%
D19*
%TO.C,C33*%
X126390000Y-83290000D03*
X125430000Y-83290000D03*
%TD*%
D21*
%TO.C,R4*%
X128650000Y-98500000D03*
X128650000Y-96500000D03*
%TD*%
D32*
%TO.C,C1*%
X124740000Y-98537500D03*
X124740000Y-96462500D03*
%TD*%
D14*
%TO.C,C37*%
X140700000Y-96580000D03*
X140700000Y-95620000D03*
%TD*%
D19*
%TO.C,C38*%
X136480000Y-102800000D03*
X135520000Y-102800000D03*
%TD*%
D32*
%TO.C,C34*%
X152240000Y-80827500D03*
X152240000Y-78752500D03*
%TD*%
D65*
%TO.C,C4*%
X100937500Y-104000000D03*
X98862500Y-104000000D03*
%TD*%
D66*
%TO.C,L2*%
X141892500Y-94080000D03*
X143467500Y-94080000D03*
%TD*%
D15*
%TO.C,C19*%
X131180000Y-90050000D03*
X131180000Y-91010000D03*
%TD*%
D14*
%TO.C,C25*%
X129979000Y-77710000D03*
X129979000Y-76750000D03*
%TD*%
D22*
%TO.C,R36*%
X153210000Y-103040000D03*
X154230000Y-103040000D03*
%TD*%
D11*
%TO.C,REF\u002A\u002A*%
X97000000Y-61010000D03*
%TD*%
M02*
