%TF.GenerationSoftware,KiCad,Pcbnew,9.0.1*%
%TF.CreationDate,2026-01-12T23:01:10+01:00*%
%TF.ProjectId,GeT_Computer,4765545f-436f-46d7-9075-7465722e6b69,rev?*%
%TF.SameCoordinates,Original*%
%TF.FileFunction,Legend,Bot*%
%TF.FilePolarity,Positive*%
%FSLAX46Y46*%
G04 Gerber Fmt 4.6, Leading zero omitted, Abs format (unit mm)*
G04 Created by KiCad (PCBNEW 9.0.1) date 2026-01-12 23:01:10*
%MOMM*%
%LPD*%
G01*
G04 APERTURE LIST*
%ADD10C,0.150000*%
%ADD11C,0.120000*%
G04 APERTURE END LIST*
D10*
X132271904Y-85766819D02*
X131700476Y-85766819D01*
X131986190Y-86766819D02*
X131986190Y-85766819D01*
X131367142Y-86766819D02*
X131367142Y-85766819D01*
X131367142Y-85766819D02*
X130986190Y-85766819D01*
X130986190Y-85766819D02*
X130890952Y-85814438D01*
X130890952Y-85814438D02*
X130843333Y-85862057D01*
X130843333Y-85862057D02*
X130795714Y-85957295D01*
X130795714Y-85957295D02*
X130795714Y-86100152D01*
X130795714Y-86100152D02*
X130843333Y-86195390D01*
X130843333Y-86195390D02*
X130890952Y-86243009D01*
X130890952Y-86243009D02*
X130986190Y-86290628D01*
X130986190Y-86290628D02*
X131367142Y-86290628D01*
X129843333Y-86766819D02*
X130414761Y-86766819D01*
X130129047Y-86766819D02*
X130129047Y-85766819D01*
X130129047Y-85766819D02*
X130224285Y-85909676D01*
X130224285Y-85909676D02*
X130319523Y-86004914D01*
X130319523Y-86004914D02*
X130414761Y-86052533D01*
X129261904Y-80746819D02*
X128690476Y-80746819D01*
X128976190Y-81746819D02*
X128976190Y-80746819D01*
X128357142Y-81746819D02*
X128357142Y-80746819D01*
X128357142Y-80746819D02*
X127976190Y-80746819D01*
X127976190Y-80746819D02*
X127880952Y-80794438D01*
X127880952Y-80794438D02*
X127833333Y-80842057D01*
X127833333Y-80842057D02*
X127785714Y-80937295D01*
X127785714Y-80937295D02*
X127785714Y-81080152D01*
X127785714Y-81080152D02*
X127833333Y-81175390D01*
X127833333Y-81175390D02*
X127880952Y-81223009D01*
X127880952Y-81223009D02*
X127976190Y-81270628D01*
X127976190Y-81270628D02*
X128357142Y-81270628D01*
X127404761Y-80842057D02*
X127357142Y-80794438D01*
X127357142Y-80794438D02*
X127261904Y-80746819D01*
X127261904Y-80746819D02*
X127023809Y-80746819D01*
X127023809Y-80746819D02*
X126928571Y-80794438D01*
X126928571Y-80794438D02*
X126880952Y-80842057D01*
X126880952Y-80842057D02*
X126833333Y-80937295D01*
X126833333Y-80937295D02*
X126833333Y-81032533D01*
X126833333Y-81032533D02*
X126880952Y-81175390D01*
X126880952Y-81175390D02*
X127452380Y-81746819D01*
X127452380Y-81746819D02*
X126833333Y-81746819D01*
X132311904Y-76316819D02*
X131740476Y-76316819D01*
X132026190Y-77316819D02*
X132026190Y-76316819D01*
X131407142Y-77316819D02*
X131407142Y-76316819D01*
X131407142Y-76316819D02*
X131026190Y-76316819D01*
X131026190Y-76316819D02*
X130930952Y-76364438D01*
X130930952Y-76364438D02*
X130883333Y-76412057D01*
X130883333Y-76412057D02*
X130835714Y-76507295D01*
X130835714Y-76507295D02*
X130835714Y-76650152D01*
X130835714Y-76650152D02*
X130883333Y-76745390D01*
X130883333Y-76745390D02*
X130930952Y-76793009D01*
X130930952Y-76793009D02*
X131026190Y-76840628D01*
X131026190Y-76840628D02*
X131407142Y-76840628D01*
X130502380Y-76316819D02*
X129883333Y-76316819D01*
X129883333Y-76316819D02*
X130216666Y-76697771D01*
X130216666Y-76697771D02*
X130073809Y-76697771D01*
X130073809Y-76697771D02*
X129978571Y-76745390D01*
X129978571Y-76745390D02*
X129930952Y-76793009D01*
X129930952Y-76793009D02*
X129883333Y-76888247D01*
X129883333Y-76888247D02*
X129883333Y-77126342D01*
X129883333Y-77126342D02*
X129930952Y-77221580D01*
X129930952Y-77221580D02*
X129978571Y-77269200D01*
X129978571Y-77269200D02*
X130073809Y-77316819D01*
X130073809Y-77316819D02*
X130359523Y-77316819D01*
X130359523Y-77316819D02*
X130454761Y-77269200D01*
X130454761Y-77269200D02*
X130502380Y-77221580D01*
D11*
%TO.C,TP1*%
X132210000Y-88310000D02*
G75*
G02*
X129810000Y-88310000I-1200000J0D01*
G01*
X129810000Y-88310000D02*
G75*
G02*
X132210000Y-88310000I1200000J0D01*
G01*
%TO.C,TP2*%
X129200000Y-83290000D02*
G75*
G02*
X126800000Y-83290000I-1200000J0D01*
G01*
X126800000Y-83290000D02*
G75*
G02*
X129200000Y-83290000I1200000J0D01*
G01*
%TO.C,TP3*%
X132250000Y-78860000D02*
G75*
G02*
X129850000Y-78860000I-1200000J0D01*
G01*
X129850000Y-78860000D02*
G75*
G02*
X132250000Y-78860000I1200000J0D01*
G01*
%TD*%
M02*
